<svg width="14" height="8" viewBox="0 0 14 8" fill="none" xmlns="http://www.w3.org/2000/svg">
<path d="M13.5343 0.382961C13.4014 0.300881 13.2441 0.267418 13.0893 0.288273C12.9345 0.309128 12.7917 0.383011 12.6853 0.497336L7.80234 5.36707C7.67862 5.49064 7.5109 5.56005 7.33604 5.56005C7.16118 5.56005 6.99347 5.49064 6.86974 5.36707L1.98681 0.497336C1.88036 0.383011 1.73757 0.309128 1.58276 0.288273C1.42795 0.267418 1.2707 0.300881 1.1378 0.382961C1.05643 0.437056 0.98809 0.508547 0.937716 0.592269C0.887342 0.675992 0.856189 0.769856 0.846508 0.867084C0.836828 0.964312 0.84886 1.06248 0.881737 1.15449C0.914614 1.2465 0.967515 1.33006 1.03662 1.39914L6.40345 6.76597L6.86974 7.23226C6.99347 7.35583 7.16118 7.42524 7.33604 7.42524C7.5109 7.42524 7.67862 7.35583 7.80234 7.23226L8.26864 6.76597L13.6355 1.39914C13.7046 1.33006 13.7575 1.2465 13.7903 1.15449C13.8232 1.06248 13.8353 0.964312 13.8256 0.867084C13.8159 0.769856 13.7847 0.675992 13.7344 0.592269C13.684 0.508547 13.6157 0.437056 13.5343 0.382961Z" fill="black"/>
</svg>
