<svg width="6" height="10" viewBox="0 0 6 10" fill="none" xmlns="http://www.w3.org/2000/svg">
<path d="M5.91221 0.66602C5.97017 0.758116 5.99476 0.867311 5.98189 0.97536C5.96901 1.08341 5.91944 1.18377 5.84147 1.25966L2.43032 4.67389C2.34392 4.7604 2.29538 4.87767 2.29538 4.99994C2.29538 5.1222 2.34392 5.23947 2.43032 5.32598L5.84454 8.74021C5.92229 8.81633 5.97146 8.9169 5.98378 9.02501C5.99611 9.13312 5.97083 9.24218 5.91221 9.33385C5.87439 9.39075 5.8244 9.43853 5.76586 9.47375C5.70732 9.50897 5.64169 9.53076 5.57371 9.53753C5.50572 9.54429 5.43709 9.53588 5.37275 9.51289C5.30841 9.4899 5.24999 9.45292 5.20169 9.4046L1.45219 5.65202L1.12614 5.32598C1.03974 5.23947 0.991211 5.1222 0.991211 4.99994C0.991211 4.87767 1.03974 4.7604 1.12614 4.67389L1.45219 4.34785L5.20476 0.595274C5.25304 0.547515 5.31128 0.511004 5.3753 0.488347C5.43932 0.46569 5.50756 0.457446 5.57513 0.464204C5.64271 0.470961 5.70796 0.492554 5.76623 0.52744C5.8245 0.562326 5.87434 0.609645 5.91221 0.66602Z" fill="black"/>
</svg>
