<svg width="10" height="6" viewBox="0 0 10 6" fill="none" xmlns="http://www.w3.org/2000/svg">
<path d="M9.7691 0.331411C9.66684 0.268259 9.54585 0.242512 9.42674 0.258558C9.30763 0.274604 9.19777 0.33145 9.11587 0.419411L5.35895 4.16618C5.26375 4.26125 5.13472 4.31466 5.00018 4.31466C4.86564 4.31466 4.7366 4.26125 4.64141 4.16618L0.884484 0.419411C0.802584 0.33145 0.692721 0.274604 0.573611 0.258558C0.4545 0.242512 0.333511 0.268259 0.231253 0.331411C0.168649 0.373032 0.116069 0.428037 0.0773115 0.492453C0.0385537 0.556869 0.014585 0.629088 0.00713671 0.703895C-0.000311617 0.778702 0.00894626 0.85423 0.0342417 0.925024C0.0595372 0.995817 0.100239 1.06011 0.153407 1.11326L4.28264 5.24249L4.64141 5.60126C4.7366 5.69633 4.86564 5.74973 5.00018 5.74973C5.13472 5.74973 5.26375 5.69633 5.35895 5.60126L5.71772 5.24249L9.84695 1.11326C9.90012 1.06011 9.94082 0.995817 9.96611 0.925024C9.99141 0.85423 10.0007 0.778702 9.99322 0.703895C9.98577 0.629088 9.9618 0.556869 9.92304 0.492453C9.88428 0.428037 9.8317 0.373032 9.7691 0.331411Z" fill="black"/>
</svg>
