<svg width="13" height="14" viewBox="0 0 13 14" fill="none" xmlns="http://www.w3.org/2000/svg">
<path d="M12.4466 6.57638H7.54675C7.40791 6.57638 7.27476 6.52122 7.17658 6.42305C7.07841 6.32488 7.02326 6.19172 7.02326 6.05289V1.15302C7.02602 1.01521 6.97641 0.881486 6.88443 0.778824C6.79246 0.676163 6.66497 0.612208 6.52769 0.599866C6.45663 0.596071 6.38554 0.606803 6.31877 0.631406C6.252 0.656009 6.19095 0.693967 6.13934 0.742961C6.08773 0.791955 6.04666 0.850956 6.01862 0.91636C5.99058 0.981764 5.97618 1.0522 5.97628 1.12336V6.05289C5.97628 6.19172 5.92112 6.32488 5.82295 6.42305C5.72478 6.52122 5.59163 6.57638 5.45279 6.57638H0.552923C0.415115 6.57361 0.281388 6.62322 0.178727 6.7152C0.076065 6.80717 0.0121107 6.93466 -0.000231453 7.07195C-0.0040267 7.143 0.0067051 7.21409 0.0313083 7.28086C0.0559115 7.34763 0.0938696 7.40869 0.142864 7.46029C0.191857 7.5119 0.250859 7.55298 0.316262 7.58101C0.381666 7.60905 0.452099 7.62346 0.523258 7.62336H5.45279C5.59163 7.62336 5.72478 7.67851 5.82295 7.77668C5.92112 7.87486 5.97628 8.00801 5.97628 8.14685V13.0467C5.97352 13.1845 6.02313 13.3182 6.1151 13.4209C6.20708 13.5236 6.33457 13.5875 6.47185 13.5999C6.54291 13.6037 6.61399 13.5929 6.68076 13.5683C6.74754 13.5437 6.80859 13.5058 6.8602 13.4568C6.9118 13.4078 6.95288 13.3488 6.98092 13.2834C7.00895 13.218 7.02336 13.1475 7.02326 13.0764V8.14685C7.02326 8.00801 7.07841 7.87486 7.17658 7.77668C7.27476 7.67851 7.40791 7.62336 7.54675 7.62336H12.4763C12.5474 7.62346 12.6179 7.60905 12.6833 7.58101C12.7487 7.55298 12.8077 7.5119 12.8567 7.46029C12.9057 7.40869 12.9436 7.34763 12.9682 7.28086C12.9928 7.21409 13.0036 7.143 12.9998 7.07195C12.9874 6.93466 12.9235 6.80717 12.8208 6.7152C12.7181 6.62322 12.5844 6.57361 12.4466 6.57638Z" fill="#008FF4"/>
</svg>
