<svg width="96" height="40" viewBox="0 0 96 40" fill="none" xmlns="http://www.w3.org/2000/svg">
<rect x="1.51953" y="1" width="93.47" height="38" rx="4" fill="#008FF4"/>
<g clip-path="url(#clip0_4_549)">
<g clip-path="url(#clip1_4_549)">
<path d="M21.0156 23.7654L17.6613 19.9728C17.5784 19.8823 17.5293 19.766 17.5223 19.6435C17.5154 19.5209 17.551 19.3998 17.6232 19.3005C17.6696 19.2391 17.7291 19.1888 17.7973 19.1531C17.8655 19.1175 17.9408 19.0975 18.0178 19.0945C18.0947 19.0915 18.1713 19.1056 18.2421 19.1359C18.3129 19.1661 18.3761 19.2117 18.4271 19.2693L21.5215 22.7675C21.5825 22.8361 21.6681 22.8777 21.7597 22.8832C21.8513 22.8887 21.9414 22.8577 22.0101 22.7969L29.6492 16.0346C29.7526 15.9427 29.8882 15.8956 30.0263 15.9037C30.1644 15.9119 30.2936 15.9745 30.3855 16.0779C30.4774 16.1813 30.5245 16.3169 30.5164 16.455C30.5082 16.5931 30.4456 16.7223 30.3422 16.8142L22.3896 23.8486C22.1963 24.0197 21.943 24.107 21.6854 24.0914C21.4278 24.0758 21.1868 23.9586 21.0156 23.7654Z" fill="white"/>
</g>
</g>
<path d="M45.8516 25V14.9785H49.3037C50.083 14.9785 50.6777 15.0264 51.0879 15.1221C51.6621 15.2542 52.152 15.4935 52.5576 15.8398C53.0863 16.2865 53.4805 16.8584 53.7402 17.5557C54.0046 18.2484 54.1367 19.0413 54.1367 19.9346C54.1367 20.6956 54.0479 21.3701 53.8701 21.958C53.6924 22.5459 53.4645 23.0335 53.1865 23.4209C52.9085 23.8037 52.6032 24.1068 52.2705 24.3301C51.9424 24.5488 51.5436 24.7152 51.0742 24.8291C50.6094 24.943 50.0739 25 49.4678 25H45.8516ZM47.1777 23.8174H49.3174C49.9782 23.8174 50.4954 23.7559 50.8691 23.6328C51.2474 23.5098 51.5482 23.3366 51.7715 23.1133C52.0859 22.7988 52.3298 22.3773 52.5029 21.8486C52.6807 21.3154 52.7695 20.6706 52.7695 19.9141C52.7695 18.8659 52.5964 18.0615 52.25 17.501C51.9082 16.9359 51.4912 16.5576 50.999 16.3662C50.6436 16.2295 50.0716 16.1611 49.2832 16.1611H47.1777V23.8174ZM55.3535 21.3701C55.3535 20.0257 55.7272 19.0299 56.4746 18.3828C57.099 17.8451 57.86 17.5762 58.7578 17.5762C59.7559 17.5762 60.5716 17.9043 61.2051 18.5605C61.8385 19.2122 62.1553 20.1146 62.1553 21.2676C62.1553 22.2018 62.014 22.9378 61.7314 23.4756C61.4535 24.0088 61.0456 24.4235 60.5078 24.7197C59.9746 25.016 59.3913 25.1641 58.7578 25.1641C57.7415 25.1641 56.9189 24.8382 56.29 24.1865C55.6657 23.5348 55.3535 22.596 55.3535 21.3701ZM56.6182 21.3701C56.6182 22.2998 56.821 22.9971 57.2266 23.4619C57.6322 23.9222 58.1426 24.1523 58.7578 24.1523C59.3685 24.1523 59.8766 23.9199 60.2822 23.4551C60.6878 22.9902 60.8906 22.2816 60.8906 21.3291C60.8906 20.4313 60.6855 19.7523 60.2754 19.292C59.8698 18.8271 59.3639 18.5947 58.7578 18.5947C58.1426 18.5947 57.6322 18.8249 57.2266 19.2852C56.821 19.7454 56.6182 20.4404 56.6182 21.3701ZM63.6045 25V17.7402H64.7119V18.7725C65.2451 17.9749 66.0153 17.5762 67.0225 17.5762C67.46 17.5762 67.861 17.6559 68.2256 17.8154C68.5947 17.9704 68.8704 18.1755 69.0527 18.4307C69.235 18.6859 69.3626 18.9889 69.4355 19.3398C69.4811 19.5677 69.5039 19.9665 69.5039 20.5361V25H68.2734V20.584C68.2734 20.0827 68.2256 19.709 68.1299 19.4629C68.0342 19.2122 67.8633 19.014 67.6172 18.8682C67.3757 18.7178 67.0908 18.6426 66.7627 18.6426C66.2386 18.6426 65.7852 18.8089 65.4023 19.1416C65.0241 19.4743 64.835 20.1055 64.835 21.0352V25H63.6045ZM76.3672 22.6621L77.6387 22.8193C77.4382 23.5622 77.0667 24.1387 76.5244 24.5488C75.9821 24.959 75.2894 25.1641 74.4463 25.1641C73.3844 25.1641 72.5413 24.8382 71.917 24.1865C71.2972 23.5303 70.9873 22.612 70.9873 21.4316C70.9873 20.2103 71.3018 19.2624 71.9307 18.5879C72.5596 17.9134 73.3753 17.5762 74.3779 17.5762C75.3486 17.5762 76.1416 17.9066 76.7568 18.5674C77.3721 19.2282 77.6797 20.1579 77.6797 21.3564C77.6797 21.4294 77.6774 21.5387 77.6729 21.6846H72.2588C72.3044 22.4821 72.5299 23.0928 72.9355 23.5166C73.3411 23.9404 73.847 24.1523 74.4531 24.1523C74.9043 24.1523 75.2894 24.0339 75.6084 23.7969C75.9274 23.5599 76.1803 23.1816 76.3672 22.6621ZM72.3271 20.6729H76.3809C76.3262 20.0622 76.1712 19.6042 75.916 19.2988C75.5241 18.8249 75.016 18.5879 74.3916 18.5879C73.8265 18.5879 73.3503 18.777 72.9629 19.1553C72.5801 19.5335 72.3682 20.0394 72.3271 20.6729Z" fill="white"/>
<rect x="1.51953" y="1" width="93.47" height="38" rx="4" stroke="#008FF4" stroke-width="2"/>
<defs>
<clipPath id="clip0_4_549">
<rect width="13" height="8.19" fill="white" transform="translate(17.5195 15.9048)"/>
</clipPath>
<clipPath id="clip1_4_549">
<rect width="12.998" height="8.19" fill="white" transform="translate(17.5205 15.9048)"/>
</clipPath>
</defs>
</svg>
