<svg width="16" height="16" viewBox="0 0 16 16" fill="none" xmlns="http://www.w3.org/2000/svg">
<path d="M3.33329 1.33317C3.33329 0.966504 3.03329 0.666504 2.66663 0.666504C2.29996 0.666504 1.99996 0.966504 1.99996 1.33317V3.99984H0.666626V7.99984H4.66663V3.99984H3.33329V1.33317ZM5.99996 12.5465H7.33329V15.3332H8.66663V12.5465H9.99996V9.33317H5.99996V12.5465ZM0.666626 12.5465H1.99996V15.3332H3.33329V12.5465H4.66663V9.33317H0.666626V12.5465ZM14 3.99984V1.33317C14 0.966504 13.7 0.666504 13.3333 0.666504C12.9666 0.666504 12.6666 0.966504 12.6666 1.33317V3.99984H11.3333V7.99984H15.3333V3.99984H14ZM8.66663 1.33317C8.66663 0.966504 8.36663 0.666504 7.99996 0.666504C7.63329 0.666504 7.33329 0.966504 7.33329 1.33317V3.99984H5.99996V7.99984H9.99996V3.99984H8.66663V1.33317ZM11.3333 12.5465H12.6666V15.3332H14V12.5465H15.3333V9.33317H11.3333V12.5465Z" fill="white"/>
</svg>
