<svg width="14" height="14" viewBox="0 0 14 14" fill="none" xmlns="http://www.w3.org/2000/svg">
<path d="M9.33324 12.7418L7.96001 12.473C7.731 12.4289 7.52048 12.3171 7.35571 12.1521L1.21892 6.00901C1.10992 5.90057 1.02342 5.77166 0.964404 5.62969C0.905383 5.48772 0.875 5.33549 0.875 5.18174C0.875 5.02799 0.905383 4.87575 0.964404 4.73378C1.02342 4.59181 1.10992 4.46291 1.21892 4.35447L4.7197 0.853683C4.82814 0.744685 4.95705 0.65819 5.09902 0.59917C5.24099 0.540149 5.39322 0.509766 5.54697 0.509766C5.70072 0.509766 5.85296 0.540149 5.99493 0.59917C6.1369 0.65819 6.26581 0.744685 6.37424 0.853683L12.5131 6.99048C12.6781 7.15532 12.7898 7.36581 12.834 7.59478L13.107 8.97009L13.853 12.7459C13.8727 12.8465 13.8673 12.9503 13.8374 13.0484C13.8075 13.1464 13.754 13.2355 13.6815 13.308C13.6091 13.3804 13.5199 13.4339 13.4219 13.4638C13.3239 13.4937 13.2201 13.4991 13.1195 13.4794L9.33324 12.7418ZM5.25107 2.08729L2.45253 4.88584C2.41378 4.92454 2.38304 4.97051 2.36207 5.0211C2.34109 5.0717 2.3303 5.12593 2.3303 5.1807C2.3303 5.23547 2.34109 5.2897 2.36207 5.34029C2.38304 5.39088 2.41378 5.43685 2.45253 5.47555L8.20174 11.2248C8.27982 11.3024 8.38545 11.346 8.49555 11.346C8.60565 11.346 8.71128 11.3024 8.78937 11.2248L11.5879 8.4283C11.6267 8.3896 11.6574 8.34363 11.6784 8.29304C11.6993 8.24244 11.7101 8.18821 11.7101 8.13344C11.7101 8.07867 11.6993 8.02444 11.6784 7.97385C11.6574 7.92325 11.6267 7.87729 11.5879 7.83858L5.84287 2.08729C5.80413 2.04823 5.75804 2.01723 5.70725 1.99607C5.65646 1.97491 5.60199 1.96402 5.54697 1.96402C5.49196 1.96402 5.43748 1.97491 5.3867 1.99607C5.33591 2.01723 5.28982 2.04823 5.25107 2.08729ZM10.7857 11.7499L12.1422 12.0124C12.1762 12.0192 12.2114 12.0173 12.2445 12.007C12.2776 11.9967 12.3077 11.9783 12.3319 11.9535C12.3561 11.9287 12.3737 11.8982 12.3832 11.8648C12.3926 11.8314 12.3936 11.7962 12.386 11.7624L12.1276 10.4162C12.1223 10.377 12.1059 10.34 12.0803 10.3097C12.0547 10.2794 12.0211 10.257 11.9832 10.2452C11.9453 10.2334 11.9049 10.2326 11.8666 10.243C11.8284 10.2533 11.7938 10.2744 11.7671 10.3037L10.669 11.3977C10.642 11.4251 10.6232 11.4593 10.6145 11.4967C10.6058 11.534 10.6076 11.5731 10.6196 11.6095C10.6317 11.6459 10.6536 11.6783 10.6829 11.7031C10.7122 11.7278 10.7477 11.744 10.7857 11.7499Z" fill="black"/>
</svg>
