<svg width="30" height="30" viewBox="0 0 30 30" fill="none" xmlns="http://www.w3.org/2000/svg">
<rect width="30" height="30" rx="4" fill="#6E8290"/>
<g clip-path="url(#clip0_658_16977)">
<g clip-path="url(#clip1_658_16977)">
<path d="M12.0735 16.0734V25.1921H16.5102V16.1171H19.5386L20.2708 12.3335H16.5393C16.5393 12.3335 16.5393 10.5531 16.5393 9.55675C16.5393 9.17403 16.7452 8.66027 17.365 8.66027C18.3218 8.66027 19.5199 8.66027 19.5199 8.66027V4.80811C19.5199 4.80811 17.5793 4.80811 15.4951 4.80811C14.1057 4.80811 12.0548 6.51787 12.0548 8.33787C12.0548 10.2078 12.0548 12.2254 12.0548 12.2254H9.73145V16.0567L12.0735 16.0734Z" fill="white"/>
</g>
</g>
<defs>
<clipPath id="clip0_658_16977">
<rect width="20.8" height="20.8" fill="white" transform="translate(4.6001 4.6001)"/>
</clipPath>
<clipPath id="clip1_658_16977">
<rect width="20.8" height="20.8" fill="white" transform="translate(4.6001 4.6001)"/>
</clipPath>
</defs>
</svg>
