<svg width="14" height="14" viewBox="0 0 14 14" fill="none" xmlns="http://www.w3.org/2000/svg">
<g clip-path="url(#clip0_658_18467)">
<path d="M1.05383 3.29457H2.41414C2.55201 3.29457 2.68424 3.34934 2.78173 3.44683C2.87923 3.54432 2.934 3.67655 2.934 3.81443V4.46772C2.93122 4.60568 2.9808 4.73956 3.07275 4.84244C3.1647 4.94532 3.2922 5.00956 3.4296 5.02224C3.49988 5.02552 3.5701 5.01451 3.636 4.98985C3.7019 4.9652 3.76211 4.92743 3.81298 4.87883C3.86385 4.83022 3.90433 4.7718 3.93196 4.70709C3.95959 4.64238 3.9738 4.57274 3.97372 4.50238V1.07649C3.97687 0.938151 3.9272 0.803807 3.83481 0.700793C3.74242 0.597779 3.61425 0.533835 3.47639 0.521973C3.40624 0.51893 3.33621 0.530127 3.27052 0.554887C3.20482 0.579647 3.14482 0.617457 3.09414 0.666037C3.04345 0.714617 3.00313 0.77296 2.97561 0.837547C2.94809 0.902134 2.93393 0.971627 2.934 1.04183V1.73498C2.934 1.87286 2.87923 2.00509 2.78173 2.10258C2.68424 2.20007 2.55201 2.25484 2.41414 2.25484H1.01917C0.949422 2.25481 0.880375 2.2688 0.816146 2.29601C0.751917 2.32321 0.693818 2.36306 0.645311 2.41318C0.596804 2.46331 0.55888 2.52268 0.533798 2.58777C0.508715 2.65285 0.496987 2.72232 0.499312 2.79203C0.509918 2.93083 0.573317 3.06029 0.676464 3.15376C0.779611 3.24724 0.914662 3.29763 1.05383 3.29457Z" fill="black"/>
<path d="M6.39081 3.29477H12.9445C13.0832 3.29735 13.2176 3.24671 13.3201 3.15324C13.4226 3.05976 13.4854 2.93058 13.4956 2.79223C13.4979 2.72252 13.4862 2.65305 13.4611 2.58796C13.436 2.52288 13.3981 2.46351 13.3496 2.41338C13.3011 2.36326 13.243 2.32341 13.1788 2.29621C13.1145 2.269 13.0455 2.255 12.9757 2.25504H6.4272C6.28977 2.25172 6.15614 2.30037 6.05302 2.39129C5.9499 2.4822 5.88488 2.60868 5.87095 2.74545C5.86694 2.81615 5.87742 2.88693 5.90174 2.95345C5.92606 3.01996 5.96372 3.0808 6.0124 3.13224C6.06108 3.18368 6.11975 3.22463 6.18482 3.25257C6.2499 3.28052 6.31999 3.29488 6.39081 3.29477Z" fill="black"/>
<path d="M12.9764 10.7091H6.42783C6.28931 10.7059 6.15476 10.7556 6.05146 10.8479C5.94817 10.9403 5.88386 11.0684 5.87158 11.2065C5.86854 11.2766 5.87974 11.3466 5.9045 11.4123C5.92926 11.478 5.96707 11.538 6.01565 11.5887C6.06423 11.6394 6.12257 11.6797 6.18716 11.7072C6.25174 11.7348 6.32124 11.7489 6.39144 11.7489H12.9452C13.0827 11.7516 13.2162 11.7019 13.3185 11.6098C13.4209 11.5178 13.4844 11.3904 13.4962 11.2533C13.4995 11.183 13.4885 11.1127 13.4638 11.0468C13.4392 10.9809 13.4014 10.9207 13.3528 10.8699C13.3042 10.819 13.2458 10.7785 13.1811 10.7509C13.1164 10.7233 13.0467 10.7091 12.9764 10.7091Z" fill="black"/>
<path d="M3.4298 8.98396C3.293 8.99579 3.16578 9.05906 3.0738 9.16101C2.98182 9.26296 2.93193 9.396 2.9342 9.53328V10.1866C2.9342 10.3245 2.87942 10.4567 2.78193 10.5542C2.68444 10.6517 2.55221 10.7064 2.41433 10.7064H1.05403C0.915252 10.7038 0.780668 10.7541 0.677656 10.8471C0.574644 10.9401 0.510943 11.0689 0.499512 11.2072C0.496469 11.2774 0.507666 11.3474 0.532426 11.4131C0.557186 11.4788 0.594996 11.5388 0.643576 11.5895C0.692156 11.6402 0.750499 11.6805 0.815086 11.708C0.879674 11.7355 0.949166 11.7497 1.01937 11.7496H2.41433C2.55221 11.7496 2.68444 11.8044 2.78193 11.9019C2.87942 11.9994 2.9342 12.1316 2.9342 12.2695V12.9228C2.93104 13.0607 2.98053 13.1946 3.0726 13.2973C3.16466 13.3999 3.29239 13.4637 3.4298 13.4756C3.50008 13.4789 3.5703 13.4678 3.6362 13.4432C3.7021 13.4185 3.76231 13.3808 3.81318 13.3322C3.86405 13.2835 3.90453 13.2251 3.93216 13.1604C3.95979 13.0957 3.974 13.0261 3.97392 12.9557V9.50383C3.974 9.43347 3.95979 9.36382 3.93216 9.29912C3.90453 9.23441 3.86405 9.17598 3.81318 9.12738C3.76231 9.07877 3.7021 9.041 3.6362 9.01635C3.5703 8.9917 3.50008 8.98068 3.4298 8.98396Z" fill="black"/>
<path d="M1.01937 6.47949C0.949166 6.47943 0.879674 6.49358 0.815086 6.5211C0.750499 6.54863 0.692156 6.58895 0.643576 6.63963C0.594996 6.69032 0.557186 6.75032 0.532426 6.81601C0.507666 6.88171 0.496469 6.95174 0.499512 7.02188C0.511774 7.15959 0.575836 7.28752 0.67876 7.37983C0.781684 7.47214 0.915802 7.52195 1.05403 7.51922H7.56963C7.70797 7.52237 7.84231 7.4727 7.94533 7.38031C8.04834 7.28792 8.11228 7.15975 8.12415 7.02188C8.12719 6.95174 8.11599 6.88171 8.09123 6.81601C8.06647 6.75032 8.02866 6.69032 7.98008 6.63963C7.9315 6.58895 7.87316 6.54863 7.80857 6.5211C7.74398 6.49358 7.67449 6.47943 7.60428 6.47949H1.01937Z" fill="black"/>
<path d="M10.5226 4.75367C10.3858 4.76636 10.2589 4.83048 10.1676 4.93308C10.0762 5.03568 10.0272 5.16912 10.0304 5.30646V8.69249C10.0273 8.83065 10.077 8.96478 10.1695 9.06752C10.2619 9.17025 10.39 9.23383 10.5278 9.24527C10.5979 9.24832 10.6679 9.23712 10.7336 9.21236C10.7993 9.1876 10.8593 9.14979 10.91 9.10121C10.9607 9.05263 11.001 8.99429 11.0285 8.9297C11.0561 8.86511 11.0702 8.79562 11.0701 8.72541V8.03226C11.0701 7.89439 11.1249 7.76216 11.2224 7.66467C11.3199 7.56717 11.4521 7.5124 11.59 7.5124H12.952C13.0875 7.51306 13.2184 7.46317 13.319 7.37247C13.4196 7.28178 13.4828 7.15681 13.4962 7.022C13.4992 6.95186 13.488 6.88183 13.4633 6.81613C13.4385 6.75044 13.4007 6.69044 13.3521 6.63975C13.3035 6.58907 13.2452 6.54875 13.1806 6.52122C13.116 6.4937 13.0465 6.47955 12.9763 6.47961H11.59C11.4521 6.47961 11.3199 6.42484 11.2224 6.32735C11.1249 6.22985 11.0701 6.09763 11.0701 5.95975V5.2666C11.0693 5.19652 11.0543 5.12733 11.0261 5.06319C10.9978 4.99906 10.9569 4.9413 10.9057 4.89338C10.8546 4.84547 10.7943 4.80839 10.7284 4.78439C10.6626 4.76038 10.5925 4.74993 10.5226 4.75367Z" fill="black"/>
</g>
<defs>
<clipPath id="clip0_658_18467">
<rect width="13" height="12.9549" fill="white" transform="translate(0.5 0.522461)"/>
</clipPath>
</defs>
</svg>
