<svg width="6" height="10" viewBox="0 0 6 10" fill="none" xmlns="http://www.w3.org/2000/svg">
<path d="M0.331289 0.231144C0.268136 0.333401 0.24239 0.454391 0.258436 0.573502C0.274482 0.692612 0.331328 0.802475 0.419289 0.884375L4.16606 4.6413C4.26113 4.73649 4.31453 4.86553 4.31453 5.00007C4.31453 5.13461 4.26113 5.26364 4.16606 5.35884L0.419289 9.11576C0.331328 9.19766 0.274482 9.30752 0.258436 9.42663C0.24239 9.54574 0.268137 9.66673 0.331289 9.76899C0.37291 9.83159 0.427915 9.88417 0.492331 9.92293C0.556747 9.96169 0.628966 9.98566 0.703773 9.99311C0.77858 10.0006 0.854108 9.9913 0.924901 9.966C0.995695 9.94071 1.05999 9.90001 1.11314 9.84684L5.24237 5.71761L5.60114 5.35884C5.69621 5.26364 5.74961 5.13461 5.74961 5.00007C5.74961 4.86553 5.69621 4.73649 5.60114 4.6413L5.24237 4.28253L1.11313 0.153298C1.05999 0.100129 0.995695 0.0594282 0.924901 0.0341329C0.854107 0.00883672 0.77858 -0.000420593 0.703773 0.00702761C0.628966 0.0144758 0.556746 0.0384445 0.49233 0.0772018C0.427914 0.11596 0.37291 0.16854 0.331289 0.231144Z" fill="black"/>
</svg>
