<svg width="15" height="15" viewBox="0 0 15 15" fill="none" xmlns="http://www.w3.org/2000/svg">
<path d="M13.884 4.32418L8.14804 0.210181C7.9596 0.0735638 7.7328 0 7.50004 0C7.26729 0 7.04049 0.0735638 6.85204 0.210181L1.11604 4.32418L0.476045 4.78418C0.328365 4.891 0.208191 5.0314 0.125431 5.19379C0.0426702 5.35618 -0.000306269 5.53592 4.44824e-05 5.71818V13.8562C-0.00127454 14.0051 0.0267529 14.1528 0.0825264 14.2909C0.1383 14.429 0.220727 14.5547 0.325101 14.661C0.429476 14.7672 0.553752 14.8518 0.690836 14.91C0.827919 14.9682 0.975124 14.9989 1.12404 15.0002H4.77604C4.92497 14.9989 5.07217 14.9682 5.20925 14.91C5.34634 14.8518 5.47061 14.7672 5.57499 14.661C5.67936 14.5547 5.76179 14.429 5.81756 14.2909C5.87334 14.1528 5.90136 14.0051 5.90004 13.8562V10.4962C5.90004 10.3901 5.94219 10.2884 6.0172 10.2133C6.09222 10.1383 6.19396 10.0962 6.30004 10.0962H8.70004C8.80613 10.0962 8.90787 10.1383 8.98289 10.2133C9.0579 10.2884 9.10004 10.3901 9.10004 10.4962V13.8562C9.09873 14.0051 9.12675 14.1528 9.18253 14.2909C9.2383 14.429 9.32073 14.5547 9.4251 14.661C9.52948 14.7672 9.65375 14.8518 9.79084 14.91C9.92792 14.9682 10.0751 14.9989 10.224 15.0002H13.876C14.025 14.9989 14.1722 14.9682 14.3093 14.91C14.4463 14.8518 14.5706 14.7672 14.675 14.661C14.7794 14.5547 14.8618 14.429 14.9176 14.2909C14.9733 14.1528 15.0014 14.0051 15 13.8562V5.71818C15.0004 5.53592 14.9574 5.35618 14.8747 5.19379C14.7919 5.0314 14.6717 4.891 14.524 4.78418L13.884 4.32418ZM13.4 13.7182H10.7C10.594 13.7182 10.4922 13.676 10.4172 13.601C10.3422 13.526 10.3 13.4243 10.3 13.3182V9.95218C10.3024 9.80259 10.2752 9.65401 10.2199 9.515C10.1646 9.37598 10.0823 9.24929 9.97785 9.1422C9.87337 9.03512 9.74873 8.94977 9.61112 8.89107C9.47351 8.83237 9.32565 8.80148 9.17604 8.80018H5.82404C5.67512 8.80149 5.52792 8.83212 5.39084 8.89032C5.25375 8.94852 5.12948 9.03315 5.0251 9.13938C4.92073 9.24561 4.8383 9.37136 4.78253 9.50945C4.72675 9.64754 4.69873 9.79526 4.70004 9.94418V13.3042C4.70004 13.4103 4.6579 13.512 4.58289 13.587C4.50787 13.662 4.40613 13.7042 4.30004 13.7042H1.60004C1.49396 13.7042 1.39222 13.662 1.3172 13.587C1.24219 13.512 1.20004 13.4103 1.20004 13.3042V6.01818C1.20012 5.95306 1.21555 5.88888 1.24509 5.83084C1.27462 5.77281 1.31744 5.72256 1.37004 5.68418L1.48204 5.60018L3.26804 4.31818L7.26804 1.44818C7.3354 1.40084 7.41572 1.37544 7.49804 1.37544C7.58037 1.37544 7.66069 1.40084 7.72804 1.44818L11.728 4.31818L13.518 5.60018L13.63 5.67818C13.6835 5.71715 13.7268 5.76836 13.7564 5.82752C13.786 5.88667 13.8009 5.95205 13.8 6.01818V13.3122C13.8008 13.3652 13.7911 13.4179 13.7713 13.4671C13.7516 13.5163 13.7223 13.5611 13.685 13.5989C13.6478 13.6367 13.6034 13.6667 13.5545 13.6872C13.5056 13.7076 13.4531 13.7182 13.4 13.7182Z" fill="white"/>
</svg>
