<svg width="26" height="14" viewBox="0 0 26 14" fill="none" xmlns="http://www.w3.org/2000/svg">
<g clip-path="url(#clip0_128_3869)">
<path d="M4.09717 0.992846C4.09717 0.457389 4.53124 0.0233155 5.0667 0.0233155L18.931 0.0233154C19.4664 0.0233154 19.9005 0.457389 19.9005 0.992846C19.9005 1.5283 19.4664 1.96238 18.931 1.96238H5.0667C4.53124 1.96238 4.09717 1.5283 4.09717 0.992846Z" fill="white"/>
<path d="M4.09717 6.68084C4.09717 6.14538 4.53124 5.71131 5.0667 5.71131L21.5487 5.7113C22.0841 5.7113 22.5182 6.14538 22.5182 6.68083C22.5182 7.21629 22.0841 7.65038 21.5487 7.65038H5.0667C4.53124 7.65038 4.09717 7.2163 4.09717 6.68084Z" fill="white"/>
<path d="M5.0667 13.2737H13.34C13.8755 13.2737 14.3096 12.8396 14.3096 12.3041C14.3096 11.7687 13.8755 11.3346 13.34 11.3346H5.0667C4.53124 11.3346 4.09717 11.7687 4.09717 12.3041C4.09717 12.8396 4.53124 13.2737 5.0667 13.2737Z" fill="white"/>
</g>
<defs>
<clipPath id="clip0_128_3869">
<rect width="19.1579" height="14" fill="white" transform="translate(3.42102)"/>
</clipPath>
</defs>
</svg>
