<svg width="38" height="38" viewBox="0 0 38 38" fill="none" xmlns="http://www.w3.org/2000/svg">
<g clip-path="url(#clip0_289_4)">
<path d="M19 38C29.4934 38 38 29.4934 38 19C38 8.50659 29.4934 0 19 0C8.50659 0 0 8.50659 0 19C0 29.4934 8.50659 38 19 38Z" fill="#12CD9C"/>
<path d="M7.01538 22.2156C7.01538 22.2156 11.1077 29.8156 18.7077 29.8156C26.3077 29.8156 30.4 22.2156 30.4 22.2156" fill="white"/>
<path d="M18.7077 30.9848C10.5231 30.9848 6.16775 23.1042 5.98652 22.8002C5.83922 22.5273 5.80636 22.2071 5.89516 21.91C5.98397 21.6129 6.18717 21.3632 6.46005 21.2159C6.73294 21.0686 7.05317 21.0357 7.35028 21.1245C7.6474 21.2133 7.89707 21.4165 8.04436 21.6894C8.07944 21.7596 11.9145 28.7048 18.7077 28.7048C25.501 28.7048 29.3302 21.7888 29.3711 21.6894C29.5184 21.4165 29.7681 21.2133 30.0652 21.1245C30.3623 21.0357 30.6826 21.0686 30.9554 21.2159C31.2283 21.3632 31.4315 21.6129 31.5203 21.91C31.6091 22.2071 31.5763 22.5273 31.429 22.8002C31.2477 23.1042 26.8924 30.9848 18.7077 30.9848Z" fill="black"/>
<path d="M14.5336 16.153C14.3296 16.1518 14.1294 16.0972 13.953 15.9946C13.7766 15.8921 13.6301 15.7451 13.5281 15.5684C13.4813 15.4924 12.3588 13.6509 10.3244 13.6509C8.2899 13.6509 7.12652 15.545 7.11483 15.5684C7.04745 15.7175 6.94954 15.8508 6.82742 15.9597C6.70529 16.0685 6.56169 16.1506 6.40587 16.2004C6.25006 16.2503 6.08552 16.267 5.92287 16.2493C5.76023 16.2316 5.60311 16.1799 5.46168 16.0977C5.32024 16.0155 5.19764 15.9045 5.10179 15.7719C5.00594 15.6393 4.93899 15.4881 4.90525 15.328C4.87152 15.1679 4.87176 15.0025 4.90595 14.8425C4.94014 14.6825 5.00753 14.5315 5.10375 14.3992C5.17975 14.2706 6.95698 11.3358 10.3244 11.3358C13.6918 11.3358 15.4631 14.2589 15.5391 14.3992C15.6415 14.5764 15.6955 14.7774 15.6958 14.9821C15.6961 15.1867 15.6427 15.3879 15.5409 15.5654C15.4391 15.7429 15.2925 15.8906 15.1157 15.9938C14.939 16.0969 14.7382 16.1518 14.5336 16.153Z" fill="black"/>
<path d="M30.3181 16.153C30.1141 16.1518 29.9139 16.0972 29.7375 15.9946C29.5611 15.8921 29.4146 15.7451 29.3126 15.5684C29.2658 15.4924 28.1434 13.6509 26.1089 13.6509C24.0745 13.6509 22.9111 15.545 22.8994 15.5684C22.832 15.7175 22.7341 15.8508 22.612 15.9597C22.4898 16.0685 22.3462 16.1506 22.1904 16.2004C22.0346 16.2503 21.8701 16.267 21.7074 16.2493C21.5448 16.2316 21.3877 16.1799 21.2462 16.0977C21.1048 16.0155 20.9822 15.9045 20.8863 15.7719C20.7905 15.6393 20.7235 15.4881 20.6898 15.328C20.6561 15.1679 20.6563 15.0025 20.6905 14.8425C20.7247 14.6825 20.7921 14.5315 20.8883 14.3992C20.9643 14.2706 22.7415 11.3358 26.1089 11.3358C29.4763 11.3358 31.2477 14.2589 31.3237 14.3992C31.426 14.5764 31.48 14.7774 31.4803 14.9821C31.4807 15.1867 31.4272 15.3879 31.3255 15.5654C31.2237 15.7429 31.0771 15.8906 30.9003 15.9938C30.7235 16.0969 30.5228 16.1518 30.3181 16.153Z" fill="black"/>
</g>
<defs>
<clipPath id="clip0_289_4">
<rect width="38" height="38" fill="white"/>
</clipPath>
</defs>
</svg>
