<svg width="141" height="45" viewBox="0 0 141 45" fill="none" xmlns="http://www.w3.org/2000/svg">
<path d="M43.8011 33.3636C43.7415 32.8598 43.4995 32.4688 43.0753 32.1903C42.651 31.9119 42.1307 31.7727 41.5142 31.7727C41.0634 31.7727 40.669 31.8456 40.331 31.9915C39.9962 32.1373 39.7344 32.3378 39.5455 32.593C39.3598 32.8482 39.267 33.1383 39.267 33.4631C39.267 33.7348 39.3317 33.9685 39.4609 34.1641C39.5935 34.3563 39.7625 34.517 39.968 34.6463C40.1735 34.7723 40.389 34.8767 40.6143 34.9595C40.8397 35.0391 41.0469 35.1037 41.2358 35.1534L42.2699 35.4318C42.535 35.5014 42.83 35.5975 43.1548 35.7202C43.483 35.8428 43.7962 36.0102 44.0945 36.2223C44.3961 36.4311 44.6446 36.6996 44.8402 37.0277C45.0357 37.3558 45.1335 37.7585 45.1335 38.2358C45.1335 38.786 44.9893 39.2831 44.701 39.7273C44.416 40.1714 43.9983 40.5244 43.4482 40.7862C42.9013 41.0481 42.2367 41.179 41.4545 41.179C40.7254 41.179 40.094 41.0613 39.5604 40.826C39.0301 40.5907 38.6125 40.2625 38.3075 39.8416C38.0059 39.4207 37.8352 38.9318 37.7955 38.375H39.0682C39.1013 38.7595 39.2306 39.0777 39.456 39.3295C39.6847 39.5781 39.973 39.7637 40.321 39.8864C40.6723 40.0057 41.0502 40.0653 41.4545 40.0653C41.9252 40.0653 42.3478 39.9891 42.7223 39.8366C43.0968 39.6809 43.3935 39.4654 43.6122 39.1903C43.831 38.9119 43.9403 38.5871 43.9403 38.2159C43.9403 37.8778 43.8459 37.6027 43.657 37.3906C43.468 37.1785 43.2195 37.0062 42.9112 36.8736C42.603 36.741 42.2699 36.625 41.9119 36.5256L40.6591 36.1676C39.8636 35.9389 39.2339 35.6125 38.7699 35.1882C38.3059 34.764 38.0739 34.2088 38.0739 33.5227C38.0739 32.9527 38.228 32.4555 38.5362 32.0312C38.8478 31.6037 39.2654 31.2723 39.7891 31.0369C40.3161 30.7983 40.9044 30.679 41.554 30.679C42.2102 30.679 42.7936 30.7966 43.304 31.032C43.8144 31.264 44.2188 31.5821 44.517 31.9865C44.8187 32.3909 44.9777 32.8499 44.9943 33.3636H43.8011ZM50.3226 33.3636V34.358H46.3652V33.3636H50.3226ZM47.5186 31.5341H48.6919V38.8125C48.6919 39.1439 48.74 39.3925 48.8361 39.5582C48.9355 39.7206 49.0615 39.83 49.214 39.8864C49.3697 39.9394 49.5338 39.9659 49.7061 39.9659C49.8354 39.9659 49.9415 39.9593 50.0243 39.946C50.1072 39.9295 50.1735 39.9162 50.2232 39.9062L50.4618 40.9602C50.3823 40.9901 50.2712 41.0199 50.1287 41.0497C49.9862 41.0829 49.8056 41.0994 49.5868 41.0994C49.2554 41.0994 48.9306 41.0282 48.6124 40.8857C48.2975 40.7431 48.0357 40.526 47.8269 40.2344C47.6214 39.9427 47.5186 39.5748 47.5186 39.1307V31.5341ZM54.3347 41.179C53.8508 41.179 53.4116 41.0878 53.0172 40.9055C52.6228 40.7199 52.3096 40.4531 52.0776 40.1051C51.8456 39.7538 51.7296 39.3295 51.7296 38.8324C51.7296 38.3949 51.8158 38.0402 51.9881 37.7685C52.1605 37.4934 52.3908 37.2779 52.6792 37.1222C52.9675 36.9664 53.2857 36.8504 53.6337 36.7741C53.985 36.6946 54.338 36.6316 54.6926 36.5852C55.1567 36.5256 55.5328 36.4808 55.8212 36.451C56.1129 36.4179 56.325 36.3632 56.4576 36.2869C56.5935 36.2107 56.6614 36.0781 56.6614 35.8892V35.8494C56.6614 35.3589 56.5272 34.9777 56.2587 34.706C55.9935 34.4342 55.5909 34.2983 55.0506 34.2983C54.4905 34.2983 54.0513 34.4209 53.7331 34.6662C53.415 34.9115 53.1912 35.1733 53.062 35.4517L51.9483 35.054C52.1472 34.59 52.4123 34.2287 52.7438 33.9702C53.0785 33.7083 53.4431 33.526 53.8375 33.4233C54.2353 33.3172 54.6264 33.2642 55.0108 33.2642C55.2561 33.2642 55.5378 33.294 55.856 33.3537C56.1775 33.41 56.4874 33.5277 56.7857 33.7067C57.0873 33.8857 57.3375 34.1558 57.5364 34.517C57.7353 34.8783 57.8347 35.3622 57.8347 35.9688V41H56.6614V39.9659H56.6017C56.5222 40.1316 56.3896 40.3089 56.204 40.4979C56.0184 40.6868 55.7715 40.8475 55.4632 40.9801C55.155 41.1127 54.7788 41.179 54.3347 41.179ZM54.5137 40.125C54.9777 40.125 55.3688 40.0339 55.687 39.8516C56.0085 39.6693 56.2504 39.4339 56.4128 39.1456C56.5785 38.8572 56.6614 38.554 56.6614 38.2358V37.1619C56.6117 37.2216 56.5023 37.2763 56.3333 37.326C56.1676 37.3724 55.9753 37.4138 55.7566 37.4503C55.5411 37.4834 55.3307 37.5133 55.1252 37.5398C54.923 37.563 54.7589 37.5829 54.633 37.5994C54.3281 37.6392 54.043 37.7038 53.7779 37.7933C53.516 37.8795 53.3039 38.0104 53.1415 38.1861C52.9824 38.3584 52.9029 38.5937 52.9029 38.892C52.9029 39.2997 53.0537 39.608 53.3553 39.8168C53.6602 40.0223 54.0463 40.125 54.5137 40.125ZM63.2972 33.3636V34.358H59.3398V33.3636H63.2972ZM60.4933 31.5341H61.6665V38.8125C61.6665 39.1439 61.7146 39.3925 61.8107 39.5582C61.9102 39.7206 62.0361 39.83 62.1886 39.8864C62.3443 39.9394 62.5084 39.9659 62.6808 39.9659C62.81 39.9659 62.9161 39.9593 62.9989 39.946C63.0818 39.9295 63.1481 39.9162 63.1978 39.9062L63.4364 40.9602C63.3569 40.9901 63.2459 41.0199 63.1033 41.0497C62.9608 41.0829 62.7802 41.0994 62.5614 41.0994C62.23 41.0994 61.9052 41.0282 61.587 40.8857C61.2721 40.7431 61.0103 40.526 60.8015 40.2344C60.596 39.9427 60.4933 39.5748 60.4933 39.1307V31.5341ZM69.8746 37.8778V33.3636H71.0479V41H69.8746V39.7074H69.7951C69.6161 40.0952 69.3377 40.425 68.9599 40.6967C68.582 40.9652 68.1048 41.0994 67.5281 41.0994C67.0508 41.0994 66.6265 40.995 66.2553 40.7862C65.8841 40.5741 65.5924 40.2559 65.3803 39.8317C65.1682 39.4041 65.0621 38.8655 65.0621 38.2159V33.3636H66.2354V38.1364C66.2354 38.6932 66.3912 39.1373 66.7028 39.4688C67.0176 39.8002 67.4187 39.9659 67.9059 39.9659C68.1976 39.9659 68.4942 39.8913 68.7958 39.7422C69.1007 39.593 69.3559 39.3643 69.5614 39.0561C69.7702 38.7479 69.8746 38.3551 69.8746 37.8778ZM78.606 35.0739L77.552 35.3722C77.4857 35.1965 77.388 35.0258 77.2587 34.8601C77.1328 34.6911 76.9604 34.5518 76.7417 34.4425C76.5229 34.3331 76.2428 34.2784 75.9015 34.2784C75.4341 34.2784 75.0447 34.3861 74.7331 34.6016C74.4249 34.8137 74.2708 35.0838 74.2708 35.4119C74.2708 35.7036 74.3768 35.9339 74.589 36.103C74.8011 36.272 75.1325 36.4129 75.5833 36.5256L76.7168 36.804C77.3996 36.9697 77.9083 37.2232 78.2431 37.5646C78.5778 37.9027 78.7452 38.3385 78.7452 38.8722C78.7452 39.3097 78.6193 39.7008 78.3674 40.0455C78.1188 40.3902 77.7708 40.6619 77.3233 40.8608C76.8759 41.0597 76.3555 41.1591 75.7623 41.1591C74.9834 41.1591 74.3387 40.9901 73.8283 40.652C73.3179 40.3139 72.9947 39.8201 72.8588 39.1705L73.9725 38.892C74.0785 39.303 74.2791 39.6113 74.574 39.8168C74.8723 40.0223 75.2618 40.125 75.7424 40.125C76.2892 40.125 76.7234 40.009 77.0449 39.777C77.3697 39.5417 77.5321 39.2599 77.5321 38.9318C77.5321 38.6667 77.4393 38.4446 77.2537 38.2656C77.0681 38.0833 76.7831 37.9474 76.3986 37.858L75.1259 37.5597C74.4266 37.3939 73.9128 37.1371 73.5847 36.7891C73.2599 36.4377 73.0975 35.9986 73.0975 35.4716C73.0975 35.0407 73.2185 34.6596 73.4604 34.3281C73.7057 33.9967 74.0388 33.7365 74.4597 33.5476C74.8839 33.3587 75.3645 33.2642 75.9015 33.2642C76.6571 33.2642 77.2504 33.4299 77.6813 33.7614C78.1155 34.0928 78.4237 34.5303 78.606 35.0739ZM84.608 41V30.8182H88.0483C88.8471 30.8182 89.5 30.9624 90.0071 31.2507C90.5175 31.5357 90.8954 31.9219 91.1406 32.4091C91.3859 32.8963 91.5085 33.4399 91.5085 34.0398C91.5085 34.6397 91.3859 35.1849 91.1406 35.6754C90.8987 36.166 90.5241 36.5571 90.017 36.8487C89.5099 37.1371 88.8603 37.2812 88.0682 37.2812H85.6023V36.1875H88.0284C88.5753 36.1875 89.0144 36.093 89.3459 35.9041C89.6773 35.7152 89.9176 35.46 90.0668 35.1385C90.2192 34.8137 90.2955 34.4474 90.2955 34.0398C90.2955 33.6321 90.2192 33.2675 90.0668 32.946C89.9176 32.6245 89.6757 32.3726 89.3409 32.1903C89.0062 32.0047 88.562 31.9119 88.0085 31.9119H85.8409V41H84.608ZM95.5827 41.179C95.0988 41.179 94.6597 41.0878 94.2653 40.9055C93.8709 40.7199 93.5576 40.4531 93.3256 40.1051C93.0936 39.7538 92.9776 39.3295 92.9776 38.8324C92.9776 38.3949 93.0638 38.0402 93.2362 37.7685C93.4085 37.4934 93.6388 37.2779 93.9272 37.1222C94.2156 36.9664 94.5337 36.8504 94.8817 36.7741C95.2331 36.6946 95.5861 36.6316 95.9407 36.5852C96.4047 36.5256 96.7809 36.4808 97.0692 36.451C97.3609 36.4179 97.573 36.3632 97.7056 36.2869C97.8415 36.2107 97.9094 36.0781 97.9094 35.8892V35.8494C97.9094 35.3589 97.7752 34.9777 97.5067 34.706C97.2416 34.4342 96.8389 34.2983 96.2987 34.2983C95.7385 34.2983 95.2994 34.4209 94.9812 34.6662C94.663 34.9115 94.4393 35.1733 94.31 35.4517L93.1964 35.054C93.3952 34.59 93.6604 34.2287 93.9918 33.9702C94.3266 33.7083 94.6912 33.526 95.0856 33.4233C95.4833 33.3172 95.8744 33.2642 96.2589 33.2642C96.5041 33.2642 96.7859 33.294 97.104 33.3537C97.4255 33.41 97.7354 33.5277 98.0337 33.7067C98.3353 33.8857 98.5856 34.1558 98.7844 34.517C98.9833 34.8783 99.0827 35.3622 99.0827 35.9688V41H97.9094V39.9659H97.8498C97.7702 40.1316 97.6377 40.3089 97.4521 40.4979C97.2665 40.6868 97.0195 40.8475 96.7113 40.9801C96.4031 41.1127 96.0269 41.179 95.5827 41.179ZM95.7617 40.125C96.2257 40.125 96.6168 40.0339 96.935 39.8516C97.2565 39.6693 97.4985 39.4339 97.6609 39.1456C97.8266 38.8572 97.9094 38.554 97.9094 38.2358V37.1619C97.8597 37.2216 97.7504 37.2763 97.5813 37.326C97.4156 37.3724 97.2234 37.4138 97.0046 37.4503C96.7892 37.4834 96.5787 37.5133 96.3732 37.5398C96.171 37.563 96.007 37.5829 95.881 37.5994C95.5761 37.6392 95.2911 37.7038 95.0259 37.7933C94.7641 37.8795 94.552 38.0104 94.3896 38.1861C94.2305 38.3584 94.1509 38.5937 94.1509 38.892C94.1509 39.2997 94.3017 39.608 94.6033 39.8168C94.9083 40.0223 95.2944 40.125 95.7617 40.125ZM104.307 44.0227C103.74 44.0227 103.253 43.9498 102.845 43.804C102.437 43.6615 102.098 43.4725 101.826 43.2372C101.557 43.0052 101.344 42.7566 101.184 42.4915L102.119 41.8352C102.225 41.9744 102.359 42.1335 102.522 42.3125C102.684 42.4948 102.906 42.6522 103.188 42.7848C103.473 42.9207 103.846 42.9886 104.307 42.9886C104.923 42.9886 105.432 42.8395 105.833 42.5412C106.234 42.2429 106.434 41.7756 106.434 41.1392V39.5881H106.335C106.249 39.7273 106.126 39.8996 105.967 40.1051C105.811 40.3073 105.586 40.4879 105.291 40.647C104.999 40.8028 104.605 40.8807 104.108 40.8807C103.491 40.8807 102.938 40.7348 102.447 40.4432C101.96 40.1515 101.574 39.7273 101.289 39.1705C101.007 38.6136 100.866 37.9375 100.866 37.142C100.866 36.3598 101.004 35.6787 101.279 35.0987C101.554 34.5154 101.937 34.0646 102.427 33.7464C102.918 33.425 103.485 33.2642 104.128 33.2642C104.625 33.2642 105.019 33.3471 105.311 33.5128C105.606 33.6752 105.831 33.8608 105.987 34.0696C106.146 34.2751 106.269 34.4441 106.355 34.5767H106.474V33.3636H107.608V41.2188C107.608 41.875 107.459 42.4086 107.16 42.8196C106.865 43.2339 106.468 43.5372 105.967 43.7294C105.47 43.925 104.916 44.0227 104.307 44.0227ZM104.267 39.8267C104.738 39.8267 105.135 39.719 105.46 39.5036C105.785 39.2881 106.032 38.9782 106.201 38.5739C106.37 38.1695 106.454 37.6856 106.454 37.1222C106.454 36.572 106.372 36.0864 106.206 35.6655C106.04 35.2446 105.795 34.9148 105.47 34.6761C105.145 34.4375 104.744 34.3182 104.267 34.3182C103.77 34.3182 103.355 34.4441 103.024 34.696C102.696 34.9479 102.449 35.286 102.283 35.7102C102.121 36.1345 102.04 36.6051 102.04 37.1222C102.04 37.6525 102.122 38.1214 102.288 38.5291C102.457 38.9335 102.706 39.2517 103.034 39.4837C103.365 39.7124 103.776 39.8267 104.267 39.8267ZM112.957 41.1591C112.221 41.1591 111.587 40.9967 111.053 40.6719C110.523 40.3438 110.113 39.8864 109.825 39.2997C109.54 38.7098 109.398 38.0237 109.398 37.2415C109.398 36.4593 109.54 35.7699 109.825 35.1733C110.113 34.5734 110.515 34.1061 111.028 33.7713C111.545 33.4332 112.148 33.2642 112.838 33.2642C113.236 33.2642 113.628 33.3305 114.016 33.4631C114.404 33.5956 114.757 33.8111 115.075 34.1094C115.393 34.4044 115.647 34.7955 115.836 35.2827C116.025 35.7699 116.119 36.3698 116.119 37.0824V37.5795H110.233V36.5653H114.926C114.926 36.1345 114.84 35.75 114.667 35.4119C114.498 35.0739 114.256 34.8071 113.942 34.6115C113.63 34.416 113.262 34.3182 112.838 34.3182C112.371 34.3182 111.966 34.4342 111.625 34.6662C111.287 34.8949 111.027 35.1932 110.844 35.5611C110.662 35.929 110.571 36.3234 110.571 36.7443V37.4205C110.571 37.9972 110.67 38.486 110.869 38.8871C111.071 39.2848 111.351 39.5881 111.709 39.7969C112.067 40.0024 112.483 40.1051 112.957 40.1051C113.265 40.1051 113.544 40.062 113.792 39.9759C114.044 39.8864 114.261 39.7538 114.444 39.5781C114.626 39.3991 114.767 39.1771 114.866 38.9119L116 39.2301C115.881 39.6146 115.68 39.9527 115.398 40.2443C115.117 40.5327 114.769 40.758 114.354 40.9205C113.94 41.0795 113.474 41.1591 112.957 41.1591Z" fill="white"/>
<path d="M42.2422 9.62837C42.2298 10.7443 41.3173 11.6401 40.2013 11.6319C39.0853 11.6236 38.1861 10.7145 38.1902 9.59843C38.1943 8.48241 39.1001 7.57983 40.2162 7.57976C40.7612 7.56705 41.2875 7.77956 41.6709 8.16723C42.0543 8.5549 42.261 9.08345 42.2422 9.62837ZM41.837 25.3869H38.6403V13.5005H41.837V25.3869ZM57.0777 17.8003V25.3193H53.881V18.8133C53.881 17.1024 53.0256 16.1794 51.6298 16.1794C50.9301 16.1494 50.2521 16.4255 49.7722 16.9356C49.2924 17.4456 49.0583 18.1393 49.131 18.8358V25.3193H45.8892V13.5005H48.9959V14.8962C49.773 13.7591 51.0875 13.1104 52.4628 13.1853C53.696 13.154 54.8881 13.6302 55.7605 14.5026C56.6328 15.3749 57.109 16.567 57.0777 17.8003ZM69.5045 16.8998C68.356 16.3023 67.1018 15.9352 65.8125 15.8192C64.5968 15.8192 63.989 16.2469 63.989 16.8998C63.989 17.5526 64.8444 17.7553 65.925 17.9128L66.9606 18.0704C69.527 18.4531 70.9452 19.6012 70.9452 21.6048C70.9452 24.0361 68.9416 25.612 65.5198 25.612C63.6745 25.6788 61.8503 25.2012 60.2745 24.2388L61.5352 21.8074C62.7137 22.611 64.1165 23.0208 65.5423 22.9781C67.0281 22.9781 67.7935 22.5503 67.7935 21.8525C67.7935 21.1546 67.2082 20.9745 65.835 20.7719L64.867 20.6368C62.143 20.2766 60.7923 19.061 60.7923 17.0574C60.7923 14.6261 62.6608 13.1853 65.7674 13.1853C67.4848 13.1573 69.1836 13.5434 70.7201 14.3109L69.5045 16.8998ZM82.6065 16.337H78.3292V20.6368C78.3292 22.1226 79.1171 22.6629 80.0852 22.6629C80.8885 22.6037 81.6634 22.3403 82.3364 21.8975L83.507 24.3738C82.3693 25.1988 80.9951 25.6332 79.5899 25.612C76.6633 25.612 75.0875 23.9686 75.0875 20.907V16.4045H72.8363V13.5005H75.0875V9.98856H78.2617V13.5005H82.539L82.6065 16.337ZM97.6221 25.3193H94.5155V24.0136C93.6537 25.0719 92.3448 25.6639 90.981 25.612C89.3856 25.5846 87.8712 24.9047 86.7906 23.7306C85.7101 22.5564 85.158 20.9908 85.263 19.3986C85.158 17.8065 85.7101 16.2408 86.7906 15.0667C87.8712 13.8926 89.3856 13.2126 90.981 13.1853C92.3494 13.1352 93.6606 13.7365 94.5155 14.8062V13.5005H97.6221V25.3193ZM88.5047 19.3986C88.4056 20.551 88.9644 21.6608 89.9491 22.2676C90.9338 22.8743 92.1764 22.8743 93.1611 22.2676C94.1458 21.6608 94.7046 20.551 94.6055 19.3986C94.7046 18.2463 94.1458 17.1364 93.1611 16.5297C92.1764 15.923 90.9338 15.923 89.9491 16.5297C88.9644 17.1364 88.4056 18.2463 88.5047 19.3986ZM112.863 17.8003V25.3193H109.666V18.8133C109.666 17.1024 108.811 16.1794 107.415 16.1794C106.715 16.1494 106.037 16.4255 105.557 16.9356C105.078 17.4456 104.843 18.1393 104.916 18.8358V25.3193H101.697V13.5005H104.781V14.8962C105.568 13.7589 106.889 13.1113 108.27 13.1853C109.5 13.1603 110.686 13.6392 111.553 14.5109C112.421 15.3825 112.894 16.571 112.863 17.8003ZM125.267 16.337H120.99V20.6368C120.99 22.1226 121.778 22.6629 122.768 22.6629C123.572 22.6037 124.346 22.3403 125.019 21.8975L126.19 24.3738C125.052 25.1988 123.678 25.6332 122.273 25.612C119.346 25.612 117.77 23.9686 117.77 20.907V16.4045H115.519V13.5005H117.77V9.98856H120.945V13.5005H125.222L125.267 16.337ZM140.283 25.3193H137.176V24.0136C136.314 25.0719 135.005 25.6639 133.642 25.612C132.046 25.5846 130.532 24.9047 129.451 23.7306C128.371 22.5564 127.819 20.9908 127.923 19.3986C127.819 17.8065 128.371 16.2408 129.451 15.0667C130.532 13.8926 132.046 13.2126 133.642 13.1853C135.01 13.1352 136.321 13.7365 137.176 14.8062V13.5005H140.283V25.3193ZM131.098 19.3986C131.098 21.0771 132.458 22.4378 134.137 22.4378C135.815 22.4378 137.176 21.0771 137.176 19.3986C137.176 17.7202 135.815 16.3595 134.137 16.3595C132.458 16.3595 131.098 17.7202 131.098 19.3986Z" fill="white"/>
<path d="M15.4308 0C23.944 0.0217451 30.8399 6.91763 30.8616 15.4308C30.8616 23.953 23.953 30.8616 15.4308 30.8616C6.90861 30.8616 0 23.953 0 15.4308C0 6.90861 6.90861 0 15.4308 0ZM15.4308 18.7544C17.2664 18.7544 18.7544 17.2664 18.7544 15.4308C18.7544 13.5953 17.2664 12.1073 15.4308 12.1073C13.5953 12.1073 12.1073 13.5953 12.1073 15.4308C12.1073 17.2664 13.5953 18.7544 15.4308 18.7544ZM15.8265 34.8183C17.4435 34.8183 18.7544 36.1291 18.7544 37.7462V40.8323C18.8852 41.9523 18.3613 43.0479 17.4074 43.6491C16.4535 44.2503 15.2391 44.2503 14.2851 43.6491C13.3312 43.0479 12.8073 41.9523 12.9381 40.8323V37.7462C12.938 36.1444 14.2249 34.8399 15.8265 34.8183Z" fill="#008FF4"/>
</svg>
