<svg width="30" height="30" viewBox="0 0 30 30" fill="none" xmlns="http://www.w3.org/2000/svg">
<rect width="30" height="30" rx="4" fill="#6E8290"/>
<g clip-path="url(#clip0_658_16970)">
<g clip-path="url(#clip1_658_16970)">
<path d="M15 6.61098C17.7341 6.61098 18.055 6.62316 19.1357 6.67191C20.135 6.7166 20.6754 6.88316 21.0369 7.02535C21.5163 7.21223 21.8575 7.4316 22.215 7.7891C22.5725 8.1466 22.796 8.48785 22.9788 8.96723C23.1169 9.32879 23.2875 9.8691 23.3322 10.8685C23.381 11.9491 23.3932 12.27 23.3932 15.0041C23.3932 17.7382 23.381 18.0591 23.3322 19.1397C23.2875 20.1391 23.121 20.6794 22.9788 21.041C22.7919 21.5204 22.5725 21.8616 22.215 22.2191C21.8575 22.5766 21.5163 22.8 21.0369 22.9829C20.6754 23.121 20.135 23.2916 19.1357 23.3363C18.055 23.385 17.7341 23.3972 15 23.3972C12.266 23.3972 11.945 23.385 10.8644 23.3363C9.86504 23.2916 9.32473 23.125 8.96316 22.9829C8.48379 22.796 8.14254 22.5766 7.78504 22.2191C7.42754 21.8616 7.2041 21.5204 7.02129 21.041C6.88316 20.6794 6.71254 20.1391 6.66785 19.1397C6.6191 18.0591 6.60691 17.7382 6.60691 15.0041C6.60691 12.27 6.6191 11.9491 6.66785 10.8685C6.71254 9.8691 6.8791 9.32879 7.02129 8.96723C7.20816 8.48785 7.42754 8.1466 7.78504 7.7891C8.14254 7.4316 8.48379 7.20816 8.96316 7.02535C9.32473 6.88723 9.86504 6.7166 10.8644 6.67191C11.945 6.6191 12.266 6.61098 15 6.61098ZM15 4.7666C12.2213 4.7666 11.8719 4.77879 10.7791 4.82754C9.69035 4.87629 8.94691 5.05098 8.29691 5.30285C7.62254 5.56285 7.05379 5.91629 6.48504 6.48504C5.91629 7.05379 5.56691 7.6266 5.30285 8.29691C5.05098 8.94691 4.87629 9.69035 4.82754 10.7832C4.77879 11.8719 4.7666 12.2213 4.7666 15C4.7666 17.7788 4.77879 18.1282 4.82754 19.221C4.87629 20.3097 5.05098 21.0532 5.30285 21.7072C5.56285 22.3816 5.91629 22.9504 6.48504 23.5191C7.05379 24.0879 7.6266 24.4372 8.29691 24.7013C8.94691 24.9532 9.69035 25.1279 10.7832 25.1766C11.876 25.2254 12.2213 25.2375 15.0041 25.2375C17.7869 25.2375 18.1322 25.2254 19.225 25.1766C20.3138 25.1279 21.0572 24.9532 21.7113 24.7013C22.3857 24.4413 22.9544 24.0879 23.5232 23.5191C24.0919 22.9504 24.4413 22.3775 24.7054 21.7072C24.9572 21.0572 25.1319 20.3138 25.1807 19.221C25.2294 18.1282 25.2416 17.7829 25.2416 15C25.2416 12.2172 25.2294 11.8719 25.1807 10.7791C25.1319 9.69035 24.9572 8.94691 24.7054 8.29285C24.4454 7.61848 24.0919 7.04973 23.5232 6.48098C22.9544 5.91223 22.3816 5.56285 21.7113 5.29879C21.0613 5.04691 20.3179 4.87223 19.225 4.82348C18.1282 4.77879 17.7788 4.7666 15 4.7666Z" fill="white"/>
<path d="M15 9.74316C12.0994 9.74316 9.74316 12.0954 9.74316 15C9.74316 17.9047 12.0994 20.2569 15 20.2569C17.9007 20.2569 20.2569 17.9007 20.2569 15C20.2569 12.0994 17.9007 9.74316 15 9.74316ZM15 18.4125C13.115 18.4125 11.5875 16.885 11.5875 15C11.5875 13.115 13.115 11.5875 15 11.5875C16.885 11.5875 18.4125 13.115 18.4125 15C18.4125 16.885 16.885 18.4125 15 18.4125Z" fill="white"/>
<path d="M20.4642 10.7628C21.1418 10.7628 21.6911 10.2135 21.6911 9.53596C21.6911 8.85837 21.1418 8.30908 20.4642 8.30908C19.7866 8.30908 19.2373 8.85837 19.2373 9.53596C19.2373 10.2135 19.7866 10.7628 20.4642 10.7628Z" fill="white"/>
</g>
</g>
<defs>
<clipPath id="clip0_658_16970">
<rect width="20.8" height="20.8" fill="white" transform="translate(4.6001 4.6001)"/>
</clipPath>
<clipPath id="clip1_658_16970">
<rect width="20.8" height="20.8" fill="white" transform="translate(4.6001 4.6001)"/>
</clipPath>
</defs>
</svg>
