<svg width="30" height="30" viewBox="0 0 30 30" fill="none" xmlns="http://www.w3.org/2000/svg">
<rect width="30" height="30" rx="4" fill="#6E8290"/>
<g clip-path="url(#clip0_658_16950)">
<g clip-path="url(#clip1_658_16950)">
<path d="M7.24889 4.6001C8.62353 4.6001 9.7529 5.68503 9.7529 7.05796C9.7524 7.39122 9.68603 7.7211 9.55759 8.02861C9.42915 8.33613 9.24119 8.61522 9.00451 8.84983C8.76783 9.08445 8.4871 9.26996 8.17848 9.39569C7.86985 9.52143 7.53941 9.58491 7.20616 9.58249C5.85544 9.58249 4.77051 8.49756 4.77051 7.10411C4.77051 5.72947 5.87766 4.6001 7.24889 4.6001ZM5.16918 25.4001V11.8036H9.28799V25.4001H5.16918Z" fill="white"/>
<path d="M12.2329 25.4001V11.8036H16.3504V13.5735C16.3504 13.5735 17.6567 11.5361 20.3141 11.5361C23.0156 11.5361 25.2081 13.4851 25.2081 16.0536V25.4001H20.9564V17.4283C20.9564 16.2989 20.6461 15.2362 18.8305 15.2362C17.502 15.2362 16.3949 16.3211 16.3949 17.6291V25.4018L12.2329 25.4001Z" fill="white"/>
</g>
</g>
<defs>
<clipPath id="clip0_658_16950">
<rect width="20.44" height="20.8" fill="white" transform="translate(4.77002 4.6001)"/>
</clipPath>
<clipPath id="clip1_658_16950">
<rect width="20.4389" height="20.8" fill="white" transform="translate(4.77051 4.6001)"/>
</clipPath>
</defs>
</svg>
