<svg width="252" height="180" viewBox="0 0 252 180" fill="none" xmlns="http://www.w3.org/2000/svg">
<g clip-path="url(#clip0_658_19259)">
<g clip-path="url(#clip1_658_19259)">
<path fill-rule="evenodd" clip-rule="evenodd" d="M54.8605 60.7812C56.1859 60.7812 57.4571 60.2547 58.3943 59.3174C59.3316 58.3802 59.8581 57.109 59.8581 55.7836C59.8581 54.4581 59.3316 53.1869 58.3943 52.2497C57.4571 51.3124 56.1859 50.7859 54.8605 50.7859C53.535 50.7859 52.2638 51.3124 51.3266 52.2497C50.3893 53.1869 49.8628 54.4581 49.8628 55.7836C49.8628 57.109 50.3893 58.3802 51.3266 59.3174C52.2638 60.2547 53.535 60.7812 54.8605 60.7812ZM105.257 60.7812H168.953C170.278 60.7812 171.55 60.2547 172.487 59.3174C173.424 58.3802 173.951 57.109 173.951 55.7836C173.951 54.4581 173.424 53.1869 172.487 52.2497C171.55 51.3124 170.278 50.7859 168.953 50.7859H196.251C197.577 50.7859 198.848 50.2593 199.785 49.3221C200.722 48.3849 201.249 47.1137 201.249 45.7882C201.249 44.4627 200.722 43.1916 199.785 42.2543C198.848 41.3171 197.577 40.7905 196.251 40.7905H168.253C166.927 40.7905 165.656 40.264 164.719 39.3268C163.782 38.3895 163.255 37.1183 163.255 35.7929C163.255 34.4674 163.782 33.1962 164.719 32.259C165.656 31.3217 166.927 30.7952 168.253 30.7952H185.752C187.077 30.7952 188.348 30.2687 189.286 29.3314C190.223 28.3942 190.749 27.123 190.749 25.7975C190.749 24.4721 190.223 23.2009 189.286 22.2636C188.348 21.3264 187.077 20.7999 185.752 20.7999H157.754C158.404 20.7944 159.046 20.6607 159.645 20.4063C160.243 20.152 160.786 19.7822 161.241 19.3179C161.696 18.8536 162.055 18.3041 162.297 17.7008C162.54 17.0975 162.661 16.4523 162.653 15.8022C162.66 15.1527 162.538 14.5082 162.295 13.9057C162.052 13.3032 161.693 12.7545 161.238 12.291C160.783 11.8275 160.241 11.4582 159.643 11.2044C159.045 10.9505 158.403 10.817 157.754 10.8115H117.856C117.207 10.817 116.565 10.9505 115.967 11.2044C115.369 11.4582 114.827 11.8275 114.372 12.291C113.917 12.7545 113.557 13.3032 113.315 13.9057C113.072 14.5082 112.95 15.1527 112.957 15.8022C112.949 16.4523 113.07 17.0975 113.313 17.7008C113.555 18.3041 113.914 18.8536 114.369 19.3179C114.824 19.7822 115.367 20.152 115.965 20.4063C116.563 20.6607 117.206 20.7944 117.856 20.7999H73.0593C71.7338 20.7999 70.4626 21.3264 69.5254 22.2636C68.5881 23.2009 68.0616 24.4721 68.0616 25.7975C68.0616 27.123 68.5881 28.3942 69.5254 29.3314C70.4626 30.2687 71.7338 30.7952 73.0593 30.7952H57.6603C56.3348 30.7952 55.0636 31.3217 54.1264 32.259C53.1891 33.1962 52.6626 34.4674 52.6626 35.7929C52.6626 37.1183 53.1891 38.3895 54.1264 39.3268C55.0636 40.264 56.3348 40.7905 57.6603 40.7905H70.9594C72.2849 40.7905 73.556 41.3171 74.4933 42.2543C75.4305 43.1916 75.9571 44.4627 75.9571 45.7882C75.9571 47.1137 75.4305 48.3849 74.4933 49.3221C73.556 50.2593 72.2849 50.7859 70.9594 50.7859H66.7597C65.4342 50.7859 64.163 51.3124 63.2258 52.2497C62.2885 53.1869 61.762 54.4581 61.762 55.7836C61.762 57.109 62.2885 58.3802 63.2258 59.3174C64.163 60.2547 65.4342 60.7812 66.7597 60.7812H103.157C103.511 60.7763 103.863 60.7317 104.207 60.6482C104.551 60.7317 104.903 60.7763 105.257 60.7812Z" fill="#E7DFFF"/>
<path d="M73.0034 7.29785L117.597 56.6306V94.6171L125.535 100.56V56.7916L169.618 7.29785" fill="white"/>
<path d="M73.0034 7.29785L117.597 56.6306V94.6171L125.535 100.56V56.7916L169.618 7.29785" stroke="#008FF4" stroke-width="2.09986" stroke-miterlimit="10" stroke-linecap="round"/>
<path d="M110.388 36.1502C110.288 36.1681 110.186 36.1642 110.088 36.1388C109.991 36.1134 109.899 36.0672 109.821 36.0032C109.677 35.8877 109.584 35.7199 109.563 35.5363C109.542 35.3527 109.595 35.1683 109.709 35.0232C109.856 34.8413 113.356 30.5785 121.65 28.9686C126.042 28.0782 130.597 28.4769 134.767 30.1166C134.936 30.1936 135.068 30.3346 135.133 30.5085C135.198 30.6825 135.191 30.8751 135.114 31.044C135.037 31.2129 134.896 31.3443 134.722 31.4093C134.548 31.4743 134.355 31.4675 134.186 31.3905C130.277 29.8901 126.023 29.5261 121.916 30.3406C114.119 31.8525 110.857 35.8492 110.801 35.8912C110.699 36.0242 110.552 36.1161 110.388 36.1502Z" fill="#008FF4"/>
<path d="M113.874 6.75195L105.089 10.3007" stroke="#008FF4" stroke-width="1.39991" stroke-miterlimit="10" stroke-linecap="round"/>
<path opacity="0.7" d="M110.43 76.3623V78.3782C110.43 78.6102 110.337 78.8328 110.173 78.9969C110.009 79.161 109.787 79.2531 109.555 79.2531C109.323 79.2531 109.1 79.161 108.936 78.9969C108.772 78.8328 108.68 78.6102 108.68 78.3782V76.3623C108.68 76.1303 108.772 75.9077 108.936 75.7437C109.1 75.5796 109.323 75.4874 109.555 75.4874C109.787 75.4874 110.009 75.5796 110.173 75.7437C110.337 75.9077 110.43 76.1303 110.43 76.3623ZM110.43 56.6586V72.3516C110.43 72.5836 110.337 72.8062 110.173 72.9703C110.009 73.1344 109.787 73.2265 109.555 73.2265C109.323 73.2265 109.1 73.1344 108.936 72.9703C108.772 72.8062 108.68 72.5836 108.68 72.3516V56.6586C108.68 56.4266 108.772 56.204 108.936 56.04C109.1 55.8759 109.323 55.7837 109.555 55.7837C109.787 55.7837 110.009 55.8759 110.173 56.04C110.337 56.204 110.43 56.4266 110.43 56.6586ZM136.055 77.8112V92.8462C136.055 93.0783 135.963 93.3008 135.799 93.4649C135.635 93.629 135.412 93.7212 135.18 93.7212C134.948 93.7212 134.725 93.629 134.561 93.4649C134.397 93.3008 134.305 93.0783 134.305 92.8462V77.8112C134.305 77.5792 134.397 77.3566 134.561 77.1926C134.725 77.0285 134.948 76.9363 135.18 76.9363C135.412 76.9363 135.635 77.0285 135.799 77.1926C135.963 77.3566 136.055 77.5792 136.055 77.8112ZM136.055 97.046V101.855C136.055 102.087 135.963 102.309 135.799 102.473C135.635 102.637 135.412 102.73 135.18 102.73C134.948 102.73 134.725 102.637 134.561 102.473C134.397 102.309 134.305 102.087 134.305 101.855V97.046C134.305 96.8139 134.397 96.5914 134.561 96.4273C134.725 96.2632 134.948 96.171 135.18 96.171C135.412 96.171 135.635 96.2632 135.799 96.4273C135.963 96.5914 136.055 96.8139 136.055 97.046Z" fill="#008FF4"/>
<path d="M130.288 6.75195L139.072 10.3007" stroke="#008FF4" stroke-width="1.39991" stroke-miterlimit="10" stroke-linecap="round"/>
</g>
</g>
<path d="M113.685 124.565C112.457 124.565 111.503 124.255 110.822 123.637C110.141 123.019 109.782 122.101 109.747 120.882C109.738 120.622 109.733 120.241 109.733 119.74C109.733 119.229 109.738 118.844 109.747 118.584C109.782 117.392 110.15 116.478 110.849 115.842C111.548 115.206 112.493 114.888 113.685 114.888C114.867 114.888 115.808 115.206 116.507 115.842C117.215 116.478 117.587 117.392 117.622 118.584C117.64 119.103 117.649 119.489 117.649 119.74C117.649 119.982 117.64 120.362 117.622 120.882C117.587 122.101 117.224 123.019 116.534 123.637C115.853 124.255 114.903 124.565 113.685 124.565ZM113.685 123.006C114.285 123.006 114.76 122.826 115.109 122.468C115.459 122.11 115.647 121.558 115.674 120.815C115.692 120.277 115.701 119.914 115.701 119.726C115.701 119.52 115.692 119.157 115.674 118.638C115.647 117.903 115.454 117.356 115.096 116.998C114.737 116.63 114.267 116.447 113.685 116.447C113.093 116.447 112.618 116.63 112.26 116.998C111.902 117.356 111.713 117.903 111.695 118.638C111.686 118.897 111.682 119.26 111.682 119.726C111.682 120.183 111.686 120.546 111.695 120.815C111.713 121.55 111.897 122.101 112.246 122.468C112.605 122.826 113.084 123.006 113.685 123.006ZM119.723 124.43C119.634 124.43 119.558 124.399 119.495 124.336C119.432 124.273 119.401 124.197 119.401 124.108V115.358C119.401 115.26 119.428 115.179 119.481 115.116C119.544 115.054 119.625 115.022 119.723 115.022H120.812C120.982 115.022 121.117 115.107 121.215 115.278L123.809 120.089L126.403 115.278C126.502 115.107 126.636 115.022 126.806 115.022H127.881C127.98 115.022 128.061 115.054 128.123 115.116C128.186 115.179 128.217 115.26 128.217 115.358V124.108C128.217 124.206 128.186 124.287 128.123 124.35C128.061 124.403 127.98 124.43 127.881 124.43H126.726C126.636 124.43 126.56 124.399 126.497 124.336C126.434 124.273 126.403 124.197 126.403 124.108V118.328L124.535 121.877C124.436 122.074 124.288 122.172 124.091 122.172H123.527C123.339 122.172 123.186 122.074 123.07 121.877L121.202 118.328V124.108C121.202 124.197 121.17 124.273 121.108 124.336C121.054 124.399 120.978 124.43 120.879 124.43H119.723ZM133.977 124.565C132.74 124.565 131.777 124.246 131.087 123.61C130.406 122.974 130.043 122.087 129.998 120.949C129.99 120.689 129.985 120.273 129.985 119.699C129.985 119.126 129.99 118.709 129.998 118.449C130.034 117.338 130.402 116.469 131.101 115.842C131.799 115.206 132.758 114.888 133.977 114.888C134.801 114.888 135.509 115.031 136.1 115.318C136.701 115.596 137.153 115.945 137.458 116.366C137.762 116.778 137.924 117.186 137.942 117.589C137.942 117.67 137.915 117.737 137.861 117.791C137.807 117.845 137.735 117.871 137.646 117.871H136.235C136.145 117.871 136.078 117.854 136.033 117.818C135.988 117.782 135.948 117.724 135.912 117.643C135.787 117.311 135.567 117.029 135.254 116.796C134.94 116.563 134.514 116.447 133.977 116.447C133.35 116.447 132.857 116.617 132.498 116.958C132.149 117.289 131.965 117.809 131.947 118.517C131.938 118.776 131.934 119.171 131.934 119.699C131.934 120.219 131.938 120.613 131.947 120.882C131.965 121.608 132.153 122.145 132.512 122.495C132.87 122.835 133.363 123.006 133.99 123.006C134.626 123.006 135.137 122.835 135.522 122.495C135.908 122.154 136.1 121.644 136.1 120.963V120.546H134.461C134.371 120.546 134.295 120.515 134.232 120.452C134.169 120.389 134.138 120.313 134.138 120.223V119.484C134.138 119.395 134.169 119.318 134.232 119.256C134.295 119.193 134.371 119.162 134.461 119.162H137.686C137.785 119.162 137.865 119.193 137.928 119.256C137.991 119.318 138.022 119.395 138.022 119.484V120.909C138.022 121.653 137.856 122.302 137.525 122.858C137.193 123.404 136.723 123.825 136.114 124.121C135.504 124.417 134.792 124.565 133.977 124.565ZM139.933 121.809C139.843 121.809 139.767 121.778 139.704 121.715C139.642 121.653 139.61 121.576 139.61 121.487V115.345C139.61 115.246 139.642 115.17 139.704 115.116C139.767 115.054 139.843 115.022 139.933 115.022H141.048C141.138 115.022 141.214 115.054 141.277 115.116C141.34 115.179 141.371 115.255 141.371 115.345V121.487C141.371 121.576 141.34 121.653 141.277 121.715C141.214 121.778 141.138 121.809 141.048 121.809H139.933ZM139.852 124.43C139.763 124.43 139.687 124.399 139.624 124.336C139.561 124.273 139.53 124.197 139.53 124.108V122.831C139.53 122.732 139.561 122.656 139.624 122.602C139.687 122.54 139.763 122.508 139.852 122.508H141.116C141.214 122.508 141.295 122.54 141.358 122.602C141.42 122.665 141.452 122.741 141.452 122.831V124.108C141.452 124.197 141.42 124.273 141.358 124.336C141.295 124.399 141.214 124.43 141.116 124.43H139.852Z" fill="#888888"/>
<path d="M28.5212 153.67C28.4428 153.67 28.3801 153.646 28.333 153.599C28.286 153.544 28.2625 153.478 28.2625 153.399V145.72C28.2625 145.634 28.286 145.567 28.333 145.52C28.3801 145.465 28.4428 145.438 28.5212 145.438H29.0386C29.117 145.438 29.1758 145.454 29.215 145.485C29.2542 145.516 29.2934 145.556 29.3326 145.603L33.2722 151.671V145.72C33.2722 145.634 33.2958 145.567 33.3428 145.52C33.3977 145.465 33.4643 145.438 33.5427 145.438H34.0719C34.1582 145.438 34.2248 145.465 34.2718 145.52C34.3267 145.567 34.3542 145.634 34.3542 145.72V153.388C34.3542 153.466 34.3267 153.533 34.2718 153.588C34.2248 153.642 34.1621 153.67 34.0837 153.67H33.5545C33.4212 153.67 33.3271 153.615 33.2722 153.505L29.3326 147.496V153.399C29.3326 153.478 29.3052 153.544 29.2503 153.599C29.2033 153.646 29.1406 153.67 29.0622 153.67H28.5212ZM38.7449 153.788C37.8825 153.788 37.2161 153.544 36.7457 153.058C36.2831 152.572 36.0361 151.926 36.0048 151.118L35.993 150.612L36.0048 150.107C36.0361 149.299 36.287 148.652 36.7574 148.166C37.2357 147.68 37.8981 147.437 38.7449 147.437C39.5916 147.437 40.2501 147.68 40.7205 148.166C41.1988 148.652 41.4536 149.299 41.4849 150.107C41.5006 150.279 41.5085 150.448 41.5085 150.612C41.5085 150.777 41.5006 150.946 41.4849 151.118C41.4536 151.926 41.2027 152.572 40.7323 153.058C40.2697 153.544 39.6073 153.788 38.7449 153.788ZM38.7449 152.906C39.2466 152.906 39.6425 152.749 39.9326 152.435C40.2305 152.114 40.3913 151.655 40.4148 151.059C40.4226 150.981 40.4265 150.832 40.4265 150.612C40.4265 150.393 40.4226 150.244 40.4148 150.165C40.3913 149.57 40.2305 149.115 39.9326 148.801C39.6425 148.48 39.2466 148.319 38.7449 148.319C38.2431 148.319 37.8433 148.48 37.5453 148.801C37.2553 149.115 37.0985 149.57 37.0749 150.165L37.0632 150.612L37.0749 151.059C37.0985 151.655 37.2553 152.114 37.5453 152.435C37.8433 152.749 38.2431 152.906 38.7449 152.906ZM48.3335 153.788C47.4946 153.788 46.84 153.552 46.3696 153.082C45.8992 152.604 45.6522 151.937 45.6287 151.083L45.6169 150.612L45.6287 150.142C45.6522 149.287 45.8992 148.625 46.3696 148.154C46.84 147.676 47.4946 147.437 48.3335 147.437C48.898 147.437 49.3723 147.539 49.7564 147.743C50.1484 147.939 50.4385 148.186 50.6267 148.484C50.8227 148.782 50.9285 149.08 50.9442 149.378C50.952 149.448 50.9246 149.511 50.8619 149.566C50.807 149.621 50.7443 149.648 50.6737 149.648H50.1563C50.0779 149.648 50.0191 149.632 49.9799 149.601C49.9407 149.562 49.9015 149.495 49.8623 149.401C49.7212 149.017 49.5252 148.746 49.2743 148.59C49.0312 148.425 48.7216 148.343 48.3452 148.343C47.8513 148.343 47.4593 148.496 47.1692 148.801C46.8792 149.107 46.7224 149.574 46.6988 150.201L46.6871 150.612L46.6988 151.024C46.7224 151.651 46.8792 152.118 47.1692 152.423C47.4593 152.729 47.8513 152.882 48.3452 152.882C48.7294 152.882 49.043 152.804 49.286 152.647C49.5291 152.482 49.7212 152.208 49.8623 151.824C49.9015 151.73 49.9407 151.667 49.9799 151.635C50.0191 151.596 50.0779 151.577 50.1563 151.577H50.6737C50.7443 151.577 50.807 151.604 50.8619 151.659C50.9246 151.714 50.952 151.777 50.9442 151.847C50.9285 152.137 50.8227 152.431 50.6267 152.729C50.4385 153.027 50.1484 153.278 49.7564 153.482C49.3723 153.686 48.898 153.788 48.3335 153.788ZM54.8345 153.788C53.9721 153.788 53.3057 153.544 52.8353 153.058C52.3727 152.572 52.1257 151.926 52.0944 151.118L52.0826 150.612L52.0944 150.107C52.1257 149.299 52.3766 148.652 52.847 148.166C53.3253 147.68 53.9877 147.437 54.8345 147.437C55.6812 147.437 56.3397 147.68 56.8101 148.166C57.2884 148.652 57.5432 149.299 57.5745 150.107C57.5902 150.279 57.5981 150.448 57.5981 150.612C57.5981 150.777 57.5902 150.946 57.5745 151.118C57.5432 151.926 57.2923 152.572 56.8219 153.058C56.3593 153.544 55.6969 153.788 54.8345 153.788ZM54.8345 152.906C55.3362 152.906 55.7321 152.749 56.0222 152.435C56.3201 152.114 56.4809 151.655 56.5044 151.059C56.5122 150.981 56.5161 150.832 56.5161 150.612C56.5161 150.393 56.5122 150.244 56.5044 150.165C56.4809 149.57 56.3201 149.115 56.0222 148.801C55.7321 148.48 55.3362 148.319 54.8345 148.319C54.3327 148.319 53.9329 148.48 53.6349 148.801C53.3449 149.115 53.1881 149.57 53.1645 150.165L53.1528 150.612L53.1645 151.059C53.1881 151.655 53.3449 152.114 53.6349 152.435C53.9329 152.749 54.3327 152.906 54.8345 152.906ZM59.3534 153.67C59.275 153.67 59.2084 153.646 59.1535 153.599C59.1065 153.544 59.083 153.478 59.083 153.399V147.825C59.083 147.747 59.1065 147.684 59.1535 147.637C59.2084 147.582 59.275 147.555 59.3534 147.555H59.8474C59.9258 147.555 59.9885 147.582 60.0355 147.637C60.0826 147.684 60.1061 147.747 60.1061 147.825V148.225C60.5294 147.7 61.1018 147.437 61.823 147.437C62.6854 147.437 63.297 147.798 63.6576 148.519C63.8458 148.19 64.1123 147.927 64.4573 147.731C64.8101 147.535 65.2021 147.437 65.6333 147.437C66.2762 147.437 66.8014 147.657 67.2091 148.096C67.6168 148.535 67.8206 149.17 67.8206 150.001V153.399C67.8206 153.478 67.7932 153.544 67.7383 153.599C67.6913 153.646 67.6286 153.67 67.5502 153.67H67.0445C66.9661 153.67 66.8994 153.646 66.8446 153.599C66.7975 153.544 66.774 153.478 66.774 153.399V150.107C66.774 149.479 66.6446 149.033 66.3859 148.766C66.1272 148.492 65.7862 148.354 65.3628 148.354C64.9865 148.354 64.6611 148.496 64.3867 148.778C64.1202 149.052 63.9869 149.495 63.9869 150.107V153.399C63.9869 153.478 63.9594 153.544 63.9046 153.599C63.8575 153.646 63.7948 153.67 63.7164 153.67H63.199C63.1206 153.67 63.0539 153.646 62.999 153.599C62.952 153.544 62.9285 153.478 62.9285 153.399V150.107C62.9285 149.487 62.7913 149.04 62.5169 148.766C62.2503 148.492 61.9171 148.354 61.5173 148.354C61.141 148.354 60.8156 148.492 60.5412 148.766C60.2746 149.04 60.1414 149.483 60.1414 150.095V153.399C60.1414 153.478 60.1139 153.544 60.059 153.599C60.012 153.646 59.9493 153.67 59.8709 153.67H59.3534ZM69.8045 155.904C69.7261 155.904 69.6595 155.881 69.6046 155.834C69.5575 155.787 69.534 155.72 69.534 155.634V147.825C69.534 147.739 69.5575 147.672 69.6046 147.625C69.6595 147.578 69.7261 147.555 69.8045 147.555H70.2984C70.3847 147.555 70.4513 147.578 70.4983 147.625C70.5454 147.672 70.5689 147.739 70.5689 147.825V148.343C71.0236 147.739 71.6704 147.437 72.5093 147.437C73.3325 147.437 73.9479 147.7 74.3556 148.225C74.7711 148.742 74.9907 149.405 75.0142 150.212C75.022 150.299 75.0259 150.432 75.0259 150.612C75.0259 150.793 75.022 150.926 75.0142 151.012C74.9907 151.812 74.7711 152.474 74.3556 153C73.9479 153.525 73.3325 153.788 72.5093 153.788C71.6704 153.788 71.0354 153.49 70.6042 152.894V155.634C70.6042 155.712 70.5767 155.775 70.5219 155.822C70.4748 155.877 70.4121 155.904 70.3337 155.904H69.8045ZM72.2859 152.87C72.8503 152.87 73.2619 152.694 73.5207 152.341C73.7794 151.988 73.9205 151.526 73.944 150.953C73.9519 150.875 73.9558 150.761 73.9558 150.612C73.9558 149.107 73.3991 148.354 72.2859 148.354C71.7371 148.354 71.3215 148.539 71.0393 148.907C70.7649 149.268 70.6199 149.695 70.6042 150.189C70.5963 150.275 70.5924 150.428 70.5924 150.648C70.5924 150.867 70.5963 151.02 70.6042 151.106C70.6199 151.584 70.7688 152 71.0511 152.353C71.3411 152.698 71.7527 152.87 72.2859 152.87ZM78.9861 153.788C78.1237 153.788 77.4573 153.544 76.9869 153.058C76.5243 152.572 76.2774 151.926 76.246 151.118L76.2343 150.612L76.246 150.107C76.2774 149.299 76.5283 148.652 76.9987 148.166C77.4769 147.68 78.1394 147.437 78.9861 147.437C79.8328 147.437 80.4914 147.68 80.9618 148.166C81.44 148.652 81.6948 149.299 81.7262 150.107C81.7419 150.279 81.7497 150.448 81.7497 150.612C81.7497 150.777 81.7419 150.946 81.7262 151.118C81.6948 151.926 81.4439 152.572 80.9735 153.058C80.511 153.544 79.8485 153.788 78.9861 153.788ZM78.9861 152.906C79.4879 152.906 79.8838 152.749 80.1739 152.435C80.4718 152.114 80.6325 151.655 80.656 151.059C80.6639 150.981 80.6678 150.832 80.6678 150.612C80.6678 150.393 80.6639 150.244 80.656 150.165C80.6325 149.57 80.4718 149.115 80.1739 148.801C79.8838 148.48 79.4879 148.319 78.9861 148.319C78.4843 148.319 78.0845 148.48 77.7866 148.801C77.4965 149.115 77.3397 149.57 77.3162 150.165L77.3044 150.612L77.3162 151.059C77.3397 151.655 77.4965 152.114 77.7866 152.435C78.0845 152.749 78.4843 152.906 78.9861 152.906ZM83.5051 153.67C83.4267 153.67 83.36 153.646 83.3052 153.599C83.2581 153.544 83.2346 153.478 83.2346 153.399V147.825C83.2346 147.747 83.2581 147.684 83.3052 147.637C83.36 147.582 83.4267 147.555 83.5051 147.555H84.0108C84.097 147.555 84.1636 147.578 84.2107 147.625C84.2577 147.672 84.2812 147.739 84.2812 147.825V148.343C84.5164 148.053 84.7869 147.829 85.0927 147.672C85.4063 147.516 85.7944 147.437 86.2569 147.437C87.0096 147.437 87.5936 147.68 88.0092 148.166C88.4247 148.644 88.6324 149.28 88.6324 150.071V153.399C88.6324 153.478 88.605 153.544 88.5501 153.599C88.5031 153.646 88.4404 153.67 88.362 153.67H87.821C87.7426 153.67 87.676 153.646 87.6211 153.599C87.574 153.544 87.5505 153.478 87.5505 153.399V150.142C87.5505 149.577 87.4133 149.138 87.1389 148.825C86.8645 148.511 86.4725 148.354 85.9629 148.354C85.4612 148.354 85.0613 148.515 84.7634 148.837C84.4655 149.15 84.3165 149.585 84.3165 150.142V153.399C84.3165 153.478 84.2891 153.544 84.2342 153.599C84.1872 153.646 84.1244 153.67 84.046 153.67H83.5051ZM92.7545 153.788C91.9548 153.788 91.3159 153.541 90.8376 153.047C90.3594 152.545 90.0967 151.863 90.0497 151L90.0379 150.601L90.0497 150.212C90.0967 149.366 90.3594 148.692 90.8376 148.19C91.3159 147.688 91.9548 147.437 92.7545 147.437C93.6169 147.437 94.2833 147.712 94.7537 148.26C95.2319 148.809 95.4711 149.554 95.4711 150.495V150.706C95.4711 150.785 95.4436 150.851 95.3887 150.906C95.3417 150.953 95.279 150.977 95.2006 150.977H91.1199V151.083C91.1434 151.592 91.3002 152.027 91.5903 152.388C91.8803 152.749 92.2645 152.929 92.7427 152.929C93.1112 152.929 93.4091 152.858 93.6365 152.717C93.8717 152.568 94.0481 152.416 94.1657 152.259C94.2363 152.165 94.2911 152.11 94.3303 152.094C94.3695 152.071 94.4362 152.059 94.5303 152.059H95.0477C95.1183 152.059 95.1771 152.078 95.2241 152.118C95.279 152.157 95.3064 152.208 95.3064 152.27C95.3064 152.443 95.2006 152.651 94.9889 152.894C94.7772 153.137 94.4754 153.348 94.0834 153.529C93.6992 153.701 93.2563 153.788 92.7545 153.788ZM94.4009 150.177V150.142C94.4009 149.593 94.2519 149.146 93.954 148.801C93.6561 148.456 93.2563 148.284 92.7545 148.284C92.2449 148.284 91.8451 148.456 91.555 148.801C91.2649 149.146 91.1199 149.593 91.1199 150.142V150.177H94.4009ZM97.1715 153.67C97.0931 153.67 97.0264 153.646 96.9716 153.599C96.9245 153.544 96.901 153.478 96.901 153.399V147.825C96.901 147.747 96.9245 147.684 96.9716 147.637C97.0264 147.582 97.0931 147.555 97.1715 147.555H97.6772C97.7634 147.555 97.83 147.578 97.8771 147.625C97.9241 147.672 97.9476 147.739 97.9476 147.825V148.343C98.1828 148.053 98.4533 147.829 98.7591 147.672C99.0727 147.516 99.4608 147.437 99.9233 147.437C100.676 147.437 101.26 147.68 101.676 148.166C102.091 148.644 102.299 149.28 102.299 150.071V153.399C102.299 153.478 102.271 153.544 102.217 153.599C102.169 153.646 102.107 153.67 102.028 153.67H101.487C101.409 153.67 101.342 153.646 101.287 153.599C101.24 153.544 101.217 153.478 101.217 153.399V150.142C101.217 149.577 101.08 149.138 100.805 148.825C100.531 148.511 100.139 148.354 99.6293 148.354C99.1276 148.354 98.7277 148.515 98.4298 148.837C98.1319 149.15 97.9829 149.585 97.9829 150.142V153.399C97.9829 153.478 97.9555 153.544 97.9006 153.599C97.8536 153.646 97.7908 153.67 97.7124 153.67H97.1715ZM106.27 153.67C105.055 153.67 104.447 152.984 104.447 151.612V148.46H103.518C103.44 148.46 103.377 148.437 103.33 148.39C103.283 148.343 103.259 148.28 103.259 148.202V147.825C103.259 147.747 103.283 147.684 103.33 147.637C103.377 147.582 103.44 147.555 103.518 147.555H104.447V145.591C104.447 145.512 104.471 145.45 104.518 145.403C104.565 145.348 104.627 145.32 104.706 145.32H105.223C105.302 145.32 105.364 145.348 105.411 145.403C105.466 145.45 105.494 145.512 105.494 145.591V147.555H106.952C107.03 147.555 107.093 147.582 107.14 147.637C107.195 147.684 107.223 147.747 107.223 147.825V148.202C107.223 148.28 107.195 148.343 107.14 148.39C107.093 148.437 107.03 148.46 106.952 148.46H105.494V151.53C105.494 151.929 105.557 152.231 105.682 152.435C105.815 152.639 106.039 152.741 106.352 152.741H107.07C107.148 152.741 107.211 152.768 107.258 152.823C107.305 152.87 107.328 152.933 107.328 153.011V153.399C107.328 153.478 107.305 153.544 107.258 153.599C107.211 153.646 107.148 153.67 107.07 153.67H106.27ZM113.853 156.257C113.202 156.257 112.681 156.147 112.289 155.928C111.897 155.708 111.618 155.457 111.454 155.175C111.297 154.893 111.218 154.65 111.218 154.446C111.218 154.376 111.246 154.313 111.301 154.258C111.356 154.211 111.418 154.187 111.489 154.187H112.006C112.077 154.187 112.136 154.203 112.183 154.234C112.23 154.274 112.269 154.34 112.3 154.434C112.52 155.062 113.018 155.375 113.794 155.375C114.382 155.375 114.817 155.25 115.099 154.999C115.381 154.748 115.523 154.305 115.523 153.67V152.858C115.068 153.439 114.433 153.729 113.617 153.729C112.786 153.729 112.163 153.462 111.748 152.929C111.34 152.396 111.124 151.722 111.101 150.906L111.089 150.577L111.101 150.26C111.124 149.452 111.34 148.782 111.748 148.249C112.163 147.708 112.786 147.437 113.617 147.437C114.441 147.437 115.084 147.739 115.546 148.343V147.837C115.546 147.759 115.57 147.692 115.617 147.637C115.672 147.582 115.738 147.555 115.817 147.555H116.322C116.401 147.555 116.463 147.582 116.51 147.637C116.565 147.692 116.593 147.759 116.593 147.837V153.541C116.593 155.352 115.679 156.257 113.853 156.257ZM113.829 152.811C114.378 152.811 114.79 152.635 115.064 152.282C115.346 151.922 115.499 151.49 115.523 150.989C115.53 150.918 115.534 150.781 115.534 150.577C115.534 150.381 115.53 150.248 115.523 150.177C115.499 149.675 115.346 149.248 115.064 148.895C114.79 148.535 114.378 148.354 113.829 148.354C113.265 148.354 112.853 148.535 112.594 148.895C112.343 149.248 112.206 149.707 112.183 150.271L112.171 150.577L112.183 150.895C112.206 151.459 112.343 151.922 112.594 152.282C112.853 152.635 113.265 152.811 113.829 152.811ZM118.636 153.67C118.557 153.67 118.491 153.646 118.436 153.599C118.389 153.544 118.365 153.478 118.365 153.399V147.837C118.365 147.759 118.389 147.692 118.436 147.637C118.491 147.582 118.557 147.555 118.636 147.555H119.13C119.216 147.555 119.283 147.582 119.33 147.637C119.384 147.684 119.412 147.751 119.412 147.837V148.354C119.733 147.821 120.278 147.555 121.047 147.555H121.505C121.591 147.555 121.658 147.578 121.705 147.625C121.752 147.672 121.776 147.739 121.776 147.825V148.26C121.776 148.339 121.752 148.405 121.705 148.46C121.658 148.507 121.591 148.531 121.505 148.531H120.835C120.404 148.531 120.063 148.656 119.812 148.907C119.569 149.158 119.447 149.499 119.447 149.93V153.399C119.447 153.478 119.42 153.544 119.365 153.599C119.31 153.646 119.243 153.67 119.165 153.67H118.636ZM125.153 153.788C124.291 153.788 123.625 153.544 123.154 153.058C122.692 152.572 122.445 151.926 122.413 151.118L122.401 150.612L122.413 150.107C122.445 149.299 122.695 148.652 123.166 148.166C123.644 147.68 124.307 147.437 125.153 147.437C126 147.437 126.659 147.68 127.129 148.166C127.607 148.652 127.862 149.299 127.893 150.107C127.909 150.279 127.917 150.448 127.917 150.612C127.917 150.777 127.909 150.946 127.893 151.118C127.862 151.926 127.611 152.572 127.141 153.058C126.678 153.544 126.016 153.788 125.153 153.788ZM125.153 152.906C125.655 152.906 126.051 152.749 126.341 152.435C126.639 152.114 126.8 151.655 126.823 151.059C126.831 150.981 126.835 150.832 126.835 150.612C126.835 150.393 126.831 150.244 126.823 150.165C126.8 149.57 126.639 149.115 126.341 148.801C126.051 148.48 125.655 148.319 125.153 148.319C124.652 148.319 124.252 148.48 123.954 148.801C123.664 149.115 123.507 149.57 123.483 150.165L123.472 150.612L123.483 151.059C123.507 151.655 123.664 152.114 123.954 152.435C124.252 152.749 124.652 152.906 125.153 152.906ZM131.683 153.788C130.938 153.788 130.362 153.548 129.955 153.07C129.547 152.584 129.343 151.941 129.343 151.142V147.825C129.343 147.747 129.367 147.684 129.414 147.637C129.468 147.582 129.535 147.555 129.613 147.555H130.154C130.233 147.555 130.296 147.582 130.343 147.637C130.397 147.684 130.425 147.747 130.425 147.825V151.083C130.425 152.274 130.942 152.87 131.977 152.87C132.479 152.87 132.875 152.713 133.165 152.4C133.463 152.078 133.612 151.639 133.612 151.083V147.825C133.612 147.747 133.635 147.684 133.682 147.637C133.737 147.582 133.804 147.555 133.882 147.555H134.423C134.502 147.555 134.564 147.582 134.611 147.637C134.666 147.684 134.694 147.747 134.694 147.825V153.399C134.694 153.478 134.666 153.544 134.611 153.599C134.564 153.646 134.502 153.67 134.423 153.67H133.918C133.839 153.67 133.773 153.646 133.718 153.599C133.671 153.544 133.647 153.478 133.647 153.399V152.87C133.42 153.176 133.153 153.407 132.847 153.564C132.542 153.713 132.154 153.788 131.683 153.788ZM136.735 155.904C136.657 155.904 136.59 155.881 136.536 155.834C136.488 155.787 136.465 155.72 136.465 155.634V147.825C136.465 147.739 136.488 147.672 136.536 147.625C136.59 147.578 136.657 147.555 136.735 147.555H137.229C137.316 147.555 137.382 147.578 137.429 147.625C137.476 147.672 137.5 147.739 137.5 147.825V148.343C137.955 147.739 138.601 147.437 139.44 147.437C140.263 147.437 140.879 147.7 141.287 148.225C141.702 148.742 141.922 149.405 141.945 150.212C141.953 150.299 141.957 150.432 141.957 150.612C141.957 150.793 141.953 150.926 141.945 151.012C141.922 151.812 141.702 152.474 141.287 153C140.879 153.525 140.263 153.788 139.44 153.788C138.601 153.788 137.966 153.49 137.535 152.894V155.634C137.535 155.712 137.508 155.775 137.453 155.822C137.406 155.877 137.343 155.904 137.265 155.904H136.735ZM139.217 152.87C139.781 152.87 140.193 152.694 140.452 152.341C140.71 151.988 140.851 151.526 140.875 150.953C140.883 150.875 140.887 150.761 140.887 150.612C140.887 149.107 140.33 148.354 139.217 148.354C138.668 148.354 138.252 148.539 137.97 148.907C137.696 149.268 137.551 149.695 137.535 150.189C137.527 150.275 137.523 150.428 137.523 150.648C137.523 150.867 137.527 151.02 137.535 151.106C137.551 151.584 137.7 152 137.982 152.353C138.272 152.698 138.684 152.87 139.217 152.87ZM146.994 153.67C146.915 153.67 146.849 153.646 146.794 153.599C146.747 153.544 146.723 153.478 146.723 153.399V148.46H145.712C145.633 148.46 145.567 148.437 145.512 148.39C145.465 148.343 145.441 148.28 145.441 148.202V147.825C145.441 147.747 145.465 147.684 145.512 147.637C145.567 147.582 145.633 147.555 145.712 147.555H146.723V146.967C146.723 146.332 146.876 145.842 147.182 145.497C147.495 145.144 148.005 144.968 148.711 144.968H149.404C149.483 144.968 149.545 144.995 149.593 145.05C149.647 145.097 149.675 145.16 149.675 145.238V145.614C149.675 145.693 149.647 145.755 149.593 145.802C149.545 145.85 149.483 145.873 149.404 145.873H148.734C148.373 145.873 148.123 145.967 147.981 146.155C147.84 146.343 147.77 146.634 147.77 147.026V147.555H149.287C149.365 147.555 149.428 147.582 149.475 147.637C149.53 147.684 149.557 147.747 149.557 147.825V148.202C149.557 148.28 149.53 148.343 149.475 148.39C149.428 148.437 149.365 148.46 149.287 148.46H147.77V153.399C147.77 153.478 147.742 153.544 147.687 153.599C147.64 153.646 147.578 153.67 147.499 153.67H146.994ZM152.968 153.788C152.106 153.788 151.44 153.544 150.969 153.058C150.507 152.572 150.26 151.926 150.228 151.118L150.217 150.612L150.228 150.107C150.26 149.299 150.511 148.652 150.981 148.166C151.459 147.68 152.122 147.437 152.968 147.437C153.815 147.437 154.474 147.68 154.944 148.166C155.422 148.652 155.677 149.299 155.709 150.107C155.724 150.279 155.732 150.448 155.732 150.612C155.732 150.777 155.724 150.946 155.709 151.118C155.677 151.926 155.426 152.572 154.956 153.058C154.493 153.544 153.831 153.788 152.968 153.788ZM152.968 152.906C153.47 152.906 153.866 152.749 154.156 152.435C154.454 152.114 154.615 151.655 154.638 151.059C154.646 150.981 154.65 150.832 154.65 150.612C154.65 150.393 154.646 150.244 154.638 150.165C154.615 149.57 154.454 149.115 154.156 148.801C153.866 148.48 153.47 148.319 152.968 148.319C152.467 148.319 152.067 148.48 151.769 148.801C151.479 149.115 151.322 149.57 151.299 150.165L151.287 150.612L151.299 151.059C151.322 151.655 151.479 152.114 151.769 152.435C152.067 152.749 152.467 152.906 152.968 152.906ZM159.498 153.788C158.754 153.788 158.177 153.548 157.77 153.07C157.362 152.584 157.158 151.941 157.158 151.142V147.825C157.158 147.747 157.182 147.684 157.229 147.637C157.284 147.582 157.35 147.555 157.429 147.555H157.97C158.048 147.555 158.111 147.582 158.158 147.637C158.213 147.684 158.24 147.747 158.24 147.825V151.083C158.24 152.274 158.757 152.87 159.792 152.87C160.294 152.87 160.69 152.713 160.98 152.4C161.278 152.078 161.427 151.639 161.427 151.083V147.825C161.427 147.747 161.451 147.684 161.498 147.637C161.552 147.582 161.619 147.555 161.697 147.555H162.238C162.317 147.555 162.38 147.582 162.427 147.637C162.481 147.684 162.509 147.747 162.509 147.825V153.399C162.509 153.478 162.481 153.544 162.427 153.599C162.38 153.646 162.317 153.67 162.238 153.67H161.733C161.654 153.67 161.588 153.646 161.533 153.599C161.486 153.544 161.462 153.478 161.462 153.399V152.87C161.235 153.176 160.968 153.407 160.663 153.564C160.357 153.713 159.969 153.788 159.498 153.788ZM164.539 153.67C164.46 153.67 164.394 153.646 164.339 153.599C164.292 153.544 164.268 153.478 164.268 153.399V147.825C164.268 147.747 164.292 147.684 164.339 147.637C164.394 147.582 164.46 147.555 164.539 147.555H165.045C165.131 147.555 165.197 147.578 165.244 147.625C165.291 147.672 165.315 147.739 165.315 147.825V148.343C165.55 148.053 165.821 147.829 166.126 147.672C166.44 147.516 166.828 147.437 167.291 147.437C168.043 147.437 168.627 147.68 169.043 148.166C169.458 148.644 169.666 149.28 169.666 150.071V153.399C169.666 153.478 169.639 153.544 169.584 153.599C169.537 153.646 169.474 153.67 169.396 153.67H168.855C168.776 153.67 168.71 153.646 168.655 153.599C168.608 153.544 168.584 153.478 168.584 153.399V150.142C168.584 149.577 168.447 149.138 168.173 148.825C167.898 148.511 167.506 148.354 166.997 148.354C166.495 148.354 166.095 148.515 165.797 148.837C165.499 149.15 165.35 149.585 165.35 150.142V153.399C165.35 153.478 165.323 153.544 165.268 153.599C165.221 153.646 165.158 153.67 165.08 153.67H164.539ZM173.6 153.788C172.777 153.788 172.158 153.521 171.742 152.988C171.334 152.455 171.115 151.78 171.083 150.965L171.072 150.612L171.083 150.26C171.115 149.452 171.338 148.782 171.754 148.249C172.169 147.708 172.785 147.437 173.6 147.437C174.415 147.437 175.051 147.727 175.505 148.307V145.591C175.505 145.512 175.529 145.45 175.576 145.403C175.631 145.348 175.697 145.32 175.776 145.32H176.305C176.383 145.32 176.446 145.348 176.493 145.403C176.548 145.45 176.575 145.512 176.575 145.591V153.399C176.575 153.478 176.548 153.544 176.493 153.599C176.446 153.646 176.383 153.67 176.305 153.67H175.799C175.721 153.67 175.658 153.646 175.611 153.599C175.564 153.544 175.541 153.478 175.541 153.399V152.894C175.094 153.49 174.447 153.788 173.6 153.788ZM173.824 152.87C174.372 152.87 174.784 152.69 175.058 152.329C175.333 151.961 175.482 151.526 175.505 151.024C175.513 150.938 175.517 150.789 175.517 150.577C175.517 150.358 175.513 150.205 175.505 150.118C175.49 149.64 175.337 149.229 175.047 148.884C174.764 148.531 174.357 148.354 173.824 148.354C173.259 148.354 172.847 148.531 172.589 148.884C172.33 149.236 172.189 149.699 172.165 150.271L172.154 150.612C172.154 152.118 172.71 152.87 173.824 152.87ZM178.642 151.741C178.564 151.741 178.497 151.718 178.442 151.671C178.395 151.616 178.372 151.549 178.372 151.471V145.708C178.372 145.622 178.395 145.556 178.442 145.508C178.497 145.461 178.564 145.438 178.642 145.438H179.148C179.226 145.438 179.289 145.465 179.336 145.52C179.391 145.567 179.418 145.63 179.418 145.708V151.471C179.418 151.549 179.391 151.616 179.336 151.671C179.289 151.718 179.226 151.741 179.148 151.741H178.642ZM178.536 153.67C178.458 153.67 178.391 153.646 178.336 153.599C178.289 153.544 178.266 153.478 178.266 153.399V152.682C178.266 152.604 178.289 152.541 178.336 152.494C178.391 152.439 178.458 152.412 178.536 152.412H179.242C179.32 152.412 179.387 152.439 179.442 152.494C179.497 152.541 179.524 152.604 179.524 152.682V153.399C179.524 153.478 179.497 153.544 179.442 153.599C179.387 153.646 179.32 153.67 179.242 153.67H178.536ZM186.368 153.67C186.29 153.67 186.223 153.646 186.168 153.599C186.121 153.544 186.098 153.478 186.098 153.399V150.612L183.264 145.826C183.24 145.779 183.228 145.728 183.228 145.673C183.228 145.61 183.252 145.556 183.299 145.508C183.346 145.461 183.401 145.438 183.464 145.438H184.028C184.169 145.438 184.271 145.505 184.334 145.638L186.662 149.483L188.979 145.638C189.057 145.505 189.159 145.438 189.285 145.438H189.849C189.912 145.438 189.967 145.461 190.014 145.508C190.069 145.556 190.096 145.61 190.096 145.673C190.096 145.712 190.081 145.763 190.049 145.826L187.215 150.612V153.399C187.215 153.478 187.188 153.544 187.133 153.599C187.086 153.646 187.019 153.67 186.933 153.67H186.368ZM192.819 153.788C191.957 153.788 191.29 153.544 190.82 153.058C190.357 152.572 190.111 151.926 190.079 151.118L190.067 150.612L190.079 150.107C190.111 149.299 190.361 148.652 190.832 148.166C191.31 147.68 191.973 147.437 192.819 147.437C193.666 147.437 194.325 147.68 194.795 148.166C195.273 148.652 195.528 149.299 195.559 150.107C195.575 150.279 195.583 150.448 195.583 150.612C195.583 150.777 195.575 150.946 195.559 151.118C195.528 151.926 195.277 152.572 194.807 153.058C194.344 153.544 193.682 153.788 192.819 153.788ZM192.819 152.906C193.321 152.906 193.717 152.749 194.007 152.435C194.305 152.114 194.466 151.655 194.489 151.059C194.497 150.981 194.501 150.832 194.501 150.612C194.501 150.393 194.497 150.244 194.489 150.165C194.466 149.57 194.305 149.115 194.007 148.801C193.717 148.48 193.321 148.319 192.819 148.319C192.317 148.319 191.918 148.48 191.62 148.801C191.33 149.115 191.173 149.57 191.149 150.165L191.138 150.612L191.149 151.059C191.173 151.655 191.33 152.114 191.62 152.435C191.918 152.749 192.317 152.906 192.819 152.906ZM199.349 153.788C198.604 153.788 198.028 153.548 197.62 153.07C197.213 152.584 197.009 151.941 197.009 151.142V147.825C197.009 147.747 197.032 147.684 197.079 147.637C197.134 147.582 197.201 147.555 197.279 147.555H197.82C197.899 147.555 197.961 147.582 198.009 147.637C198.063 147.684 198.091 147.747 198.091 147.825V151.083C198.091 152.274 198.608 152.87 199.643 152.87C200.145 152.87 200.541 152.713 200.831 152.4C201.129 152.078 201.278 151.639 201.278 151.083V147.825C201.278 147.747 201.301 147.684 201.348 147.637C201.403 147.582 201.47 147.555 201.548 147.555H202.089C202.168 147.555 202.23 147.582 202.277 147.637C202.332 147.684 202.36 147.747 202.36 147.825V153.399C202.36 153.478 202.332 153.544 202.277 153.599C202.23 153.646 202.168 153.67 202.089 153.67H201.584C201.505 153.67 201.439 153.646 201.384 153.599C201.337 153.544 201.313 153.478 201.313 153.399V152.87C201.086 153.176 200.819 153.407 200.513 153.564C200.208 153.713 199.82 153.788 199.349 153.788ZM208.707 153.788C208.322 153.788 207.966 153.709 207.636 153.552C207.315 153.396 207.056 153.184 206.86 152.917C206.672 152.643 206.578 152.341 206.578 152.012C206.578 151.494 206.79 151.071 207.213 150.742C207.636 150.412 208.213 150.193 208.942 150.083L210.706 149.836V149.495C210.706 148.688 210.239 148.284 209.306 148.284C208.946 148.284 208.656 148.358 208.436 148.507C208.217 148.648 208.056 148.817 207.954 149.013C207.923 149.091 207.887 149.146 207.848 149.178C207.817 149.201 207.77 149.213 207.707 149.213H207.248C207.178 149.213 207.115 149.189 207.06 149.142C207.013 149.087 206.99 149.025 206.99 148.954C206.99 148.774 207.072 148.566 207.237 148.331C207.409 148.088 207.672 147.88 208.025 147.708C208.377 147.527 208.809 147.437 209.318 147.437C210.196 147.437 210.823 147.641 211.2 148.049C211.584 148.456 211.776 148.966 211.776 149.577V153.399C211.776 153.478 211.749 153.544 211.694 153.599C211.647 153.646 211.584 153.67 211.506 153.67H210.988C210.91 153.67 210.847 153.646 210.8 153.599C210.753 153.544 210.729 153.478 210.729 153.399V152.882C210.557 153.141 210.306 153.356 209.977 153.529C209.647 153.701 209.224 153.788 208.707 153.788ZM208.942 152.929C209.459 152.929 209.883 152.76 210.212 152.423C210.541 152.086 210.706 151.596 210.706 150.953V150.624L209.33 150.824C208.765 150.902 208.338 151.036 208.048 151.224C207.758 151.412 207.613 151.647 207.613 151.929C207.613 152.251 207.742 152.498 208.001 152.67C208.268 152.843 208.581 152.929 208.942 152.929ZM213.749 153.67C213.671 153.67 213.604 153.646 213.549 153.599C213.502 153.544 213.479 153.478 213.479 153.399V147.837C213.479 147.759 213.502 147.692 213.549 147.637C213.604 147.582 213.671 147.555 213.749 147.555H214.243C214.33 147.555 214.396 147.582 214.443 147.637C214.498 147.684 214.526 147.751 214.526 147.837V148.354C214.847 147.821 215.392 147.555 216.16 147.555H216.619C216.705 147.555 216.772 147.578 216.819 147.625C216.866 147.672 216.889 147.739 216.889 147.825V148.26C216.889 148.339 216.866 148.405 216.819 148.46C216.772 148.507 216.705 148.531 216.619 148.531H215.948C215.517 148.531 215.176 148.656 214.925 148.907C214.682 149.158 214.561 149.499 214.561 149.93V153.399C214.561 153.478 214.533 153.544 214.478 153.599C214.424 153.646 214.357 153.67 214.279 153.67H213.749ZM220.208 153.788C219.408 153.788 218.769 153.541 218.291 153.047C217.813 152.545 217.55 151.863 217.503 151L217.492 150.601L217.503 150.212C217.55 149.366 217.813 148.692 218.291 148.19C218.769 147.688 219.408 147.437 220.208 147.437C221.07 147.437 221.737 147.712 222.207 148.26C222.686 148.809 222.925 149.554 222.925 150.495V150.706C222.925 150.785 222.897 150.851 222.842 150.906C222.795 150.953 222.733 150.977 222.654 150.977H218.573V151.083C218.597 151.592 218.754 152.027 219.044 152.388C219.334 152.749 219.718 152.929 220.196 152.929C220.565 152.929 220.863 152.858 221.09 152.717C221.325 152.568 221.502 152.416 221.619 152.259C221.69 152.165 221.745 152.11 221.784 152.094C221.823 152.071 221.89 152.059 221.984 152.059H222.501C222.572 152.059 222.631 152.078 222.678 152.118C222.733 152.157 222.76 152.208 222.76 152.27C222.76 152.443 222.654 152.651 222.442 152.894C222.231 153.137 221.929 153.348 221.537 153.529C221.153 153.701 220.71 153.788 220.208 153.788ZM221.854 150.177V150.142C221.854 149.593 221.706 149.146 221.408 148.801C221.11 148.456 220.71 148.284 220.208 148.284C219.698 148.284 219.299 148.456 219.009 148.801C218.718 149.146 218.573 149.593 218.573 150.142V150.177H221.854ZM83.944 173.788C83.4031 173.788 82.9444 173.701 82.5681 173.529C82.1996 173.348 81.9252 173.145 81.7449 172.917C81.5646 172.69 81.4744 172.502 81.4744 172.353C81.4744 172.274 81.5019 172.216 81.5567 172.176C81.6116 172.129 81.6704 172.106 81.7331 172.106H82.2271C82.2741 172.106 82.3094 172.114 82.3329 172.129C82.3643 172.145 82.4035 172.18 82.4505 172.235C82.6308 172.455 82.8307 172.627 83.0503 172.753C83.2776 172.878 83.5795 172.941 83.9558 172.941C84.3791 172.941 84.7163 172.862 84.9671 172.706C85.2259 172.549 85.3552 172.321 85.3552 172.024C85.3552 171.828 85.3003 171.671 85.1906 171.553C85.0808 171.436 84.8966 171.33 84.6379 171.236C84.387 171.142 84.0107 171.04 83.5089 170.93C82.8268 170.781 82.3447 170.565 82.0624 170.283C81.7802 170.001 81.6391 169.636 81.6391 169.189C81.6391 168.899 81.7253 168.621 81.8978 168.354C82.0703 168.08 82.3251 167.86 82.6622 167.696C83.0071 167.523 83.4148 167.437 83.8852 167.437C84.3791 167.437 84.7986 167.519 85.1435 167.684C85.4963 167.849 85.759 168.041 85.9315 168.26C86.1118 168.48 86.2019 168.664 86.2019 168.813C86.2019 168.884 86.1745 168.942 86.1196 168.989C86.0726 169.036 86.0138 169.06 85.9432 169.06H85.4963C85.3866 169.06 85.3082 169.017 85.2611 168.931C85.1279 168.782 85.0142 168.668 84.9201 168.59C84.8339 168.503 84.7045 168.433 84.532 168.378C84.3595 168.315 84.1439 168.284 83.8852 168.284C83.5011 168.284 83.2071 168.366 83.0032 168.531C82.7994 168.688 82.6975 168.899 82.6975 169.166C82.6975 169.33 82.7406 169.472 82.8268 169.589C82.9131 169.699 83.0777 169.805 83.3207 169.907C83.5638 170.001 83.9244 170.099 84.4027 170.201C85.1475 170.358 85.6727 170.581 85.9785 170.871C86.2921 171.161 86.4489 171.534 86.4489 171.988C86.4489 172.325 86.3509 172.631 86.1549 172.906C85.9667 173.18 85.6806 173.396 85.2964 173.552C84.9201 173.709 84.4693 173.788 83.944 173.788ZM90.1041 173.788C89.3593 173.788 88.783 173.548 88.3753 173.07C87.9677 172.584 87.7638 171.941 87.7638 171.142V167.825C87.7638 167.747 87.7873 167.684 87.8344 167.637C87.8893 167.582 87.9559 167.555 88.0343 167.555H88.5753C88.6537 167.555 88.7164 167.582 88.7634 167.637C88.8183 167.684 88.8457 167.747 88.8457 167.825V171.083C88.8457 172.274 89.3632 172.87 90.3981 172.87C90.8998 172.87 91.2957 172.713 91.5858 172.4C91.8837 172.078 92.0327 171.639 92.0327 171.083V167.825C92.0327 167.747 92.0562 167.684 92.1033 167.637C92.1581 167.582 92.2248 167.555 92.3032 167.555H92.8441C92.9225 167.555 92.9853 167.582 93.0323 167.637C93.0872 167.684 93.1146 167.747 93.1146 167.825V173.399C93.1146 173.478 93.0872 173.544 93.0323 173.599C92.9853 173.646 92.9225 173.67 92.8441 173.67H92.3385C92.2601 173.67 92.1934 173.646 92.1385 173.599C92.0915 173.544 92.068 173.478 92.068 173.399V172.87C91.8406 173.176 91.5741 173.407 91.2683 173.564C90.9625 173.713 90.5745 173.788 90.1041 173.788ZM95.1445 173.67C95.0661 173.67 94.9995 173.646 94.9446 173.599C94.8975 173.544 94.874 173.478 94.874 173.399V167.837C94.874 167.759 94.8975 167.692 94.9446 167.637C94.9995 167.582 95.0661 167.555 95.1445 167.555H95.6384C95.7247 167.555 95.7913 167.582 95.8383 167.637C95.8932 167.684 95.9207 167.751 95.9207 167.837V168.354C96.2421 167.821 96.787 167.555 97.5553 167.555H98.0139C98.1002 167.555 98.1668 167.578 98.2139 167.625C98.2609 167.672 98.2844 167.739 98.2844 167.825V168.26C98.2844 168.339 98.2609 168.405 98.2139 168.46C98.1668 168.507 98.1002 168.531 98.0139 168.531H97.3436C96.9124 168.531 96.5714 168.656 96.3205 168.907C96.0775 169.158 95.9559 169.499 95.9559 169.93V173.399C95.9559 173.478 95.9285 173.544 95.8736 173.599C95.8187 173.646 95.7521 173.67 95.6737 173.67H95.1445ZM101.603 173.788C100.804 173.788 100.165 173.541 99.6863 173.047C99.2081 172.545 98.9455 171.863 98.8984 171L98.8867 170.601L98.8984 170.212C98.9455 169.366 99.2081 168.692 99.6863 168.19C100.165 167.688 100.804 167.437 101.603 167.437C102.466 167.437 103.132 167.712 103.602 168.26C104.081 168.809 104.32 169.554 104.32 170.495V170.706C104.32 170.785 104.292 170.851 104.237 170.906C104.19 170.953 104.128 170.977 104.049 170.977H99.9686V171.083C99.9921 171.592 100.149 172.027 100.439 172.388C100.729 172.749 101.113 172.929 101.591 172.929C101.96 172.929 102.258 172.858 102.485 172.717C102.72 172.568 102.897 172.416 103.014 172.259C103.085 172.165 103.14 172.11 103.179 172.094C103.218 172.071 103.285 172.059 103.379 172.059H103.896C103.967 172.059 104.026 172.078 104.073 172.118C104.128 172.157 104.155 172.208 104.155 172.27C104.155 172.443 104.049 172.651 103.838 172.894C103.626 173.137 103.324 173.348 102.932 173.529C102.548 173.701 102.105 173.788 101.603 173.788ZM103.25 170.177V170.142C103.25 169.593 103.101 169.146 102.803 168.801C102.505 168.456 102.105 168.284 101.603 168.284C101.094 168.284 100.694 168.456 100.404 168.801C100.114 169.146 99.9686 169.593 99.9686 170.142V170.177H103.25ZM108.82 166.402C108.742 166.402 108.675 166.379 108.62 166.332C108.573 166.277 108.55 166.21 108.55 166.132V165.52C108.55 165.442 108.573 165.375 108.62 165.32C108.675 165.265 108.742 165.238 108.82 165.238H109.514C109.592 165.238 109.659 165.265 109.714 165.32C109.769 165.375 109.796 165.442 109.796 165.52V166.132C109.796 166.21 109.769 166.277 109.714 166.332C109.659 166.379 109.592 166.402 109.514 166.402H108.82ZM108.914 173.67C108.836 173.67 108.769 173.646 108.714 173.599C108.667 173.544 108.644 173.478 108.644 173.399V167.825C108.644 167.747 108.667 167.684 108.714 167.637C108.769 167.582 108.836 167.555 108.914 167.555H109.432C109.51 167.555 109.573 167.582 109.62 167.637C109.675 167.684 109.702 167.747 109.702 167.825V173.399C109.702 173.478 109.675 173.544 109.62 173.599C109.573 173.646 109.51 173.67 109.432 173.67H108.914ZM113.821 173.67C112.606 173.67 111.998 172.984 111.998 171.612V168.46H111.069C110.991 168.46 110.928 168.437 110.881 168.39C110.834 168.343 110.81 168.28 110.81 168.202V167.825C110.81 167.747 110.834 167.684 110.881 167.637C110.928 167.582 110.991 167.555 111.069 167.555H111.998V165.591C111.998 165.512 112.022 165.45 112.069 165.403C112.116 165.348 112.178 165.32 112.257 165.32H112.774C112.853 165.32 112.915 165.348 112.962 165.403C113.017 165.45 113.045 165.512 113.045 165.591V167.555H114.503C114.581 167.555 114.644 167.582 114.691 167.637C114.746 167.684 114.773 167.747 114.773 167.825V168.202C114.773 168.28 114.746 168.343 114.691 168.39C114.644 168.437 114.581 168.46 114.503 168.46H113.045V171.53C113.045 171.929 113.107 172.231 113.233 172.435C113.366 172.639 113.59 172.741 113.903 172.741H114.621C114.699 172.741 114.762 172.768 114.809 172.823C114.856 172.87 114.879 172.933 114.879 173.011V173.399C114.879 173.478 114.856 173.544 114.809 173.599C114.762 173.646 114.699 173.67 114.621 173.67H113.821ZM116.252 167.896C116.111 167.896 116.032 167.81 116.016 167.637L115.817 165.591V165.544C115.817 165.473 115.836 165.418 115.875 165.379C115.922 165.34 115.981 165.32 116.052 165.32H116.793C116.871 165.32 116.93 165.348 116.969 165.403C117.016 165.45 117.036 165.512 117.028 165.591L116.828 167.637C116.812 167.81 116.734 167.896 116.593 167.896H116.252ZM120.407 173.788C119.866 173.788 119.407 173.701 119.031 173.529C118.663 173.348 118.388 173.145 118.208 172.917C118.027 172.69 117.937 172.502 117.937 172.353C117.937 172.274 117.965 172.216 118.02 172.176C118.075 172.129 118.133 172.106 118.196 172.106H118.69C118.737 172.106 118.772 172.114 118.796 172.129C118.827 172.145 118.866 172.18 118.913 172.235C119.094 172.455 119.294 172.627 119.513 172.753C119.741 172.878 120.042 172.941 120.419 172.941C120.842 172.941 121.179 172.862 121.43 172.706C121.689 172.549 121.818 172.321 121.818 172.024C121.818 171.828 121.763 171.671 121.653 171.553C121.544 171.436 121.359 171.33 121.101 171.236C120.85 171.142 120.474 171.04 119.972 170.93C119.29 170.781 118.808 170.565 118.525 170.283C118.243 170.001 118.102 169.636 118.102 169.189C118.102 168.899 118.188 168.621 118.361 168.354C118.533 168.08 118.788 167.86 119.125 167.696C119.47 167.523 119.878 167.437 120.348 167.437C120.842 167.437 121.261 167.519 121.606 167.684C121.959 167.849 122.222 168.041 122.394 168.26C122.575 168.48 122.665 168.664 122.665 168.813C122.665 168.884 122.637 168.942 122.583 168.989C122.535 169.036 122.477 169.06 122.406 169.06H121.959C121.849 169.06 121.771 169.017 121.724 168.931C121.591 168.782 121.477 168.668 121.383 168.59C121.297 168.503 121.167 168.433 120.995 168.378C120.822 168.315 120.607 168.284 120.348 168.284C119.964 168.284 119.67 168.366 119.466 168.531C119.262 168.688 119.16 168.899 119.16 169.166C119.16 169.33 119.203 169.472 119.29 169.589C119.376 169.699 119.541 169.805 119.784 169.907C120.027 170.001 120.387 170.099 120.866 170.201C121.61 170.358 122.136 170.581 122.441 170.871C122.755 171.161 122.912 171.534 122.912 171.988C122.912 172.325 122.814 172.631 122.618 172.906C122.43 173.18 122.143 173.396 121.759 173.552C121.383 173.709 120.932 173.788 120.407 173.788ZM127.356 166.402C127.278 166.402 127.211 166.379 127.156 166.332C127.109 166.277 127.085 166.21 127.085 166.132V165.52C127.085 165.442 127.109 165.375 127.156 165.32C127.211 165.265 127.278 165.238 127.356 165.238H128.05C128.128 165.238 128.195 165.265 128.25 165.32C128.305 165.375 128.332 165.442 128.332 165.52V166.132C128.332 166.21 128.305 166.277 128.25 166.332C128.195 166.379 128.128 166.402 128.05 166.402H127.356ZM127.45 173.67C127.372 173.67 127.305 173.646 127.25 173.599C127.203 173.544 127.18 173.478 127.18 173.399V167.825C127.18 167.747 127.203 167.684 127.25 167.637C127.305 167.582 127.372 167.555 127.45 167.555H127.967C128.046 167.555 128.109 167.582 128.156 167.637C128.211 167.684 128.238 167.747 128.238 167.825V173.399C128.238 173.478 128.211 173.544 128.156 173.599C128.109 173.646 128.046 173.67 127.967 173.67H127.45ZM130.275 173.67C130.197 173.67 130.13 173.646 130.075 173.599C130.028 173.544 130.005 173.478 130.005 173.399V167.825C130.005 167.747 130.028 167.684 130.075 167.637C130.13 167.582 130.197 167.555 130.275 167.555H130.781C130.867 167.555 130.934 167.578 130.981 167.625C131.028 167.672 131.051 167.739 131.051 167.825V168.343C131.287 168.053 131.557 167.829 131.863 167.672C132.176 167.516 132.564 167.437 133.027 167.437C133.78 167.437 134.364 167.68 134.779 168.166C135.195 168.644 135.403 169.28 135.403 170.071V173.399C135.403 173.478 135.375 173.544 135.32 173.599C135.273 173.646 135.21 173.67 135.132 173.67H134.591C134.513 173.67 134.446 173.646 134.391 173.599C134.344 173.544 134.321 173.478 134.321 173.399V170.142C134.321 169.577 134.183 169.138 133.909 168.825C133.635 168.511 133.243 168.354 132.733 168.354C132.231 168.354 131.831 168.515 131.534 168.837C131.236 169.15 131.087 169.585 131.087 170.142V173.399C131.087 173.478 131.059 173.544 131.004 173.599C130.957 173.646 130.895 173.67 130.816 173.67H130.275ZM140.278 173.67C140.2 173.67 140.133 173.646 140.078 173.599C140.031 173.544 140.008 173.478 140.008 173.399V165.591C140.008 165.505 140.031 165.438 140.078 165.391C140.133 165.344 140.2 165.32 140.278 165.32H140.819C140.906 165.32 140.972 165.344 141.019 165.391C141.066 165.438 141.09 165.505 141.09 165.591V168.331C141.317 168.041 141.584 167.821 141.889 167.672C142.203 167.516 142.587 167.437 143.042 167.437C143.795 167.437 144.379 167.68 144.794 168.166C145.218 168.644 145.429 169.28 145.429 170.071V173.399C145.429 173.478 145.402 173.544 145.347 173.599C145.3 173.646 145.237 173.67 145.159 173.67H144.606C144.528 173.67 144.461 173.646 144.406 173.599C144.359 173.544 144.336 173.478 144.336 173.399V170.142C144.336 169.577 144.198 169.138 143.924 168.825C143.65 168.511 143.254 168.354 142.736 168.354C142.234 168.354 141.835 168.515 141.537 168.837C141.239 169.15 141.09 169.585 141.09 170.142V173.399C141.09 173.478 141.062 173.544 141.007 173.599C140.96 173.646 140.898 173.67 140.819 173.67H140.278ZM149.562 173.788C148.762 173.788 148.123 173.541 147.645 173.047C147.167 172.545 146.904 171.863 146.857 171L146.845 170.601L146.857 170.212C146.904 169.366 147.167 168.692 147.645 168.19C148.123 167.688 148.762 167.437 149.562 167.437C150.424 167.437 151.091 167.712 151.561 168.26C152.039 168.809 152.279 169.554 152.279 170.495V170.706C152.279 170.785 152.251 170.851 152.196 170.906C152.149 170.953 152.086 170.977 152.008 170.977H147.927V171.083C147.951 171.592 148.108 172.027 148.398 172.388C148.688 172.749 149.072 172.929 149.55 172.929C149.919 172.929 150.217 172.858 150.444 172.717C150.679 172.568 150.856 172.416 150.973 172.259C151.044 172.165 151.099 172.11 151.138 172.094C151.177 172.071 151.244 172.059 151.338 172.059H151.855C151.926 172.059 151.985 172.078 152.032 172.118C152.086 172.157 152.114 172.208 152.114 172.27C152.114 172.443 152.008 172.651 151.796 172.894C151.585 173.137 151.283 173.348 150.891 173.529C150.507 173.701 150.064 173.788 149.562 173.788ZM151.208 170.177V170.142C151.208 169.593 151.059 169.146 150.761 168.801C150.464 168.456 150.064 168.284 149.562 168.284C149.052 168.284 148.653 168.456 148.362 168.801C148.072 169.146 147.927 169.593 147.927 170.142V170.177H151.208ZM153.979 173.67C153.901 173.67 153.834 173.646 153.779 173.599C153.732 173.544 153.708 173.478 153.708 173.399V167.837C153.708 167.759 153.732 167.692 153.779 167.637C153.834 167.582 153.901 167.555 153.979 167.555H154.473C154.559 167.555 154.626 167.582 154.673 167.637C154.728 167.684 154.755 167.751 154.755 167.837V168.354C155.077 167.821 155.621 167.555 156.39 167.555H156.848C156.935 167.555 157.001 167.578 157.048 167.625C157.095 167.672 157.119 167.739 157.119 167.825V168.26C157.119 168.339 157.095 168.405 157.048 168.46C157.001 168.507 156.935 168.531 156.848 168.531H156.178C155.747 168.531 155.406 168.656 155.155 168.907C154.912 169.158 154.79 169.499 154.79 169.93V173.399C154.79 173.478 154.763 173.544 154.708 173.599C154.653 173.646 154.587 173.67 154.508 173.67H153.979ZM160.438 173.788C159.638 173.788 158.999 173.541 158.521 173.047C158.043 172.545 157.78 171.863 157.733 171L157.721 170.601L157.733 170.212C157.78 169.366 158.043 168.692 158.521 168.19C158.999 167.688 159.638 167.437 160.438 167.437C161.3 167.437 161.966 167.712 162.437 168.26C162.915 168.809 163.154 169.554 163.154 170.495V170.706C163.154 170.785 163.127 170.851 163.072 170.906C163.025 170.953 162.962 170.977 162.884 170.977H158.803V171.083C158.827 171.592 158.983 172.027 159.273 172.388C159.564 172.749 159.948 172.929 160.426 172.929C160.794 172.929 161.092 172.858 161.32 172.717C161.555 172.568 161.731 172.416 161.849 172.259C161.919 172.165 161.974 172.11 162.014 172.094C162.053 172.071 162.119 172.059 162.213 172.059H162.731C162.801 172.059 162.86 172.078 162.907 172.118C162.962 172.157 162.99 172.208 162.99 172.27C162.99 172.443 162.884 172.651 162.672 172.894C162.46 173.137 162.159 173.348 161.767 173.529C161.382 173.701 160.939 173.788 160.438 173.788ZM162.084 170.177V170.142C162.084 169.593 161.935 169.146 161.637 168.801C161.339 168.456 160.939 168.284 160.438 168.284C159.928 168.284 159.528 168.456 159.238 168.801C158.948 169.146 158.803 169.593 158.803 170.142V170.177H162.084ZM166.388 171.777C166.309 171.777 166.247 171.753 166.2 171.706C166.153 171.659 166.129 171.596 166.129 171.518V171.036C166.145 170.62 166.251 170.26 166.447 169.954C166.651 169.648 166.937 169.307 167.305 168.931C167.587 168.641 167.795 168.401 167.928 168.213C168.07 168.025 168.152 167.821 168.175 167.602C168.183 167.57 168.187 167.519 168.187 167.449C168.187 167.088 168.034 166.802 167.729 166.59C167.423 166.379 167.066 166.273 166.658 166.273C166.219 166.273 165.851 166.39 165.553 166.626C165.263 166.853 165.075 167.214 164.988 167.708C164.957 167.88 164.855 167.966 164.683 167.966H164.165C164.095 167.966 164.032 167.943 163.977 167.896C163.93 167.849 163.907 167.786 163.907 167.708C163.922 167.276 164.044 166.88 164.271 166.52C164.506 166.151 164.832 165.861 165.247 165.65C165.671 165.43 166.153 165.32 166.694 165.32C167.266 165.32 167.748 165.418 168.14 165.614C168.532 165.81 168.822 166.069 169.01 166.39C169.199 166.704 169.293 167.037 169.293 167.39C169.293 167.79 169.202 168.135 169.022 168.425C168.842 168.715 168.571 169.052 168.211 169.436C167.913 169.758 167.689 170.032 167.54 170.26C167.391 170.479 167.305 170.726 167.282 171C167.266 171.22 167.258 171.385 167.258 171.494C167.219 171.682 167.121 171.777 166.964 171.777H166.388ZM166.282 173.67C166.204 173.67 166.137 173.646 166.082 173.599C166.035 173.544 166.012 173.478 166.012 173.399V172.717C166.012 172.639 166.035 172.572 166.082 172.517C166.137 172.463 166.204 172.435 166.282 172.435H167.011C167.09 172.435 167.156 172.463 167.211 172.517C167.266 172.572 167.293 172.639 167.293 172.717V173.399C167.293 173.478 167.266 173.544 167.211 173.599C167.156 173.646 167.09 173.67 167.011 173.67H166.282Z" fill="#888888"/>
<defs>
<clipPath id="clip0_658_19259">
<rect width="151.19" height="108.76" fill="white" transform="translate(49.9609)"/>
</clipPath>
<clipPath id="clip1_658_19259">
<rect width="151.19" height="96.6566" fill="white" transform="translate(49.9609 6.05176)"/>
</clipPath>
</defs>
</svg>
