<svg width="16" height="14" viewBox="0 0 16 14" fill="none" xmlns="http://www.w3.org/2000/svg">
<path d="M0.842189 5.9354H13.0275L8.30885 1.88207C7.95539 1.57976 7.91392 1.04816 8.21622 0.694697C8.51853 0.341235 9.05013 0.299762 9.40359 0.602065L15.3713 5.73329C15.6812 5.99992 15.8594 6.38838 15.8594 6.79715C15.8594 7.20593 15.6812 7.59439 15.3713 7.86101L9.40359 12.9979C9.05043 13.2879 8.53043 13.2433 8.23179 12.8974C7.93314 12.5515 7.96485 12.0306 8.30325 11.7235L13.0527 7.61961H0.842189C0.377106 7.61961 8.67844e-05 7.24259 8.67844e-05 6.7775C8.67844e-05 6.31242 0.377106 5.9354 0.842189 5.9354ZM14.0352 6.79154L13.9706 6.73821C13.9706 6.73821 13.9706 6.76347 13.9706 6.7775C13.9721 6.80181 13.9721 6.82618 13.9706 6.85049L14.0352 6.79154Z" fill="white"/>
</svg>
