<svg width="50" height="50" viewBox="0 0 50 50" fill="none" xmlns="http://www.w3.org/2000/svg">
<path d="M25 50C38.8071 50 50 38.8071 50 25C50 11.1929 38.8071 0 25 0C11.1929 0 0 11.1929 0 25C0 38.8071 11.1929 50 25 50Z" fill="#FF8195"/>
<path d="M5.26318 36.1845C5.26318 36.1845 15.5923 29.231 25.5923 29.231C35.5923 29.231 44.0234 36.1845 44.0234 36.1845" fill="white"/>
<path d="M44.5414 37.1227C44.2677 37.1265 43.998 37.0572 43.76 36.922C43.522 36.7868 43.3244 36.5905 43.1876 36.3534C43.1414 36.2611 34.531 30.769 25.5925 30.769C16.6541 30.769 6.94484 35.1161 6.86791 35.2469C6.77195 35.4247 6.6419 35.5818 6.4852 35.7094C6.32851 35.8369 6.14822 35.9323 5.95465 35.9902C5.76107 36.048 5.558 36.0672 5.35702 36.0466C5.15604 36.0259 4.96109 35.9659 4.7833 35.87C4.60551 35.774 4.44836 35.644 4.32083 35.4873C4.1933 35.3306 4.09788 35.1503 4.04002 34.9567C3.98216 34.7631 3.963 34.5601 3.98362 34.3591C4.00425 34.1581 4.06425 33.9631 4.16022 33.7854C4.39868 33.3469 14.7772 27.769 25.5695 27.769C36.3618 27.769 45.6568 34.415 45.8722 34.8534C45.9682 35.0312 46.0282 35.2262 46.0488 35.4271C46.0694 35.6281 46.0503 35.8312 45.9924 36.0248C45.9345 36.2184 45.8391 36.3986 45.7116 36.5553C45.5841 36.712 45.4269 36.8421 45.2491 36.938C45.0315 37.0556 44.7887 37.1189 44.5414 37.1227Z" fill="black"/>
<path d="M14.5615 21.2539C10.1307 21.2539 7.79227 17.4077 7.69996 17.2231C7.51236 16.8744 7.46645 16.4667 7.5718 16.085C7.67715 15.7033 7.92564 15.3768 8.26556 15.1737C8.60547 14.9705 9.01064 14.9063 9.39674 14.9943C9.78284 15.0823 10.1201 15.3158 10.3384 15.6462C10.4153 15.7693 11.923 18.177 14.5615 18.177C17.2 18.177 18.7615 15.6847 18.7769 15.6539C18.8655 15.4577 18.9944 15.2824 19.1551 15.1391C19.3157 14.9959 19.5047 14.8879 19.7097 14.8223C19.9147 14.7566 20.1312 14.7348 20.3452 14.7581C20.5593 14.7813 20.766 14.8493 20.9521 14.9575C21.1382 15.0657 21.2995 15.2117 21.4256 15.3862C21.5517 15.5606 21.6398 15.7596 21.6842 15.9703C21.7286 16.1809 21.7283 16.3985 21.6833 16.609C21.6383 16.8195 21.5497 17.0183 21.423 17.1924C21.3307 17.3924 18.9923 21.2539 14.5615 21.2539Z" fill="black"/>
<path d="M35.3308 21.2537C30.9 21.2537 28.5616 17.4075 28.4693 17.2229C28.2816 16.8741 28.2357 16.4665 28.3411 16.0848C28.4464 15.703 28.6949 15.3766 29.0348 15.1735C29.3748 14.9703 29.7799 14.906 30.166 14.994C30.5521 15.0821 30.8894 15.3156 31.1077 15.646C31.1846 15.769 32.6923 18.1767 35.3308 18.1767C37.9693 18.1767 39.5308 15.6844 39.5462 15.6537C39.7702 15.3456 40.1005 15.1317 40.4732 15.0531C40.8458 14.9746 41.2344 15.0371 41.5637 15.2285C41.8929 15.4199 42.1395 15.7267 42.2556 16.0894C42.3717 16.4521 42.3492 16.8451 42.1923 17.1921C42.1 17.3921 39.7616 21.2537 35.3308 21.2537Z" fill="black"/>
</svg>
