<svg width="16" height="16" viewBox="0 0 16 16" fill="none" xmlns="http://www.w3.org/2000/svg">
<g clip-path="url(#clip0_658_18477)">
<g clip-path="url(#clip1_658_18477)">
<path d="M2.36953 2.36975C1.47693 3.2622 0.869029 4.39931 0.622703 5.63726C0.376378 6.87522 0.502694 8.15842 0.985678 9.32458C1.46866 10.4907 2.28662 11.4875 3.3361 12.1888C4.38559 12.89 5.61946 13.2643 6.88169 13.2643C8.14391 13.2643 9.37779 12.89 10.4273 12.1888C11.4768 11.4875 12.2947 10.4907 12.7777 9.32458C13.2607 8.15842 13.387 6.87522 13.1407 5.63726C12.8943 4.39931 12.2864 3.2622 11.3938 2.36975C10.1971 1.17318 8.57403 0.500977 6.88169 0.500977C5.18934 0.500977 3.5663 1.17318 2.36953 2.36975ZM10.3533 10.3535C9.66677 11.0398 8.79217 11.507 7.8401 11.6962C6.88802 11.8854 5.90122 11.7881 5.00446 11.4165C4.10771 11.0449 3.34126 10.4158 2.80202 9.60863C2.26278 8.8015 1.97497 7.8526 1.97497 6.88191C1.97497 5.91121 2.26278 4.96232 2.80202 4.15518C3.34126 3.34805 4.10771 2.71892 5.00446 2.34734C5.90122 1.97576 6.88802 1.87842 7.8401 2.06762C8.79217 2.25681 9.66677 2.72406 10.3533 3.41027C11.272 4.33211 11.7878 5.58048 11.7878 6.88191C11.7878 8.18333 11.272 9.43171 10.3533 10.3535Z" fill="black"/>
<path d="M12.3197 12.3207C12.1832 12.4575 12.1064 12.6428 12.1064 12.8361C12.1064 13.0294 12.1832 13.2148 12.3197 13.3515L14.2646 15.2964C14.3314 15.3681 14.4119 15.4255 14.5014 15.4654C14.5909 15.5053 14.6874 15.5267 14.7854 15.5284C14.8833 15.5302 14.9806 15.5121 15.0714 15.4755C15.1622 15.4388 15.2447 15.3842 15.3139 15.3149C15.3832 15.2457 15.4378 15.1632 15.4745 15.0724C15.5112 14.9815 15.5292 14.8843 15.5274 14.7863C15.5257 14.6884 15.5043 14.5918 15.4644 14.5024C15.4246 14.4129 15.3671 14.3324 15.2954 14.2656L13.3505 12.3207C13.2138 12.1841 13.0284 12.1074 12.8351 12.1074C12.6419 12.1074 12.4565 12.1841 12.3197 12.3207Z" fill="black"/>
</g>
</g>
<defs>
<clipPath id="clip0_658_18477">
<rect width="15" height="15" fill="white" transform="translate(0.5 0.5)"/>
</clipPath>
<clipPath id="clip1_658_18477">
<rect width="15" height="15" fill="white" transform="translate(0.5 0.5)"/>
</clipPath>
</defs>
</svg>
