<svg width="16" height="16" viewBox="0 0 16 16" fill="none" xmlns="http://www.w3.org/2000/svg">
<path d="M14.8692 0.917369C15.0186 0.917369 15.1466 1.0667 15.1039 1.21604L11.4559 14.8267C11.4132 14.9974 11.2639 15.0827 11.1146 15.0827C11.0292 15.0827 10.9226 15.04 10.8586 14.976L7.1679 11.2427C7.08256 11.1574 7.08256 11.0294 7.14656 10.9227L11.3492 4.94937C11.4772 4.7787 11.3279 4.56537 11.1572 4.56537C11.1146 4.56537 11.0719 4.5867 11.0292 4.60804L4.9279 8.72537C4.90656 8.7467 4.8639 8.7467 4.82123 8.7467C4.77856 8.7467 4.71456 8.72537 4.6719 8.6827L0.981229 4.92804C0.789229 4.7147 0.874562 4.3947 1.1519 4.30937L14.8266 0.896035C14.8479 0.917369 14.8692 0.917369 14.8692 0.917369ZM14.8692 -0.0639648C14.7626 -0.0639648 14.6772 -0.0426315 14.5706 -0.0212982L0.895895 3.39204C0.426562 3.4987 0.0638954 3.86137 -0.0641046 4.30937C-0.192105 4.7787 -0.0641046 5.26937 0.277229 5.6107L3.9679 9.36537C4.18123 9.5787 4.4799 9.7067 4.7999 9.7067C5.03456 9.7067 5.26923 9.6427 5.46123 9.5147L8.27723 7.61604L6.3359 10.368C5.99456 10.8374 6.05856 11.4987 6.46389 11.904L10.1332 15.6374C10.3892 15.8934 10.7306 16.0427 11.0932 16.0427C11.6906 16.0427 12.2239 15.6374 12.3732 15.0614L16.0426 1.47204C16.1492 1.10937 16.0639 0.725368 15.8292 0.426702C15.6159 0.128035 15.2532 -0.0639648 14.8692 -0.0639648Z" fill="white"/>
</svg>
