<svg width="285" height="175" viewBox="0 0 285 175" fill="none" xmlns="http://www.w3.org/2000/svg">
<g clip-path="url(#clip0_658_19279)">
<g clip-path="url(#clip1_658_19279)">
<path fill-rule="evenodd" clip-rule="evenodd" d="M226.667 97.9207C225.513 97.9207 224.385 97.5786 223.426 96.9376C222.467 96.2967 221.719 95.3856 221.277 94.3197C220.836 93.2538 220.72 92.0809 220.945 90.9494C221.171 89.8178 221.726 88.7784 222.542 87.9626C223.358 87.1468 224.397 86.5912 225.529 86.3662C226.66 86.1411 227.833 86.2566 228.899 86.6981C229.965 87.1396 230.876 87.8873 231.517 88.8466C232.158 89.8059 232.5 90.9337 232.5 92.0874C232.5 93.6345 231.885 95.1182 230.791 96.2122C229.697 97.3062 228.214 97.9207 226.667 97.9207ZM90.8333 97.9207C89.2862 97.9207 87.8025 97.3062 86.7085 96.2122C85.6146 95.1182 85 93.6345 85 92.0874C85 90.5403 85.6146 89.0566 86.7085 87.9626C87.8025 86.8687 89.2862 86.2541 90.8333 86.2541H58.3333C56.7862 86.2541 55.3025 85.6395 54.2085 84.5455C53.1146 83.4516 52.5 81.9678 52.5 80.4207C52.5 78.8736 53.1146 77.3899 54.2085 76.2959C55.3025 75.202 56.7862 74.5874 58.3333 74.5874H91.6667C93.2138 74.5874 94.6975 73.9728 95.7915 72.8789C96.8854 71.7849 97.5 70.3012 97.5 68.7541C97.5 67.207 96.8854 65.7232 95.7915 64.6293C94.6975 63.5353 93.2138 62.9207 91.6667 62.9207H70.8333C69.2862 62.9207 67.8025 62.3062 66.7085 61.2122C65.6146 60.1182 65 58.6345 65 57.0874C65 55.5403 65.6146 54.0566 66.7085 52.9626C67.8025 51.8687 69.2862 51.2541 70.8333 51.2541H104.167C102.62 51.2541 101.136 50.6395 100.042 49.5455C98.9479 48.4516 98.3333 46.9678 98.3333 45.4207C98.3333 43.8736 98.9479 42.3899 100.042 41.2959C101.136 40.202 102.62 39.5874 104.167 39.5874H151.667C153.214 39.5874 154.697 40.202 155.791 41.2959C156.885 42.3899 157.5 43.8736 157.5 45.4207C157.5 46.9678 156.885 48.4516 155.791 49.5455C154.697 50.6395 153.214 51.2541 151.667 51.2541H205C206.547 51.2541 208.031 51.8687 209.125 52.9626C210.219 54.0566 210.833 55.5403 210.833 57.0874C210.833 58.6345 210.219 60.1182 209.125 61.2122C208.031 62.3062 206.547 62.9207 205 62.9207H223.333C224.88 62.9207 226.364 63.5353 227.458 64.6293C228.552 65.7232 229.167 67.207 229.167 68.7541C229.167 70.3012 228.552 71.7849 227.458 72.8789C226.364 73.9728 224.88 74.5874 223.333 74.5874H207.5C205.953 74.5874 204.469 75.202 203.375 76.2959C202.281 77.3899 201.667 78.8736 201.667 80.4207C201.667 81.9678 202.281 83.4516 203.375 84.5455C204.469 85.6395 205.953 86.2541 207.5 86.2541H212.5C214.047 86.2541 215.531 86.8687 216.625 87.9626C217.719 89.0566 218.333 90.5403 218.333 92.0874C218.333 93.6345 217.719 95.1182 216.625 96.2122C215.531 97.3062 214.047 97.9207 212.5 97.9207H90.8333Z" fill="#AAFFE5"/>
<path d="M112.4 21.7289H119.641V22.9956L114.091 29.8289H119.775V31.2706H111.975V29.8956L117.5 23.1623H112.4V21.7289ZM98.5081 8.99561H108.466V10.7373L100.833 20.1039H108.65V22.0873H97.9248V20.2123L105.55 10.9789H98.5081V8.99561Z" fill="#008FF4"/>
<path d="M121.917 108.004C120.85 108 119.821 107.608 119.022 106.901C118.223 106.194 117.709 105.221 117.575 104.162L110.075 42.9706C109.988 42.2579 110.188 41.5397 110.63 40.9741C111.072 40.4084 111.721 40.0415 112.434 39.954L116.509 39.4956C116.648 39.4715 116.792 39.4762 116.93 39.5095C117.068 39.5428 117.197 39.6038 117.311 39.689C117.424 39.7742 117.519 39.8817 117.59 40.0048C117.66 40.128 117.705 40.2643 117.721 40.4053C117.736 40.5463 117.723 40.6891 117.682 40.8248C117.641 40.9606 117.572 41.0866 117.481 41.1949C117.389 41.3032 117.276 41.3917 117.149 41.4549C117.022 41.5181 116.884 41.5546 116.742 41.5623L112.692 42.0206C112.61 42.0289 112.53 42.0534 112.458 42.0929C112.386 42.1324 112.322 42.1859 112.271 42.2504C112.22 42.3149 112.182 42.389 112.16 42.4683C112.137 42.5476 112.131 42.6306 112.142 42.7123L119.642 103.904C119.719 104.507 120.031 105.055 120.51 105.43C120.989 105.804 121.596 105.975 122.2 105.904L171 99.9123C171.299 99.8752 171.588 99.7796 171.849 99.6309C172.111 99.4822 172.341 99.2834 172.526 99.0458C172.711 98.8083 172.847 98.5365 172.927 98.2462C173.007 97.9559 173.029 97.6527 172.992 97.354L172.3 91.6873L164.55 35.1623C164.515 34.8895 164.588 34.6137 164.756 34.3951C164.923 34.1766 165.169 34.0329 165.442 33.9956C165.716 33.9599 165.992 34.0335 166.212 34.2004C166.432 34.3673 166.578 34.614 166.617 34.8873L174.367 91.4206L175.059 97.1123C175.13 97.6826 175.087 98.2613 174.934 98.8153C174.781 99.3693 174.52 99.8876 174.167 100.34C173.813 100.793 173.373 101.172 172.873 101.455C172.372 101.737 171.821 101.918 171.25 101.987L122.45 107.979C122.275 107.987 122.092 108.004 121.917 108.004ZM119.884 41.204C119.62 41.1985 119.369 41.0937 119.18 40.9106C118.991 40.7275 118.878 40.4796 118.865 40.2168C118.851 39.954 118.937 39.6958 119.106 39.4939C119.275 39.2921 119.514 39.1617 119.775 39.129L123.6 38.6956C123.736 38.6809 123.874 38.6931 124.006 38.7316C124.137 38.77 124.26 38.8341 124.367 38.92C124.474 39.0058 124.562 39.1119 124.628 39.2322C124.694 39.3524 124.735 39.4844 124.75 39.6206C124.765 39.7569 124.753 39.8947 124.714 40.0262C124.676 40.1578 124.612 40.2804 124.526 40.3872C124.44 40.494 124.334 40.5828 124.214 40.6486C124.093 40.7144 123.961 40.7559 123.825 40.7706L120 41.1956L119.884 41.204Z" fill="#008FF4"/>
<mask id="mask0_658_19279" style="mask-type:luminance" maskUnits="userSpaceOnUse" x="126" y="23" width="57" height="71">
<path d="M129.75 23.354H167.708C168.146 23.3537 168.58 23.4396 168.984 23.6069C169.389 23.7742 169.757 24.0196 170.067 24.329L181.267 35.529C181.577 35.8381 181.824 36.2055 181.993 36.6102C182.162 37.0149 182.249 37.4489 182.25 37.8873V90.0207C182.25 90.9047 181.899 91.7526 181.274 92.3777C180.648 93.0028 179.801 93.354 178.917 93.354H129.75C128.866 93.354 128.018 93.0028 127.393 92.3777C126.768 91.7526 126.417 90.9047 126.417 90.0207V26.6873C126.417 25.8033 126.768 24.9554 127.393 24.3303C128.018 23.7052 128.866 23.354 129.75 23.354Z" fill="white"/>
</mask>
<g mask="url(#mask0_658_19279)">
<path d="M129.75 23.354H167.708C168.146 23.3537 168.58 23.4396 168.984 23.6069C169.389 23.7742 169.757 24.0196 170.067 24.329L181.267 35.529C181.577 35.8381 181.824 36.2055 181.993 36.6102C182.162 37.0149 182.249 37.4489 182.25 37.8873V90.0207C182.25 90.9047 181.899 91.7526 181.274 92.3777C180.648 93.0028 179.801 93.354 178.917 93.354H129.75C128.866 93.354 128.018 93.0028 127.393 92.3777C126.768 91.7526 126.417 90.9047 126.417 90.0207V26.6873C126.417 25.8033 126.768 24.9554 127.393 24.3303C128.018 23.7052 128.866 23.354 129.75 23.354Z" fill="white"/>
</g>
<path d="M178.917 94.3955H129.75C128.59 94.3933 127.479 93.9316 126.659 93.1117C125.839 92.2917 125.377 91.1801 125.375 90.0205V26.6872C125.382 25.5304 125.845 24.4232 126.665 23.6068C127.484 22.7904 128.593 22.331 129.75 22.3288H167.708C168.287 22.3232 168.861 22.4322 169.398 22.6496C169.934 22.867 170.422 23.1885 170.833 23.5955L182.008 34.8288C182.838 35.6324 183.314 36.7324 183.333 37.8872V90.0205C183.332 90.5982 183.217 91.1701 182.994 91.7031C182.771 92.2361 182.445 92.7198 182.035 93.1264C181.624 93.533 181.138 93.8544 180.602 94.0722C180.067 94.29 179.494 94.3999 178.917 94.3955ZM129.75 24.3955C129.149 24.4064 128.577 24.6527 128.156 25.0813C127.736 25.5098 127.5 26.0865 127.5 26.6872V90.0205C127.496 90.624 127.729 91.2049 128.151 91.6371C128.572 92.0693 129.147 92.3179 129.75 92.3288H178.917C179.524 92.3288 180.107 92.0874 180.537 91.6576C180.967 91.2278 181.208 90.645 181.208 90.0372V37.8872C181.214 37.5781 181.158 37.2711 181.042 36.9846C180.926 36.6981 180.753 36.4381 180.533 36.2205L169.333 25.0705C169.121 24.8561 168.867 24.686 168.588 24.5702C168.31 24.4543 168.01 24.3949 167.708 24.3955H129.75Z" fill="#008FF4"/>
<path d="M177.192 38.5625H170.583C169.644 38.5625 168.743 38.1894 168.079 37.5252C167.415 36.861 167.042 35.9601 167.042 35.0208V25.3542C167.042 25.0779 167.151 24.8129 167.347 24.6176C167.542 24.4222 167.807 24.3125 168.083 24.3125C168.359 24.3125 168.624 24.4222 168.82 24.6176C169.015 24.8129 169.125 25.0779 169.125 25.3542V35.0208C169.123 35.2137 169.159 35.4052 169.231 35.584C169.303 35.7629 169.41 35.9256 169.546 36.0628C169.682 36.2 169.843 36.3089 170.021 36.3833C170.199 36.4576 170.39 36.4958 170.583 36.4958H177.192C177.468 36.4958 177.733 36.6056 177.928 36.8009C178.123 36.9963 178.233 37.2612 178.233 37.5375C178.233 37.8138 178.123 38.0787 177.928 38.2741C177.733 38.4694 177.468 38.5792 177.192 38.5792V38.5625Z" fill="#008FF4"/>
<path d="M142.5 59.529C140.677 59.5268 138.93 58.8017 137.641 57.5129C136.352 56.2241 135.627 54.4767 135.625 52.654C135.625 52.3777 135.735 52.1128 135.93 51.9174C136.125 51.7221 136.39 51.6123 136.667 51.6123C136.943 51.6123 137.208 51.7221 137.403 51.9174C137.599 52.1128 137.708 52.3777 137.708 52.654C137.708 53.9248 138.213 55.1436 139.112 56.0422C140.01 56.9408 141.229 57.4456 142.5 57.4456C143.771 57.4456 144.99 56.9408 145.888 56.0422C146.787 55.1436 147.292 53.9248 147.292 52.654C147.292 52.3777 147.401 52.1128 147.597 51.9174C147.792 51.7221 148.057 51.6123 148.333 51.6123C148.61 51.6123 148.875 51.7221 149.07 51.9174C149.265 52.1128 149.375 52.3777 149.375 52.654C149.373 54.4767 148.648 56.2241 147.359 57.5129C146.07 58.8017 144.323 59.5268 142.5 59.529Z" fill="#008FF4"/>
<path d="M166.667 59.529C164.844 59.5268 163.096 58.8017 161.808 57.5129C160.519 56.2241 159.794 54.4767 159.792 52.654C159.792 52.3777 159.901 52.1128 160.097 51.9174C160.292 51.7221 160.557 51.6123 160.833 51.6123C161.109 51.6123 161.374 51.7221 161.57 51.9174C161.765 52.1128 161.875 52.3777 161.875 52.654C161.875 53.9248 162.38 55.1436 163.278 56.0422C164.177 56.9408 165.396 57.4456 166.667 57.4456C167.937 57.4456 169.156 56.9408 170.055 56.0422C170.953 55.1436 171.458 53.9248 171.458 52.654C171.458 52.3777 171.568 52.1128 171.763 51.9174C171.959 51.7221 172.224 51.6123 172.5 51.6123C172.776 51.6123 173.041 51.7221 173.236 51.9174C173.432 52.1128 173.542 52.3777 173.542 52.654C173.539 54.4767 172.814 56.2241 171.525 57.5129C170.237 58.8017 168.489 59.5268 166.667 59.529Z" fill="#008FF4"/>
<path d="M160.375 69.5291H148.333C148.057 69.5291 147.792 69.4194 147.597 69.224C147.401 69.0287 147.292 68.7637 147.292 68.4875C147.292 68.2112 147.401 67.9463 147.597 67.7509C147.792 67.5555 148.057 67.4458 148.333 67.4458H160.417C160.693 67.4458 160.958 67.5555 161.153 67.7509C161.348 67.9463 161.458 68.2112 161.458 68.4875C161.458 68.7637 161.348 69.0287 161.153 69.224C160.958 69.4194 160.693 69.5291 160.417 69.5291H160.375Z" fill="#008FF4"/>
</g>
</g>
<path d="M28.3573 143C28.2506 143 28.1599 142.963 28.0853 142.888C28.0106 142.813 27.9733 142.723 27.9733 142.616V139L24.1973 132.312C24.1866 132.291 24.1759 132.264 24.1653 132.232C24.1546 132.2 24.1493 132.168 24.1493 132.136C24.1493 132.04 24.1813 131.96 24.2453 131.896C24.3093 131.832 24.3839 131.8 24.4693 131.8H25.8932C26.0213 131.8 26.1226 131.832 26.1973 131.896C26.2826 131.96 26.3413 132.029 26.3733 132.104L29.0933 136.76L31.7973 132.104C31.8399 132.029 31.8986 131.96 31.9733 131.896C32.0586 131.832 32.1653 131.8 32.2933 131.8H33.7013C33.7973 131.8 33.8773 131.832 33.9413 131.896C34.0053 131.96 34.0373 132.04 34.0373 132.136C34.0373 132.168 34.0319 132.2 34.0213 132.232C34.0213 132.264 34.0106 132.291 33.9893 132.312L30.2133 139V142.616C30.2133 142.723 30.1759 142.813 30.1013 142.888C30.0266 142.963 29.9306 143 29.8133 143H28.3573ZM37.7673 143.16C36.9139 143.16 36.1939 143.011 35.6073 142.712C35.0313 142.413 34.5886 141.992 34.2793 141.448C33.9806 140.904 33.8099 140.269 33.7673 139.544C33.7566 139.352 33.7513 139.117 33.7513 138.84C33.7513 138.563 33.7566 138.328 33.7673 138.136C33.8099 137.4 33.9859 136.765 34.2953 136.232C34.6153 135.688 35.0633 135.267 35.6393 134.968C36.2259 134.669 36.9353 134.52 37.7673 134.52C38.5993 134.52 39.3033 134.669 39.8793 134.968C40.4659 135.267 40.9139 135.688 41.2233 136.232C41.5433 136.765 41.7246 137.4 41.7673 138.136C41.7779 138.328 41.7833 138.563 41.7833 138.84C41.7833 139.117 41.7779 139.352 41.7673 139.544C41.7246 140.269 41.5486 140.904 41.2393 141.448C40.9406 141.992 40.4979 142.413 39.9113 142.712C39.3353 143.011 38.6206 143.16 37.7673 143.16ZM37.7673 141.576C38.3326 141.576 38.7699 141.4 39.0793 141.048C39.3886 140.685 39.5593 140.157 39.5913 139.464C39.6019 139.304 39.6073 139.096 39.6073 138.84C39.6073 138.584 39.6019 138.376 39.5913 138.216C39.5593 137.533 39.3886 137.011 39.0793 136.648C38.7699 136.285 38.3326 136.104 37.7673 136.104C37.2019 136.104 36.7646 136.285 36.4553 136.648C36.1459 137.011 35.9753 137.533 35.9433 138.216C35.9326 138.376 35.9273 138.584 35.9273 138.84C35.9273 139.096 35.9326 139.304 35.9433 139.464C35.9753 140.157 36.1459 140.685 36.4553 141.048C36.7646 141.4 37.2019 141.576 37.7673 141.576ZM46.644 143.16C45.9933 143.16 45.428 143.016 44.948 142.728C44.4787 142.429 44.116 142.013 43.86 141.48C43.604 140.936 43.476 140.296 43.476 139.56V135.064C43.476 134.957 43.5133 134.867 43.588 134.792C43.6627 134.717 43.7533 134.68 43.86 134.68H45.268C45.3853 134.68 45.476 134.717 45.54 134.792C45.6147 134.867 45.652 134.957 45.652 135.064V139.464C45.652 140.787 46.2333 141.448 47.396 141.448C47.9507 141.448 48.388 141.272 48.708 140.92C49.0387 140.568 49.204 140.083 49.204 139.464V135.064C49.204 134.957 49.2413 134.867 49.316 134.792C49.3907 134.717 49.4813 134.68 49.588 134.68H50.996C51.1027 134.68 51.1933 134.717 51.268 134.792C51.3427 134.867 51.38 134.957 51.38 135.064V142.616C51.38 142.723 51.3427 142.813 51.268 142.888C51.1933 142.963 51.1027 143 50.996 143H49.7C49.5827 143 49.4867 142.963 49.412 142.888C49.348 142.813 49.316 142.723 49.316 142.616V141.96C49.028 142.333 48.6707 142.627 48.244 142.84C47.8173 143.053 47.284 143.16 46.644 143.16ZM53.8775 143C53.7708 143 53.6802 142.963 53.6055 142.888C53.5308 142.813 53.4935 142.723 53.4935 142.616V135.08C53.4935 134.963 53.5308 134.867 53.6055 134.792C53.6802 134.717 53.7708 134.68 53.8775 134.68H55.1735C55.2802 134.68 55.3708 134.717 55.4455 134.792C55.5308 134.867 55.5735 134.963 55.5735 135.08V135.736C55.8188 135.395 56.1335 135.133 56.5175 134.952C56.9122 134.771 57.3655 134.68 57.8775 134.68H58.5335C58.6508 134.68 58.7415 134.717 58.8055 134.792C58.8802 134.867 58.9175 134.957 58.9175 135.064V136.216C58.9175 136.323 58.8802 136.413 58.8055 136.488C58.7415 136.563 58.6508 136.6 58.5335 136.6H57.2855C56.7735 136.6 56.3735 136.744 56.0855 137.032C55.8082 137.32 55.6695 137.715 55.6695 138.216V142.616C55.6695 142.723 55.6322 142.813 55.5575 142.888C55.4828 142.963 55.3868 143 55.2695 143H53.8775ZM67.0779 143.16C66.3099 143.16 65.6325 143.016 65.0459 142.728C64.4699 142.44 64.0165 142.024 63.6859 141.48C63.3659 140.925 63.1899 140.259 63.1579 139.48C63.1472 139.32 63.1419 139.112 63.1419 138.856C63.1419 138.589 63.1472 138.371 63.1579 138.2C63.1899 137.421 63.3659 136.76 63.6859 136.216C64.0165 135.661 64.4699 135.24 65.0459 134.952C65.6325 134.664 66.3099 134.52 67.0779 134.52C67.7605 134.52 68.3419 134.616 68.8219 134.808C69.3019 135 69.6965 135.24 70.0059 135.528C70.3152 135.816 70.5445 136.12 70.6939 136.44C70.8539 136.749 70.9392 137.032 70.9499 137.288C70.9605 137.405 70.9232 137.501 70.8379 137.576C70.7632 137.64 70.6725 137.672 70.5659 137.672H69.1579C69.0512 137.672 68.9659 137.645 68.9019 137.592C68.8485 137.539 68.7952 137.459 68.7419 137.352C68.5819 136.925 68.3685 136.627 68.1019 136.456C67.8459 136.275 67.5152 136.184 67.1099 136.184C66.5765 136.184 66.1499 136.355 65.8299 136.696C65.5205 137.027 65.3552 137.555 65.3339 138.28C65.3125 138.685 65.3125 139.059 65.3339 139.4C65.3552 140.136 65.5205 140.669 65.8299 141C66.1499 141.331 66.5765 141.496 67.1099 141.496C67.5259 141.496 67.8619 141.411 68.1179 141.24C68.3739 141.059 68.5819 140.755 68.7419 140.328C68.7952 140.221 68.8485 140.141 68.9019 140.088C68.9659 140.035 69.0512 140.008 69.1579 140.008H70.5659C70.6725 140.008 70.7632 140.045 70.8379 140.12C70.9232 140.184 70.9605 140.275 70.9499 140.392C70.9392 140.584 70.8859 140.803 70.7899 141.048C70.7045 141.283 70.5605 141.528 70.3579 141.784C70.1659 142.029 69.9205 142.259 69.6219 142.472C69.3232 142.675 68.9605 142.84 68.5339 142.968C68.1179 143.096 67.6325 143.16 67.0779 143.16ZM76.2985 143.16C75.4452 143.16 74.7252 143.011 74.1385 142.712C73.5625 142.413 73.1198 141.992 72.8105 141.448C72.5118 140.904 72.3412 140.269 72.2985 139.544C72.2878 139.352 72.2825 139.117 72.2825 138.84C72.2825 138.563 72.2878 138.328 72.2985 138.136C72.3412 137.4 72.5172 136.765 72.8265 136.232C73.1465 135.688 73.5945 135.267 74.1705 134.968C74.7572 134.669 75.4665 134.52 76.2985 134.52C77.1305 134.52 77.8345 134.669 78.4105 134.968C78.9972 135.267 79.4452 135.688 79.7545 136.232C80.0745 136.765 80.2558 137.4 80.2985 138.136C80.3092 138.328 80.3145 138.563 80.3145 138.84C80.3145 139.117 80.3092 139.352 80.2985 139.544C80.2558 140.269 80.0798 140.904 79.7705 141.448C79.4718 141.992 79.0292 142.413 78.4425 142.712C77.8665 143.011 77.1518 143.16 76.2985 143.16ZM76.2985 141.576C76.8638 141.576 77.3012 141.4 77.6105 141.048C77.9198 140.685 78.0905 140.157 78.1225 139.464C78.1332 139.304 78.1385 139.096 78.1385 138.84C78.1385 138.584 78.1332 138.376 78.1225 138.216C78.0905 137.533 77.9198 137.011 77.6105 136.648C77.3012 136.285 76.8638 136.104 76.2985 136.104C75.7332 136.104 75.2958 136.285 74.9865 136.648C74.6772 137.011 74.5065 137.533 74.4745 138.216C74.4638 138.376 74.4585 138.584 74.4585 138.84C74.4585 139.096 74.4638 139.304 74.4745 139.464C74.5065 140.157 74.6772 140.685 74.9865 141.048C75.2958 141.4 75.7332 141.576 76.2985 141.576ZM82.4713 143C82.3646 143 82.2739 142.963 82.1993 142.888C82.1246 142.813 82.0872 142.723 82.0872 142.616V135.064C82.0872 134.957 82.1246 134.867 82.1993 134.792C82.2739 134.717 82.3646 134.68 82.4713 134.68H83.7193C83.8259 134.68 83.9166 134.717 83.9913 134.792C84.0659 134.867 84.1033 134.957 84.1033 135.064V135.608C84.3273 135.309 84.6259 135.059 84.9993 134.856C85.3833 134.643 85.8366 134.531 86.3593 134.52C87.5753 134.499 88.4233 134.973 88.9033 135.944C89.1486 135.517 89.5006 135.176 89.9593 134.92C90.4286 134.653 90.9459 134.52 91.5113 134.52C92.0659 134.52 92.5673 134.648 93.0153 134.904C93.4739 135.16 93.8313 135.549 94.0873 136.072C94.3539 136.584 94.4873 137.235 94.4873 138.024V142.616C94.4873 142.723 94.4499 142.813 94.3753 142.888C94.3006 142.963 94.2099 143 94.1033 143H92.7913C92.6846 143 92.5939 142.963 92.5193 142.888C92.4446 142.813 92.4073 142.723 92.4073 142.616V138.152C92.4073 137.672 92.3379 137.293 92.1993 137.016C92.0606 136.728 91.8739 136.525 91.6393 136.408C91.4046 136.291 91.1433 136.232 90.8553 136.232C90.6206 136.232 90.3859 136.291 90.1513 136.408C89.9166 136.525 89.7246 136.728 89.5753 137.016C89.4259 137.293 89.3513 137.672 89.3513 138.152V142.616C89.3513 142.723 89.3139 142.813 89.2393 142.888C89.1646 142.963 89.0739 143 88.9673 143H87.6553C87.5379 143 87.4419 142.963 87.3673 142.888C87.3033 142.813 87.2713 142.723 87.2713 142.616V138.152C87.2713 137.672 87.1966 137.293 87.0473 137.016C86.8979 136.728 86.7059 136.525 86.4713 136.408C86.2366 136.291 85.9859 136.232 85.7193 136.232C85.4739 136.232 85.2339 136.296 84.9993 136.424C84.7646 136.541 84.5726 136.739 84.4233 137.016C84.2739 137.293 84.1993 137.672 84.1993 138.152V142.616C84.1993 142.723 84.1619 142.813 84.0873 142.888C84.0126 142.963 83.9219 143 83.8153 143H82.4713ZM96.9248 146.04C96.8181 146.04 96.7274 146.003 96.6528 145.928C96.5781 145.853 96.5408 145.763 96.5408 145.656V135.064C96.5408 134.957 96.5781 134.867 96.6528 134.792C96.7274 134.717 96.8181 134.68 96.9248 134.68H98.1888C98.3061 134.68 98.3968 134.717 98.4608 134.792C98.5354 134.867 98.5728 134.957 98.5728 135.064V135.704C98.8288 135.363 99.1648 135.08 99.5807 134.856C99.9968 134.632 100.514 134.52 101.133 134.52C101.698 134.52 102.189 134.611 102.605 134.792C103.021 134.973 103.367 135.235 103.645 135.576C103.922 135.907 104.135 136.301 104.285 136.76C104.434 137.219 104.519 137.725 104.541 138.28C104.551 138.461 104.557 138.648 104.557 138.84C104.557 139.032 104.551 139.224 104.541 139.416C104.53 139.949 104.45 140.445 104.301 140.904C104.151 141.352 103.933 141.747 103.645 142.088C103.367 142.419 103.021 142.68 102.605 142.872C102.189 143.064 101.698 143.16 101.133 143.16C100.557 143.16 100.066 143.059 99.6608 142.856C99.2554 142.643 98.9248 142.365 98.6688 142.024V145.656C98.6688 145.763 98.6314 145.853 98.5568 145.928C98.4928 146.003 98.4021 146.04 98.2848 146.04H96.9248ZM100.541 141.448C100.999 141.448 101.357 141.352 101.613 141.16C101.869 140.957 102.05 140.696 102.157 140.376C102.274 140.056 102.343 139.704 102.365 139.32C102.386 139 102.386 138.68 102.365 138.36C102.343 137.976 102.274 137.624 102.157 137.304C102.05 136.984 101.869 136.728 101.613 136.536C101.357 136.333 100.999 136.232 100.541 136.232C100.103 136.232 99.7461 136.333 99.4688 136.536C99.2021 136.739 99.0048 137 98.8768 137.32C98.7594 137.629 98.6901 137.949 98.6688 138.28C98.6581 138.472 98.6528 138.675 98.6528 138.888C98.6528 139.101 98.6581 139.309 98.6688 139.512C98.6794 139.832 98.7541 140.141 98.8928 140.44C99.0314 140.728 99.2341 140.968 99.5008 141.16C99.7674 141.352 100.114 141.448 100.541 141.448ZM110.033 143.16C109.18 143.16 108.46 143.011 107.873 142.712C107.297 142.413 106.854 141.992 106.545 141.448C106.246 140.904 106.076 140.269 106.033 139.544C106.022 139.352 106.017 139.117 106.017 138.84C106.017 138.563 106.022 138.328 106.033 138.136C106.076 137.4 106.252 136.765 106.561 136.232C106.881 135.688 107.329 135.267 107.905 134.968C108.492 134.669 109.201 134.52 110.033 134.52C110.865 134.52 111.569 134.669 112.145 134.968C112.732 135.267 113.18 135.688 113.489 136.232C113.809 136.765 113.99 137.4 114.033 138.136C114.044 138.328 114.049 138.563 114.049 138.84C114.049 139.117 114.044 139.352 114.033 139.544C113.99 140.269 113.814 140.904 113.505 141.448C113.206 141.992 112.764 142.413 112.177 142.712C111.601 143.011 110.886 143.16 110.033 143.16ZM110.033 141.576C110.598 141.576 111.036 141.4 111.345 141.048C111.654 140.685 111.825 140.157 111.857 139.464C111.868 139.304 111.873 139.096 111.873 138.84C111.873 138.584 111.868 138.376 111.857 138.216C111.825 137.533 111.654 137.011 111.345 136.648C111.036 136.285 110.598 136.104 110.033 136.104C109.468 136.104 109.03 136.285 108.721 136.648C108.412 137.011 108.241 137.533 108.209 138.216C108.198 138.376 108.193 138.584 108.193 138.84C108.193 139.096 108.198 139.304 108.209 139.464C108.241 140.157 108.412 140.685 108.721 141.048C109.03 141.4 109.468 141.576 110.033 141.576ZM116.206 143C116.099 143 116.008 142.963 115.934 142.888C115.859 142.813 115.822 142.723 115.822 142.616V135.064C115.822 134.957 115.859 134.867 115.934 134.792C116.008 134.717 116.099 134.68 116.206 134.68H117.518C117.624 134.68 117.715 134.717 117.79 134.792C117.864 134.867 117.902 134.957 117.902 135.064V135.72C118.179 135.379 118.531 135.096 118.958 134.872C119.395 134.637 119.934 134.52 120.574 134.52C121.224 134.52 121.79 134.669 122.27 134.968C122.75 135.256 123.118 135.667 123.374 136.2C123.64 136.733 123.774 137.373 123.774 138.12V142.616C123.774 142.723 123.736 142.813 123.662 142.888C123.587 142.963 123.496 143 123.39 143H121.982C121.875 143 121.784 142.963 121.71 142.888C121.635 142.813 121.598 142.723 121.598 142.616V138.216C121.598 137.597 121.443 137.112 121.134 136.76C120.835 136.408 120.398 136.232 119.822 136.232C119.267 136.232 118.824 136.408 118.494 136.76C118.163 137.112 117.998 137.597 117.998 138.216V142.616C117.998 142.723 117.96 142.813 117.886 142.888C117.811 142.963 117.72 143 117.614 143H116.206ZM129.39 143.16C128.206 143.16 127.267 142.819 126.574 142.136C125.881 141.453 125.507 140.483 125.454 139.224C125.443 139.117 125.438 138.984 125.438 138.824C125.438 138.653 125.443 138.52 125.454 138.424C125.497 137.624 125.678 136.931 125.998 136.344C126.329 135.757 126.782 135.309 127.358 135C127.934 134.68 128.611 134.52 129.39 134.52C130.254 134.52 130.979 134.701 131.566 135.064C132.153 135.416 132.595 135.912 132.894 136.552C133.193 137.181 133.342 137.912 133.342 138.744V139.08C133.342 139.187 133.305 139.277 133.23 139.352C133.155 139.427 133.059 139.464 132.942 139.464H127.63C127.63 139.464 127.63 139.48 127.63 139.512C127.63 139.544 127.63 139.571 127.63 139.592C127.641 139.965 127.71 140.312 127.838 140.632C127.977 140.941 128.174 141.192 128.43 141.384C128.697 141.576 129.011 141.672 129.374 141.672C129.673 141.672 129.923 141.629 130.126 141.544C130.329 141.448 130.494 141.341 130.622 141.224C130.75 141.107 130.841 141.011 130.894 140.936C130.99 140.808 131.065 140.733 131.118 140.712C131.182 140.68 131.273 140.664 131.39 140.664H132.766C132.873 140.664 132.958 140.696 133.022 140.76C133.097 140.824 133.129 140.904 133.118 141C133.107 141.171 133.017 141.379 132.846 141.624C132.686 141.869 132.451 142.109 132.142 142.344C131.833 142.579 131.443 142.776 130.974 142.936C130.515 143.085 129.987 143.16 129.39 143.16ZM127.63 138.12H131.166V138.072C131.166 137.656 131.097 137.293 130.958 136.984C130.819 136.675 130.617 136.429 130.35 136.248C130.083 136.067 129.763 135.976 129.39 135.976C129.017 135.976 128.697 136.067 128.43 136.248C128.163 136.429 127.961 136.675 127.822 136.984C127.694 137.293 127.63 137.656 127.63 138.072V138.12ZM135.424 143C135.318 143 135.227 142.963 135.152 142.888C135.078 142.813 135.04 142.723 135.04 142.616V135.064C135.04 134.957 135.078 134.867 135.152 134.792C135.227 134.717 135.318 134.68 135.424 134.68H136.736C136.843 134.68 136.934 134.717 137.008 134.792C137.083 134.867 137.12 134.957 137.12 135.064V135.72C137.398 135.379 137.75 135.096 138.176 134.872C138.614 134.637 139.152 134.52 139.792 134.52C140.443 134.52 141.008 134.669 141.488 134.968C141.968 135.256 142.336 135.667 142.592 136.2C142.859 136.733 142.992 137.373 142.992 138.12V142.616C142.992 142.723 142.955 142.813 142.88 142.888C142.806 142.963 142.715 143 142.608 143H141.2C141.094 143 141.003 142.963 140.928 142.888C140.854 142.813 140.816 142.723 140.816 142.616V138.216C140.816 137.597 140.662 137.112 140.352 136.76C140.054 136.408 139.616 136.232 139.04 136.232C138.486 136.232 138.043 136.408 137.712 136.76C137.382 137.112 137.216 137.597 137.216 138.216V142.616C137.216 142.723 137.179 142.813 137.104 142.888C137.03 142.963 136.939 143 136.832 143H135.424ZM148.691 143C148.051 143 147.512 142.888 147.075 142.664C146.638 142.44 146.312 142.109 146.099 141.672C145.886 141.224 145.779 140.669 145.779 140.008V136.376H144.515C144.408 136.376 144.318 136.339 144.243 136.264C144.168 136.189 144.131 136.099 144.131 135.992V135.064C144.131 134.957 144.168 134.867 144.243 134.792C144.318 134.717 144.408 134.68 144.515 134.68H145.779V132.024C145.779 131.917 145.811 131.827 145.875 131.752C145.95 131.677 146.046 131.64 146.163 131.64H147.459C147.566 131.64 147.656 131.677 147.731 131.752C147.806 131.827 147.843 131.917 147.843 132.024V134.68H149.843C149.95 134.68 150.04 134.717 150.115 134.792C150.19 134.867 150.227 134.957 150.227 135.064V135.992C150.227 136.099 150.19 136.189 150.115 136.264C150.04 136.339 149.95 136.376 149.843 136.376H147.843V139.848C147.843 140.285 147.918 140.627 148.067 140.872C148.227 141.117 148.499 141.24 148.883 141.24H149.987C150.094 141.24 150.184 141.277 150.259 141.352C150.334 141.427 150.371 141.517 150.371 141.624V142.616C150.371 142.723 150.334 142.813 150.259 142.888C150.184 142.963 150.094 143 149.987 143H148.691ZM154.942 143.16C154.302 143.16 153.753 143.085 153.294 142.936C152.846 142.787 152.478 142.6 152.19 142.376C151.902 142.152 151.689 141.928 151.55 141.704C151.412 141.48 151.337 141.293 151.326 141.144C151.316 141.027 151.348 140.936 151.422 140.872C151.508 140.797 151.598 140.76 151.694 140.76H152.958C153.001 140.76 153.038 140.765 153.07 140.776C153.102 140.787 153.145 140.819 153.198 140.872C153.337 140.989 153.481 141.112 153.63 141.24C153.79 141.368 153.977 141.48 154.19 141.576C154.404 141.661 154.67 141.704 154.99 141.704C155.406 141.704 155.753 141.624 156.03 141.464C156.318 141.293 156.462 141.053 156.462 140.744C156.462 140.52 156.398 140.339 156.27 140.2C156.153 140.061 155.929 139.939 155.598 139.832C155.268 139.715 154.798 139.592 154.19 139.464C153.593 139.325 153.097 139.149 152.702 138.936C152.308 138.723 152.014 138.456 151.822 138.136C151.63 137.816 151.534 137.443 151.534 137.016C151.534 136.6 151.657 136.205 151.902 135.832C152.158 135.448 152.532 135.133 153.022 134.888C153.524 134.643 154.142 134.52 154.878 134.52C155.454 134.52 155.956 134.595 156.382 134.744C156.809 134.883 157.161 135.059 157.438 135.272C157.726 135.485 157.945 135.704 158.094 135.928C158.244 136.141 158.324 136.328 158.334 136.488C158.345 136.605 158.313 136.701 158.238 136.776C158.164 136.84 158.078 136.872 157.982 136.872H156.798C156.745 136.872 156.697 136.861 156.654 136.84C156.612 136.819 156.569 136.792 156.526 136.76C156.409 136.653 156.281 136.541 156.142 136.424C156.004 136.307 155.833 136.205 155.63 136.12C155.438 136.024 155.182 135.976 154.862 135.976C154.457 135.976 154.148 136.067 153.934 136.248C153.721 136.419 153.614 136.637 153.614 136.904C153.614 137.085 153.662 137.245 153.758 137.384C153.865 137.512 154.073 137.635 154.382 137.752C154.692 137.869 155.161 137.992 155.79 138.12C156.505 138.248 157.07 138.44 157.486 138.696C157.913 138.941 158.212 139.229 158.382 139.56C158.564 139.88 158.654 140.237 158.654 140.632C158.654 141.112 158.51 141.544 158.222 141.928C157.945 142.312 157.529 142.616 156.974 142.84C156.43 143.053 155.753 143.16 154.942 143.16ZM166.378 143.16C165.824 143.16 165.322 143.053 164.874 142.84C164.426 142.616 164.069 142.323 163.802 141.96C163.546 141.587 163.418 141.171 163.418 140.712C163.418 139.965 163.717 139.373 164.314 138.936C164.922 138.488 165.722 138.189 166.714 138.04L168.906 137.72V137.384C168.906 136.936 168.794 136.589 168.57 136.344C168.346 136.099 167.962 135.976 167.418 135.976C167.034 135.976 166.72 136.056 166.474 136.216C166.24 136.365 166.064 136.568 165.946 136.824C165.861 136.963 165.738 137.032 165.578 137.032H164.314C164.197 137.032 164.106 137 164.042 136.936C163.989 136.872 163.962 136.787 163.962 136.68C163.973 136.509 164.042 136.301 164.17 136.056C164.298 135.811 164.501 135.576 164.778 135.352C165.056 135.117 165.413 134.92 165.85 134.76C166.288 134.6 166.816 134.52 167.434 134.52C168.106 134.52 168.672 134.605 169.13 134.776C169.6 134.936 169.973 135.155 170.25 135.432C170.528 135.709 170.73 136.035 170.858 136.408C170.986 136.781 171.05 137.176 171.05 137.592V142.616C171.05 142.723 171.013 142.813 170.938 142.888C170.864 142.963 170.773 143 170.666 143H169.37C169.253 143 169.157 142.963 169.082 142.888C169.018 142.813 168.986 142.723 168.986 142.616V141.992C168.848 142.195 168.661 142.387 168.426 142.568C168.192 142.739 167.904 142.883 167.562 143C167.232 143.107 166.837 143.16 166.378 143.16ZM166.922 141.64C167.296 141.64 167.632 141.56 167.93 141.4C168.24 141.24 168.48 140.995 168.65 140.664C168.832 140.323 168.922 139.896 168.922 139.384V139.048L167.322 139.304C166.693 139.4 166.224 139.555 165.914 139.768C165.605 139.981 165.45 140.243 165.45 140.552C165.45 140.787 165.52 140.989 165.658 141.16C165.808 141.32 165.994 141.443 166.218 141.528C166.442 141.603 166.677 141.64 166.922 141.64ZM173.487 143C173.38 143 173.29 142.963 173.215 142.888C173.14 142.813 173.103 142.723 173.103 142.616V135.08C173.103 134.963 173.14 134.867 173.215 134.792C173.29 134.717 173.38 134.68 173.487 134.68H174.783C174.89 134.68 174.98 134.717 175.055 134.792C175.14 134.867 175.183 134.963 175.183 135.08V135.736C175.428 135.395 175.743 135.133 176.127 134.952C176.522 134.771 176.975 134.68 177.487 134.68H178.143C178.26 134.68 178.351 134.717 178.415 134.792C178.49 134.867 178.527 134.957 178.527 135.064V136.216C178.527 136.323 178.49 136.413 178.415 136.488C178.351 136.563 178.26 136.6 178.143 136.6H176.895C176.383 136.6 175.983 136.744 175.695 137.032C175.418 137.32 175.279 137.715 175.279 138.216V142.616C175.279 142.723 175.242 142.813 175.167 142.888C175.092 142.963 174.996 143 174.879 143H173.487ZM183.249 143.16C182.065 143.16 181.127 142.819 180.433 142.136C179.74 141.453 179.367 140.483 179.313 139.224C179.303 139.117 179.297 138.984 179.297 138.824C179.297 138.653 179.303 138.52 179.313 138.424C179.356 137.624 179.537 136.931 179.857 136.344C180.188 135.757 180.641 135.309 181.217 135C181.793 134.68 182.471 134.52 183.249 134.52C184.113 134.52 184.839 134.701 185.425 135.064C186.012 135.416 186.455 135.912 186.753 136.552C187.052 137.181 187.201 137.912 187.201 138.744V139.08C187.201 139.187 187.164 139.277 187.089 139.352C187.015 139.427 186.919 139.464 186.801 139.464H181.489C181.489 139.464 181.489 139.48 181.489 139.512C181.489 139.544 181.489 139.571 181.489 139.592C181.5 139.965 181.569 140.312 181.697 140.632C181.836 140.941 182.033 141.192 182.289 141.384C182.556 141.576 182.871 141.672 183.233 141.672C183.532 141.672 183.783 141.629 183.985 141.544C184.188 141.448 184.353 141.341 184.481 141.224C184.609 141.107 184.7 141.011 184.753 140.936C184.849 140.808 184.924 140.733 184.977 140.712C185.041 140.68 185.132 140.664 185.249 140.664H186.625C186.732 140.664 186.817 140.696 186.881 140.76C186.956 140.824 186.988 140.904 186.977 141C186.967 141.171 186.876 141.379 186.705 141.624C186.545 141.869 186.311 142.109 186.001 142.344C185.692 142.579 185.303 142.776 184.833 142.936C184.375 143.085 183.847 143.16 183.249 143.16ZM181.489 138.12H185.025V138.072C185.025 137.656 184.956 137.293 184.817 136.984C184.679 136.675 184.476 136.429 184.209 136.248C183.943 136.067 183.623 135.976 183.249 135.976C182.876 135.976 182.556 136.067 182.289 136.248C182.023 136.429 181.82 136.675 181.681 136.984C181.553 137.293 181.489 137.656 181.489 138.072V138.12ZM195.708 143.16C195.068 143.16 194.519 143.085 194.06 142.936C193.612 142.787 193.244 142.6 192.956 142.376C192.668 142.152 192.455 141.928 192.316 141.704C192.177 141.48 192.103 141.293 192.092 141.144C192.081 141.027 192.113 140.936 192.188 140.872C192.273 140.797 192.364 140.76 192.46 140.76H193.724C193.767 140.76 193.804 140.765 193.836 140.776C193.868 140.787 193.911 140.819 193.964 140.872C194.103 140.989 194.247 141.112 194.396 141.24C194.556 141.368 194.743 141.48 194.956 141.576C195.169 141.661 195.436 141.704 195.756 141.704C196.172 141.704 196.519 141.624 196.796 141.464C197.084 141.293 197.228 141.053 197.228 140.744C197.228 140.52 197.164 140.339 197.036 140.2C196.919 140.061 196.695 139.939 196.364 139.832C196.033 139.715 195.564 139.592 194.956 139.464C194.359 139.325 193.863 139.149 193.468 138.936C193.073 138.723 192.78 138.456 192.588 138.136C192.396 137.816 192.3 137.443 192.3 137.016C192.3 136.6 192.423 136.205 192.668 135.832C192.924 135.448 193.297 135.133 193.788 134.888C194.289 134.643 194.908 134.52 195.644 134.52C196.22 134.52 196.721 134.595 197.148 134.744C197.575 134.883 197.927 135.059 198.204 135.272C198.492 135.485 198.711 135.704 198.86 135.928C199.009 136.141 199.089 136.328 199.1 136.488C199.111 136.605 199.079 136.701 199.004 136.776C198.929 136.84 198.844 136.872 198.748 136.872H197.564C197.511 136.872 197.463 136.861 197.42 136.84C197.377 136.819 197.335 136.792 197.292 136.76C197.175 136.653 197.047 136.541 196.908 136.424C196.769 136.307 196.599 136.205 196.396 136.12C196.204 136.024 195.948 135.976 195.628 135.976C195.223 135.976 194.913 136.067 194.7 136.248C194.487 136.419 194.38 136.637 194.38 136.904C194.38 137.085 194.428 137.245 194.524 137.384C194.631 137.512 194.839 137.635 195.148 137.752C195.457 137.869 195.927 137.992 196.556 138.12C197.271 138.248 197.836 138.44 198.252 138.696C198.679 138.941 198.977 139.229 199.148 139.56C199.329 139.88 199.42 140.237 199.42 140.632C199.42 141.112 199.276 141.544 198.988 141.928C198.711 142.312 198.295 142.616 197.74 142.84C197.196 143.053 196.519 143.16 195.708 143.16ZM201.472 143C201.365 143 201.274 142.963 201.2 142.888C201.125 142.813 201.088 142.723 201.088 142.616V132.024C201.088 131.917 201.125 131.827 201.2 131.752C201.274 131.677 201.365 131.64 201.472 131.64H202.8C202.906 131.64 202.997 131.677 203.072 131.752C203.146 131.827 203.184 131.917 203.184 132.024V142.616C203.184 142.723 203.146 142.813 203.072 142.888C202.997 142.963 202.906 143 202.8 143H201.472ZM208.89 143.16C207.706 143.16 206.767 142.819 206.074 142.136C205.381 141.453 205.007 140.483 204.954 139.224C204.943 139.117 204.938 138.984 204.938 138.824C204.938 138.653 204.943 138.52 204.954 138.424C204.997 137.624 205.178 136.931 205.498 136.344C205.829 135.757 206.282 135.309 206.858 135C207.434 134.68 208.111 134.52 208.89 134.52C209.754 134.52 210.479 134.701 211.066 135.064C211.653 135.416 212.095 135.912 212.394 136.552C212.693 137.181 212.842 137.912 212.842 138.744V139.08C212.842 139.187 212.805 139.277 212.73 139.352C212.655 139.427 212.559 139.464 212.442 139.464H207.13C207.13 139.464 207.13 139.48 207.13 139.512C207.13 139.544 207.13 139.571 207.13 139.592C207.141 139.965 207.21 140.312 207.338 140.632C207.477 140.941 207.674 141.192 207.93 141.384C208.197 141.576 208.511 141.672 208.874 141.672C209.173 141.672 209.423 141.629 209.626 141.544C209.829 141.448 209.994 141.341 210.122 141.224C210.25 141.107 210.341 141.011 210.394 140.936C210.49 140.808 210.565 140.733 210.618 140.712C210.682 140.68 210.773 140.664 210.89 140.664H212.266C212.373 140.664 212.458 140.696 212.522 140.76C212.597 140.824 212.629 140.904 212.618 141C212.607 141.171 212.517 141.379 212.346 141.624C212.186 141.869 211.951 142.109 211.642 142.344C211.333 142.579 210.943 142.776 210.474 142.936C210.015 143.085 209.487 143.16 208.89 143.16ZM207.13 138.12H210.666V138.072C210.666 137.656 210.597 137.293 210.458 136.984C210.319 136.675 210.117 136.429 209.85 136.248C209.583 136.067 209.263 135.976 208.89 135.976C208.517 135.976 208.197 136.067 207.93 136.248C207.663 136.429 207.461 136.675 207.322 136.984C207.194 137.293 207.13 137.656 207.13 138.072V138.12ZM218.124 143.16C216.94 143.16 216.002 142.819 215.308 142.136C214.615 141.453 214.242 140.483 214.188 139.224C214.178 139.117 214.172 138.984 214.172 138.824C214.172 138.653 214.178 138.52 214.188 138.424C214.231 137.624 214.412 136.931 214.732 136.344C215.063 135.757 215.516 135.309 216.092 135C216.668 134.68 217.346 134.52 218.124 134.52C218.988 134.52 219.714 134.701 220.3 135.064C220.887 135.416 221.33 135.912 221.628 136.552C221.927 137.181 222.076 137.912 222.076 138.744V139.08C222.076 139.187 222.039 139.277 221.964 139.352C221.89 139.427 221.794 139.464 221.676 139.464H216.364C216.364 139.464 216.364 139.48 216.364 139.512C216.364 139.544 216.364 139.571 216.364 139.592C216.375 139.965 216.444 140.312 216.572 140.632C216.711 140.941 216.908 141.192 217.164 141.384C217.431 141.576 217.746 141.672 218.108 141.672C218.407 141.672 218.658 141.629 218.86 141.544C219.063 141.448 219.228 141.341 219.356 141.224C219.484 141.107 219.575 141.011 219.628 140.936C219.724 140.808 219.799 140.733 219.852 140.712C219.916 140.68 220.007 140.664 220.124 140.664H221.5C221.607 140.664 221.692 140.696 221.756 140.76C221.831 140.824 221.863 140.904 221.852 141C221.842 141.171 221.751 141.379 221.58 141.624C221.42 141.869 221.186 142.109 220.876 142.344C220.567 142.579 220.178 142.776 219.708 142.936C219.25 143.085 218.722 143.16 218.124 143.16ZM216.364 138.12H219.9V138.072C219.9 137.656 219.831 137.293 219.692 136.984C219.554 136.675 219.351 136.429 219.084 136.248C218.818 136.067 218.498 135.976 218.124 135.976C217.751 135.976 217.431 136.067 217.164 136.248C216.898 136.429 216.695 136.675 216.556 136.984C216.428 137.293 216.364 137.656 216.364 138.072V138.12ZM224.175 146.04C224.068 146.04 223.977 146.003 223.903 145.928C223.828 145.853 223.791 145.763 223.791 145.656V135.064C223.791 134.957 223.828 134.867 223.903 134.792C223.977 134.717 224.068 134.68 224.175 134.68H225.439C225.556 134.68 225.647 134.717 225.711 134.792C225.785 134.867 225.823 134.957 225.823 135.064V135.704C226.079 135.363 226.415 135.08 226.831 134.856C227.247 134.632 227.764 134.52 228.383 134.52C228.948 134.52 229.439 134.611 229.855 134.792C230.271 134.973 230.617 135.235 230.895 135.576C231.172 135.907 231.385 136.301 231.535 136.76C231.684 137.219 231.769 137.725 231.791 138.28C231.801 138.461 231.807 138.648 231.807 138.84C231.807 139.032 231.801 139.224 231.791 139.416C231.78 139.949 231.7 140.445 231.551 140.904C231.401 141.352 231.183 141.747 230.895 142.088C230.617 142.419 230.271 142.68 229.855 142.872C229.439 143.064 228.948 143.16 228.383 143.16C227.807 143.16 227.316 143.059 226.911 142.856C226.505 142.643 226.175 142.365 225.919 142.024V145.656C225.919 145.763 225.881 145.853 225.807 145.928C225.743 146.003 225.652 146.04 225.535 146.04H224.175ZM227.791 141.448C228.249 141.448 228.607 141.352 228.863 141.16C229.119 140.957 229.3 140.696 229.407 140.376C229.524 140.056 229.593 139.704 229.615 139.32C229.636 139 229.636 138.68 229.615 138.36C229.593 137.976 229.524 137.624 229.407 137.304C229.3 136.984 229.119 136.728 228.863 136.536C228.607 136.333 228.249 136.232 227.791 136.232C227.353 136.232 226.996 136.333 226.719 136.536C226.452 136.739 226.255 137 226.127 137.32C226.009 137.629 225.94 137.949 225.919 138.28C225.908 138.472 225.903 138.675 225.903 138.888C225.903 139.101 225.908 139.309 225.919 139.512C225.929 139.832 226.004 140.141 226.143 140.44C226.281 140.728 226.484 140.968 226.751 141.16C227.017 141.352 227.364 141.448 227.791 141.448ZM233.987 143C233.88 143 233.79 142.963 233.715 142.888C233.64 142.813 233.603 142.723 233.603 142.616V135.064C233.603 134.957 233.64 134.867 233.715 134.792C233.79 134.717 233.88 134.68 233.987 134.68H235.315C235.432 134.68 235.523 134.717 235.587 134.792C235.662 134.867 235.699 134.957 235.699 135.064V142.616C235.699 142.723 235.662 142.813 235.587 142.888C235.523 142.963 235.432 143 235.315 143H233.987ZM233.923 133.304C233.806 133.304 233.71 133.272 233.635 133.208C233.571 133.133 233.539 133.037 233.539 132.92V131.768C233.539 131.661 233.571 131.571 233.635 131.496C233.71 131.421 233.806 131.384 233.923 131.384H235.379C235.496 131.384 235.592 131.421 235.667 131.496C235.742 131.571 235.779 131.661 235.779 131.768V132.92C235.779 133.037 235.742 133.133 235.667 133.208C235.592 133.272 235.496 133.304 235.379 133.304H233.923ZM238.534 143C238.427 143 238.336 142.963 238.262 142.888C238.187 142.813 238.15 142.723 238.15 142.616V135.064C238.15 134.957 238.187 134.867 238.262 134.792C238.336 134.717 238.427 134.68 238.534 134.68H239.846C239.952 134.68 240.043 134.717 240.118 134.792C240.192 134.867 240.23 134.957 240.23 135.064V135.72C240.507 135.379 240.859 135.096 241.286 134.872C241.723 134.637 242.262 134.52 242.902 134.52C243.552 134.52 244.118 134.669 244.598 134.968C245.078 135.256 245.446 135.667 245.702 136.2C245.968 136.733 246.102 137.373 246.102 138.12V142.616C246.102 142.723 246.064 142.813 245.99 142.888C245.915 142.963 245.824 143 245.718 143H244.31C244.203 143 244.112 142.963 244.038 142.888C243.963 142.813 243.926 142.723 243.926 142.616V138.216C243.926 137.597 243.771 137.112 243.462 136.76C243.163 136.408 242.726 136.232 242.15 136.232C241.595 136.232 241.152 136.408 240.822 136.76C240.491 137.112 240.326 137.597 240.326 138.216V142.616C240.326 142.723 240.288 142.813 240.214 142.888C240.139 142.963 240.048 143 239.942 143H238.534ZM251.894 146.52C251.115 146.52 250.475 146.419 249.974 146.216C249.473 146.013 249.078 145.768 248.79 145.48C248.502 145.192 248.294 144.904 248.166 144.616C248.049 144.339 247.985 144.12 247.974 143.96C247.963 143.853 247.995 143.757 248.07 143.672C248.155 143.597 248.251 143.56 248.358 143.56H249.75C249.857 143.56 249.942 143.581 250.006 143.624C250.07 143.677 250.123 143.768 250.166 143.896C250.23 144.035 250.315 144.184 250.422 144.344C250.529 144.504 250.689 144.637 250.902 144.744C251.126 144.861 251.43 144.92 251.814 144.92C252.219 144.92 252.561 144.861 252.838 144.744C253.115 144.627 253.323 144.429 253.462 144.152C253.611 143.875 253.686 143.491 253.686 143V141.912C253.43 142.221 253.099 142.472 252.694 142.664C252.299 142.856 251.809 142.952 251.222 142.952C250.646 142.952 250.15 142.861 249.734 142.68C249.318 142.488 248.971 142.227 248.694 141.896C248.417 141.555 248.203 141.155 248.054 140.696C247.915 140.237 247.835 139.731 247.814 139.176C247.803 138.888 247.803 138.6 247.814 138.312C247.835 137.779 247.915 137.283 248.054 136.824C248.193 136.365 248.401 135.965 248.678 135.624C248.966 135.272 249.318 135 249.734 134.808C250.15 134.616 250.646 134.52 251.222 134.52C251.83 134.52 252.342 134.637 252.758 134.872C253.174 135.096 253.515 135.379 253.782 135.72V135.08C253.782 134.963 253.819 134.867 253.894 134.792C253.969 134.717 254.059 134.68 254.166 134.68H255.462C255.569 134.68 255.659 134.717 255.734 134.792C255.809 134.867 255.846 134.963 255.846 135.08L255.862 142.792C255.862 143.56 255.718 144.221 255.43 144.776C255.142 145.331 254.705 145.757 254.118 146.056C253.542 146.365 252.801 146.52 251.894 146.52ZM251.814 141.256C252.251 141.256 252.603 141.16 252.87 140.968C253.137 140.776 253.334 140.525 253.462 140.216C253.59 139.907 253.665 139.592 253.686 139.272C253.697 139.133 253.702 138.957 253.702 138.744C253.702 138.531 253.697 138.36 253.686 138.232C253.665 137.901 253.59 137.587 253.462 137.288C253.334 136.979 253.137 136.728 252.87 136.536C252.603 136.333 252.251 136.232 251.814 136.232C251.377 136.232 251.025 136.333 250.758 136.536C250.491 136.728 250.299 136.984 250.182 137.304C250.075 137.624 250.011 137.976 249.99 138.36C249.969 138.616 249.969 138.877 249.99 139.144C250.011 139.517 250.075 139.869 250.182 140.2C250.299 140.52 250.491 140.776 250.758 140.968C251.025 141.16 251.377 141.256 251.814 141.256ZM258.426 139.896C258.319 139.896 258.228 139.864 258.154 139.8C258.079 139.725 258.042 139.629 258.042 139.512V132.184C258.042 132.077 258.079 131.987 258.154 131.912C258.228 131.837 258.319 131.8 258.426 131.8H259.722C259.839 131.8 259.93 131.837 259.994 131.912C260.068 131.987 260.106 132.077 260.106 132.184V139.512C260.106 139.629 260.068 139.725 259.994 139.8C259.93 139.864 259.839 139.896 259.722 139.896H258.426ZM258.33 143C258.212 143 258.116 142.963 258.042 142.888C257.978 142.813 257.946 142.723 257.946 142.616V141.128C257.946 141.011 257.978 140.915 258.042 140.84C258.116 140.765 258.212 140.728 258.33 140.728H259.818C259.935 140.728 260.031 140.765 260.106 140.84C260.18 140.915 260.218 141.011 260.218 141.128V142.616C260.218 142.723 260.18 142.813 260.106 142.888C260.031 142.963 259.935 143 259.818 143H258.33Z" fill="#888888"/>
<path d="M103.017 171.14C102.159 171.14 101.445 170.981 100.875 170.664C100.315 170.347 99.8908 169.903 99.6015 169.334C99.3122 168.765 99.1535 168.102 99.1255 167.346C99.1162 166.963 99.1115 166.553 99.1115 166.114C99.1115 165.675 99.1162 165.255 99.1255 164.854C99.1535 164.098 99.3122 163.435 99.6015 162.866C99.8908 162.297 100.315 161.853 100.875 161.536C101.445 161.219 102.159 161.06 103.017 161.06C103.661 161.06 104.226 161.149 104.711 161.326C105.197 161.503 105.598 161.741 105.915 162.04C106.242 162.339 106.489 162.675 106.657 163.048C106.825 163.412 106.919 163.79 106.937 164.182C106.947 164.266 106.919 164.336 106.853 164.392C106.797 164.448 106.727 164.476 106.643 164.476H105.873C105.789 164.476 105.715 164.453 105.649 164.406C105.593 164.359 105.551 164.275 105.523 164.154C105.365 163.426 105.066 162.927 104.627 162.656C104.198 162.385 103.657 162.25 103.003 162.25C102.257 162.25 101.664 162.465 101.225 162.894C100.787 163.314 100.549 163.991 100.511 164.924C100.483 165.689 100.483 166.473 100.511 167.276C100.549 168.209 100.787 168.891 101.225 169.32C101.664 169.74 102.257 169.95 103.003 169.95C103.657 169.95 104.198 169.815 104.627 169.544C105.066 169.273 105.365 168.774 105.523 168.046C105.551 167.925 105.593 167.841 105.649 167.794C105.715 167.747 105.789 167.724 105.873 167.724H106.643C106.727 167.724 106.797 167.752 106.853 167.808C106.919 167.864 106.947 167.934 106.937 168.018C106.919 168.41 106.825 168.793 106.657 169.166C106.489 169.53 106.242 169.861 105.915 170.16C105.598 170.459 105.197 170.697 104.711 170.874C104.226 171.051 103.661 171.14 103.017 171.14ZM108.968 171C108.874 171 108.795 170.972 108.73 170.916C108.674 170.851 108.646 170.771 108.646 170.678V161.382C108.646 161.289 108.674 161.214 108.73 161.158C108.795 161.093 108.874 161.06 108.968 161.06H109.626C109.728 161.06 109.808 161.093 109.864 161.158C109.92 161.214 109.948 161.289 109.948 161.382V170.678C109.948 170.771 109.92 170.851 109.864 170.916C109.808 170.972 109.728 171 109.626 171H108.968ZM112.495 171C112.401 171 112.322 170.972 112.257 170.916C112.201 170.851 112.173 170.771 112.173 170.678V164.042C112.173 163.949 112.201 163.874 112.257 163.818C112.322 163.753 112.401 163.72 112.495 163.72H113.167C113.26 163.72 113.335 163.753 113.391 163.818C113.447 163.874 113.475 163.949 113.475 164.042V170.678C113.475 170.771 113.447 170.851 113.391 170.916C113.335 170.972 113.26 171 113.167 171H112.495ZM112.383 162.362C112.289 162.362 112.21 162.334 112.145 162.278C112.089 162.213 112.061 162.133 112.061 162.04V161.284C112.061 161.191 112.089 161.116 112.145 161.06C112.21 160.995 112.289 160.962 112.383 160.962H113.265C113.358 160.962 113.433 160.995 113.489 161.06C113.554 161.116 113.587 161.191 113.587 161.284V162.04C113.587 162.133 113.554 162.213 113.489 162.278C113.433 162.334 113.358 162.362 113.265 162.362H112.383ZM118.531 171.14C117.868 171.14 117.294 171.014 116.809 170.762C116.333 170.501 115.964 170.132 115.703 169.656C115.441 169.171 115.301 168.592 115.283 167.92C115.273 167.78 115.269 167.593 115.269 167.36C115.269 167.127 115.273 166.94 115.283 166.8C115.301 166.128 115.441 165.554 115.703 165.078C115.964 164.593 116.333 164.224 116.809 163.972C117.294 163.711 117.868 163.58 118.531 163.58C119.072 163.58 119.534 163.655 119.917 163.804C120.309 163.953 120.631 164.145 120.883 164.378C121.135 164.611 121.321 164.863 121.443 165.134C121.573 165.405 121.643 165.661 121.653 165.904C121.662 165.997 121.634 166.072 121.569 166.128C121.503 166.184 121.424 166.212 121.331 166.212H120.659C120.565 166.212 120.495 166.193 120.449 166.156C120.402 166.109 120.355 166.035 120.309 165.932C120.141 165.475 119.912 165.153 119.623 164.966C119.333 164.779 118.974 164.686 118.545 164.686C117.985 164.686 117.527 164.859 117.173 165.204C116.827 165.549 116.641 166.105 116.613 166.87C116.603 167.206 116.603 167.533 116.613 167.85C116.641 168.625 116.827 169.185 117.173 169.53C117.527 169.866 117.985 170.034 118.545 170.034C118.974 170.034 119.333 169.941 119.623 169.754C119.912 169.567 120.141 169.245 120.309 168.788C120.355 168.685 120.402 168.615 120.449 168.578C120.495 168.531 120.565 168.508 120.659 168.508H121.331C121.424 168.508 121.503 168.536 121.569 168.592C121.634 168.648 121.662 168.723 121.653 168.816C121.643 169.012 121.601 169.213 121.527 169.418C121.452 169.623 121.331 169.833 121.163 170.048C121.004 170.253 120.803 170.44 120.561 170.608C120.318 170.767 120.024 170.897 119.679 171C119.343 171.093 118.96 171.14 118.531 171.14ZM123.651 171C123.558 171 123.479 170.972 123.413 170.916C123.357 170.851 123.329 170.771 123.329 170.678V161.382C123.329 161.289 123.357 161.214 123.413 161.158C123.479 161.093 123.558 161.06 123.651 161.06H124.309C124.403 161.06 124.477 161.093 124.533 161.158C124.599 161.214 124.631 161.289 124.631 161.382V166.254L127.389 163.958C127.501 163.865 127.585 163.804 127.641 163.776C127.707 163.739 127.809 163.72 127.949 163.72H128.691C128.775 163.72 128.845 163.748 128.901 163.804C128.957 163.86 128.985 163.93 128.985 164.014C128.985 164.051 128.971 164.093 128.943 164.14C128.925 164.187 128.883 164.233 128.817 164.28L125.583 166.968L129.167 170.454C129.279 170.547 129.335 170.631 129.335 170.706C129.335 170.79 129.307 170.86 129.251 170.916C129.195 170.972 129.125 171 129.041 171H128.313C128.173 171 128.071 170.986 128.005 170.958C127.94 170.921 127.856 170.855 127.753 170.762L124.631 167.78V170.678C124.631 170.771 124.599 170.851 124.533 170.916C124.477 170.972 124.403 171 124.309 171H123.651ZM136.811 171.14C136.102 171.14 135.509 171.005 135.033 170.734C134.557 170.463 134.193 170.09 133.941 169.614C133.689 169.129 133.549 168.578 133.521 167.962C133.512 167.803 133.507 167.603 133.507 167.36C133.507 167.108 133.512 166.907 133.521 166.758C133.549 166.133 133.689 165.582 133.941 165.106C134.202 164.63 134.571 164.257 135.047 163.986C135.523 163.715 136.111 163.58 136.811 163.58C137.511 163.58 138.099 163.715 138.575 163.986C139.051 164.257 139.415 164.63 139.667 165.106C139.928 165.582 140.073 166.133 140.101 166.758C140.11 166.907 140.115 167.108 140.115 167.36C140.115 167.603 140.11 167.803 140.101 167.962C140.073 168.578 139.933 169.129 139.681 169.614C139.429 170.09 139.065 170.463 138.589 170.734C138.113 171.005 137.52 171.14 136.811 171.14ZM136.811 170.062C137.39 170.062 137.852 169.88 138.197 169.516C138.542 169.143 138.729 168.601 138.757 167.892C138.766 167.752 138.771 167.575 138.771 167.36C138.771 167.145 138.766 166.968 138.757 166.828C138.729 166.119 138.542 165.582 138.197 165.218C137.852 164.845 137.39 164.658 136.811 164.658C136.232 164.658 135.766 164.845 135.411 165.218C135.066 165.582 134.884 166.119 134.865 166.828C134.856 166.968 134.851 167.145 134.851 167.36C134.851 167.575 134.856 167.752 134.865 167.892C134.884 168.601 135.066 169.143 135.411 169.516C135.766 169.88 136.232 170.062 136.811 170.062ZM142.19 171C142.097 171 142.017 170.972 141.952 170.916C141.896 170.851 141.868 170.771 141.868 170.678V164.042C141.868 163.949 141.896 163.874 141.952 163.818C142.017 163.753 142.097 163.72 142.19 163.72H142.848C142.941 163.72 143.016 163.753 143.072 163.818C143.137 163.874 143.17 163.949 143.17 164.042V164.658C143.413 164.341 143.716 164.084 144.08 163.888C144.453 163.683 144.929 163.58 145.508 163.58C146.115 163.58 146.628 163.715 147.048 163.986C147.477 164.247 147.799 164.616 148.014 165.092C148.229 165.559 148.336 166.105 148.336 166.73V170.678C148.336 170.771 148.308 170.851 148.252 170.916C148.196 170.972 148.121 171 148.028 171H147.328C147.235 171 147.155 170.972 147.09 170.916C147.034 170.851 147.006 170.771 147.006 170.678V166.8C147.006 166.147 146.847 165.638 146.53 165.274C146.213 164.901 145.746 164.714 145.13 164.714C144.551 164.714 144.085 164.901 143.73 165.274C143.385 165.638 143.212 166.147 143.212 166.8V170.678C143.212 170.771 143.179 170.851 143.114 170.916C143.058 170.972 142.983 171 142.89 171H142.19ZM156.331 171C155.808 171 155.384 170.902 155.057 170.706C154.73 170.501 154.492 170.216 154.343 169.852C154.194 169.479 154.119 169.04 154.119 168.536V164.84H153.027C152.934 164.84 152.854 164.812 152.789 164.756C152.733 164.691 152.705 164.611 152.705 164.518V164.042C152.705 163.949 152.733 163.874 152.789 163.818C152.854 163.753 152.934 163.72 153.027 163.72H154.119V161.382C154.119 161.289 154.147 161.214 154.203 161.158C154.268 161.093 154.348 161.06 154.441 161.06H155.099C155.192 161.06 155.267 161.093 155.323 161.158C155.388 161.214 155.421 161.289 155.421 161.382V163.72H157.157C157.25 163.72 157.325 163.753 157.381 163.818C157.446 163.874 157.479 163.949 157.479 164.042V164.518C157.479 164.611 157.446 164.691 157.381 164.756C157.325 164.812 157.25 164.84 157.157 164.84H155.421V168.438C155.421 168.877 155.496 169.222 155.645 169.474C155.794 169.726 156.06 169.852 156.443 169.852H157.297C157.39 169.852 157.465 169.885 157.521 169.95C157.586 170.006 157.619 170.081 157.619 170.174V170.678C157.619 170.771 157.586 170.851 157.521 170.916C157.465 170.972 157.39 171 157.297 171H156.331ZM159.294 171C159.201 171 159.121 170.972 159.056 170.916C159 170.851 158.972 170.771 158.972 170.678V161.382C158.972 161.289 159 161.214 159.056 161.158C159.121 161.093 159.201 161.06 159.294 161.06H159.994C160.097 161.06 160.176 161.093 160.232 161.158C160.288 161.214 160.316 161.289 160.316 161.382V164.644C160.568 164.327 160.876 164.07 161.24 163.874C161.604 163.678 162.066 163.58 162.626 163.58C163.233 163.58 163.746 163.715 164.166 163.986C164.595 164.247 164.917 164.616 165.132 165.092C165.356 165.559 165.468 166.105 165.468 166.73V170.678C165.468 170.771 165.44 170.851 165.384 170.916C165.328 170.972 165.249 171 165.146 171H164.446C164.353 171 164.273 170.972 164.208 170.916C164.152 170.851 164.124 170.771 164.124 170.678V166.8C164.124 166.147 163.965 165.638 163.648 165.274C163.331 164.901 162.864 164.714 162.248 164.714C161.669 164.714 161.203 164.901 160.848 165.274C160.493 165.638 160.316 166.147 160.316 166.8V170.678C160.316 170.771 160.288 170.851 160.232 170.916C160.176 170.972 160.097 171 159.994 171H159.294ZM170.387 171.14C169.426 171.14 168.66 170.846 168.091 170.258C167.522 169.661 167.209 168.849 167.153 167.822C167.144 167.701 167.139 167.547 167.139 167.36C167.139 167.164 167.144 167.005 167.153 166.884C167.19 166.221 167.344 165.643 167.615 165.148C167.886 164.644 168.254 164.257 168.721 163.986C169.197 163.715 169.752 163.58 170.387 163.58C171.096 163.58 171.689 163.729 172.165 164.028C172.65 164.327 173.019 164.751 173.271 165.302C173.523 165.853 173.649 166.497 173.649 167.234V167.472C173.649 167.575 173.616 167.654 173.551 167.71C173.495 167.766 173.42 167.794 173.327 167.794H168.483C168.483 167.803 168.483 167.822 168.483 167.85C168.483 167.878 168.483 167.901 168.483 167.92C168.502 168.303 168.586 168.662 168.735 168.998C168.884 169.325 169.099 169.591 169.379 169.796C169.659 170.001 169.995 170.104 170.387 170.104C170.723 170.104 171.003 170.053 171.227 169.95C171.451 169.847 171.633 169.735 171.773 169.614C171.913 169.483 172.006 169.385 172.053 169.32C172.137 169.199 172.202 169.129 172.249 169.11C172.296 169.082 172.37 169.068 172.473 169.068H173.145C173.238 169.068 173.313 169.096 173.369 169.152C173.434 169.199 173.462 169.269 173.453 169.362C173.444 169.502 173.369 169.675 173.229 169.88C173.089 170.076 172.888 170.272 172.627 170.468C172.366 170.664 172.048 170.827 171.675 170.958C171.302 171.079 170.872 171.14 170.387 171.14ZM168.483 166.828H172.319V166.786C172.319 166.366 172.24 165.993 172.081 165.666C171.932 165.339 171.712 165.083 171.423 164.896C171.134 164.7 170.788 164.602 170.387 164.602C169.986 164.602 169.64 164.7 169.351 164.896C169.071 165.083 168.856 165.339 168.707 165.666C168.558 165.993 168.483 166.366 168.483 166.786V166.828ZM175.645 171C175.552 171 175.472 170.972 175.407 170.916C175.351 170.851 175.323 170.771 175.323 170.678V164.042C175.323 163.949 175.351 163.874 175.407 163.818C175.472 163.753 175.552 163.72 175.645 163.72H176.275C176.368 163.72 176.443 163.753 176.499 163.818C176.564 163.874 176.597 163.949 176.597 164.042V164.532C176.812 164.243 177.082 164.014 177.409 163.846C177.736 163.669 178.128 163.58 178.585 163.58C179.64 163.571 180.386 164 180.825 164.868C181.04 164.476 181.352 164.163 181.763 163.93C182.174 163.697 182.64 163.58 183.163 163.58C183.648 163.58 184.087 163.692 184.479 163.916C184.88 164.14 185.193 164.481 185.417 164.938C185.65 165.386 185.767 165.951 185.767 166.632V170.678C185.767 170.771 185.734 170.851 185.669 170.916C185.613 170.972 185.538 171 185.445 171H184.787C184.694 171 184.614 170.972 184.549 170.916C184.493 170.851 184.465 170.771 184.465 170.678V166.758C184.465 166.235 184.39 165.825 184.241 165.526C184.092 165.227 183.891 165.017 183.639 164.896C183.387 164.775 183.112 164.714 182.813 164.714C182.57 164.714 182.323 164.775 182.071 164.896C181.819 165.017 181.609 165.227 181.441 165.526C181.282 165.825 181.203 166.235 181.203 166.758V170.678C181.203 170.771 181.17 170.851 181.105 170.916C181.049 170.972 180.974 171 180.881 171H180.223C180.13 171 180.05 170.972 179.985 170.916C179.929 170.851 179.901 170.771 179.901 170.678V166.758C179.901 166.235 179.822 165.825 179.663 165.526C179.504 165.227 179.299 165.017 179.047 164.896C178.795 164.775 178.529 164.714 178.249 164.714C178.006 164.714 177.759 164.775 177.507 164.896C177.255 165.017 177.045 165.227 176.877 165.526C176.718 165.825 176.639 166.231 176.639 166.744V170.678C176.639 170.771 176.606 170.851 176.541 170.916C176.485 170.972 176.41 171 176.317 171H175.645Z" fill="#888888"/>
<defs>
<clipPath id="clip0_658_19279">
<rect width="180" height="117" fill="white" transform="translate(52.5)"/>
</clipPath>
<clipPath id="clip1_658_19279">
<rect width="180" height="99.0083" fill="white" transform="translate(52.5 8.99561)"/>
</clipPath>
</defs>
</svg>
