<svg width="30" height="30" viewBox="0 0 30 30" fill="none" xmlns="http://www.w3.org/2000/svg">
<rect width="30" height="30" rx="4" fill="#6E8290"/>
<g clip-path="url(#clip0_658_16957)">
<path d="M11.3026 23.0961C18.8158 23.0961 22.9321 16.867 22.9321 11.4666C22.9321 11.2936 22.9321 11.1115 22.9229 10.9385C23.7243 10.3647 24.4165 9.63618 24.9629 8.81656C24.2252 9.14441 23.442 9.36297 22.6133 9.46315C23.4603 8.96227 24.1068 8.15176 24.4165 7.19554C23.6242 7.6691 22.7499 7.99695 21.821 8.18819C21.0743 7.38679 20.0088 6.89502 18.8431 6.89502C16.5846 6.89502 14.7541 8.72549 14.7541 10.984C14.7541 11.3027 14.7905 11.6124 14.8543 11.9129C11.4574 11.749 8.44309 10.1097 6.43048 7.64178C6.07531 8.25194 5.88407 8.95316 5.88407 9.69992C5.88407 11.1206 6.61261 12.3682 7.70543 13.1059C7.03153 13.0786 6.40316 12.8964 5.85675 12.5959C5.85675 12.6141 5.85675 12.6232 5.85675 12.6505C5.85675 14.6267 7.26831 16.2842 9.13521 16.6575C8.78915 16.7577 8.43398 16.8033 8.0606 16.8033C7.7965 16.8033 7.54151 16.7759 7.29563 16.7304C7.81472 18.3605 9.32645 19.5353 11.1114 19.5717C9.70894 20.6737 7.95132 21.3293 6.03888 21.3293C5.71104 21.3293 5.38319 21.3111 5.06445 21.2747C6.84939 22.4222 8.9986 23.0961 11.3026 23.0961Z" fill="white"/>
</g>
<defs>
<clipPath id="clip0_658_16957">
<rect width="20.8" height="20.8" fill="white" transform="translate(4.6001 4.6001)"/>
</clipPath>
</defs>
</svg>
