<svg width="40" height="30" viewBox="0 0 40 30" fill="none" xmlns="http://www.w3.org/2000/svg">
<g clip-path="url(#clip0_128_3985)">
<g opacity="0.202799">
<path d="M19.8449 15.2069C24.0442 15.2069 27.4484 11.8027 27.4484 7.60345C27.4484 3.40418 24.0442 0 19.8449 0C15.6456 0 12.2415 3.40418 12.2415 7.60345C12.2415 11.8027 15.6456 15.2069 19.8449 15.2069ZM19.8449 2.68357C22.5621 2.68357 24.7648 4.88627 24.7648 7.60345C24.7648 10.3206 22.5621 12.5233 19.8449 12.5233C17.1277 12.5233 14.925 10.3206 14.925 7.60345C14.925 4.88627 17.1277 2.68357 19.8449 2.68357Z" fill="black"/>
<path fill-rule="evenodd" clip-rule="evenodd" d="M36.8414 32.1416C36.8414 31.994 35.1275 17.3793 20.0293 17.3793C4.93106 17.3793 3.16796 31.9895 3.14559 32.1372C3.06724 32.8732 3.59979 33.5337 4.3359 33.6134H4.4791C5.16802 33.6173 5.74809 33.0993 5.82156 32.4145C5.87526 31.909 7.28932 20.0499 20.0293 20.0499C32.6798 20.0499 34.1162 31.909 34.1699 32.41C34.2465 33.1512 34.9097 33.69 35.6511 33.6134C36.3925 33.5368 36.9314 32.8739 36.8548 32.1327L36.8414 32.1416Z" fill="black"/>
</g>
</g>
<defs>
<clipPath id="clip0_128_3985">
<rect width="32.8966" height="30" fill="white" transform="translate(3.55176)"/>
</clipPath>
</defs>
</svg>
