<svg width="10" height="7" viewBox="0 0 10 7" fill="none" xmlns="http://www.w3.org/2000/svg">
<path d="M9.76886 0.781607C9.6666 0.718454 9.54561 0.692708 9.4265 0.708754C9.30739 0.7248 9.19753 0.781645 9.11563 0.869607L5.3587 4.61638C5.26351 4.71145 5.13447 4.76485 4.99993 4.76485C4.86539 4.76485 4.73636 4.71145 4.64116 4.61638L0.88424 0.869607C0.80234 0.781645 0.692477 0.7248 0.573367 0.708754C0.454256 0.692708 0.333266 0.718454 0.231009 0.781607C0.168405 0.823227 0.115825 0.878232 0.0770674 0.942648C0.0383095 1.00706 0.0143409 1.07928 0.00689257 1.15409C-0.000555757 1.2289 0.00870212 1.30443 0.0339976 1.37522C0.0592931 1.44601 0.0999947 1.5103 0.153163 1.56345L4.28239 5.69268L4.64116 6.05145C4.73636 6.14653 4.86539 6.19993 4.99993 6.19993C5.13447 6.19993 5.26351 6.14653 5.3587 6.05145L5.71747 5.69268L9.8467 1.56345C9.89987 1.5103 9.94057 1.44601 9.96587 1.37522C9.99116 1.30443 10.0004 1.2289 9.99297 1.15409C9.98552 1.07928 9.96156 1.00706 9.9228 0.942648C9.88404 0.878232 9.83146 0.823227 9.76886 0.781607Z" fill="white"/>
</svg>
