<svg width="15" height="15" viewBox="0 0 15 15" fill="none" xmlns="http://www.w3.org/2000/svg">
<path d="M14.4772 13.46C14.544 13.5268 14.5969 13.6061 14.6331 13.6933C14.6692 13.7806 14.6878 13.8741 14.6878 13.9685C14.6878 14.063 14.6692 14.1565 14.6331 14.2437C14.5969 14.331 14.544 14.4103 14.4772 14.4771C14.4104 14.5438 14.3311 14.5968 14.2439 14.6329C14.1566 14.6691 14.0631 14.6877 13.9687 14.6877C13.8742 14.6877 13.7807 14.6691 13.6935 14.6329C13.6062 14.5968 13.5269 14.5438 13.4601 14.4771L7.49991 8.51592L1.53968 14.4771C1.40481 14.6119 1.22189 14.6877 1.03116 14.6877C0.840431 14.6877 0.657512 14.6119 0.522646 14.4771C0.387779 14.3422 0.312012 14.1593 0.312012 13.9685C0.312012 13.7778 0.387779 13.5949 0.522646 13.46L6.48378 7.49979L0.522646 1.53955C0.387779 1.40469 0.312012 1.22177 0.312012 1.03104C0.312012 0.840309 0.387779 0.65739 0.522646 0.522524C0.657512 0.387657 0.840431 0.31189 1.03116 0.31189C1.22189 0.31189 1.40481 0.387657 1.53968 0.522524L7.49991 6.48366L13.4601 0.522524C13.595 0.387657 13.7779 0.31189 13.9687 0.31189C14.1594 0.31189 14.3423 0.387657 14.4772 0.522524C14.612 0.65739 14.6878 0.840309 14.6878 1.03104C14.6878 1.22177 14.612 1.40469 14.4772 1.53955L8.51604 7.49979L14.4772 13.46Z" fill="black"/>
</svg>
